<?xml version="1.0" encoding="utf-8"?>
<!-- Generator: Adobe Illustrator 27.8.1, SVG Export Plug-In . SVG Version: 6.00 Build 0)  -->
<svg version="1.1" id="Layer_1" xmlns="http://www.w3.org/2000/svg" xmlns:xlink="http://www.w3.org/1999/xlink" x="0px" y="0px"
	 viewBox="0 0 629 999" style="enable-background:new 0 0 629 999;" xml:space="preserve">
<style type="text/css">
	.st0{fill:url(#SVGID_1_);}
	.st1{fill:url(#SVGID_00000141413470004060657650000018015601313653407903_);}
	.st2{fill:none;stroke:#FFFFFF;stroke-width:1.25;}
	.st3{fill:#9B8579;stroke:#594A42;stroke-miterlimit:10;}
	.st4{fill:#58595B;stroke:#FFFFFF;stroke-width:0.5;}
	.st5{fill:#BE1E2D;}
	.st6{fill:#FFFFFF;}
	.st7{fill:#EDE0D4;}
	.st8{fill:#A25250;}
	.st9{fill:#C6845C;}
	.st10{fill:#9DC855;}
	.st11{fill:#ACCF71;}
	.st12{fill:#84B13E;}
	.st13{fill:#C48C7A;}
	.st14{fill:#ECAF87;}
	.st15{fill:#C97935;}
	.st16{fill:#808285;}
	.st17{fill:#58595B;stroke:#FFFFFF;stroke-width:1.25;}
	.st18{fill:none;stroke:#231F20;stroke-linecap:round;stroke-miterlimit:10;stroke-dasharray:1,3;}
	.st19{fill:none;stroke:#FFFFFF;stroke-linecap:round;stroke-miterlimit:10;stroke-dasharray:1,3;}
	.st20{fill:none;stroke:#FFFFFF;stroke-linecap:round;stroke-miterlimit:10;}
	.st21{fill:none;stroke:#FFFFFF;stroke-linecap:round;stroke-miterlimit:10;stroke-dasharray:1.0014,3.0043;}
	.st22{fill:#A7A9AC;stroke:#FFFFFF;stroke-miterlimit:10;}
	.st23{fill:none;stroke:#FFFFFF;stroke-miterlimit:10;}
	.st24{fill:#A7A9AC;stroke:#FFFFFF;stroke-width:3;stroke-miterlimit:10;}
	.st25{fill:#A7A9AC;stroke:#FFFFFF;stroke-width:1;stroke-miterlimit:10.0016;}
	.st26{fill:#C5CBD5;}
	.st27{fill:#FFFFFF;stroke:#BE1E2D;stroke-width:0.5;stroke-miterlimit:10;}
	.st28{fill:#FFFFFF;stroke:#BE1E2D;stroke-width:0.5;stroke-miterlimit:10.0012;}
	.st29{fill:none;stroke:#BE1E2D;stroke-width:0.5;stroke-miterlimit:10;}
	.st30{fill:#BCBEC0;stroke:#231F20;stroke-width:0.25;stroke-miterlimit:10;}
	.st31{fill:#808285;stroke:#231F20;stroke-width:0.25;stroke-miterlimit:10;}
	.st32{fill:none;stroke:#231F20;stroke-width:0.25;stroke-miterlimit:10;}
	.st33{fill:none;stroke:#231F20;stroke-width:0.75;stroke-miterlimit:10;}
	.st34{fill:#231F20;stroke:#231F20;stroke-width:0.25;stroke-miterlimit:10;}
	.st35{fill:#FFF200;}
	.st36{fill:#A7A9AC;stroke:#231F20;stroke-width:0.5;stroke-miterlimit:10;}
	.st37{fill:#BCBEC0;stroke:#231F20;stroke-width:0.5;stroke-miterlimit:10;}
	.st38{fill:#FFF200;stroke:#231F20;stroke-width:0.5;stroke-miterlimit:10;}
	.st39{fill:none;stroke:#231F20;stroke-width:0.5;stroke-miterlimit:10;}
	.st40{fill:#F15A29;stroke:#BCBEC0;stroke-width:0.5;stroke-miterlimit:10;}
	.st41{fill:#F7941D;stroke:#FFFFFF;stroke-width:0.5;stroke-miterlimit:10;}
	.st42{fill:#BCBEC0;stroke:#FFFFFF;stroke-width:0.5;stroke-miterlimit:10;}
	.st43{fill:#BCBEC0;stroke:#EF4136;stroke-width:0.5;stroke-miterlimit:10;}
	.st44{fill:#BCBEC0;stroke:#F15A29;stroke-width:0.5;stroke-miterlimit:10;}
	.st45{fill:#FFFFFF;stroke:#EF4136;stroke-width:0.5;stroke-miterlimit:10;}
	.st46{fill:none;stroke:#EF4136;stroke-width:0.5;stroke-miterlimit:10;}
	.st47{fill:none;stroke:#F15A29;stroke-width:0.5;stroke-miterlimit:10;}
	.st48{fill:none;stroke:#FFFFFF;stroke-width:0.5;stroke-miterlimit:10;}
	.st49{fill:#FBB040;stroke:#231F20;stroke-width:0.5;stroke-miterlimit:10;}
	.st50{fill:#F7941D;stroke:#231F20;stroke-width:0.5;stroke-miterlimit:10;}
	.st51{fill:#231F20;}
	.st52{fill-rule:evenodd;clip-rule:evenodd;stroke:#FFFFFF;stroke-width:0.5;stroke-miterlimit:10;}
	.st53{fill:#939598;stroke:#231F20;stroke-miterlimit:10;}
	.st54{fill:#6D6E71;stroke:#231F20;stroke-miterlimit:10;}
	.st55{fill:#939598;stroke:#231F20;stroke-width:1;stroke-miterlimit:10.0004;}
	.st56{fill:#939598;stroke:#231F20;stroke-width:1;stroke-miterlimit:9.9992;}
	.st57{fill:none;stroke:#231F20;stroke-miterlimit:10;}
	.st58{fill:#D1D3D4;}
	.st59{fill:#6D6E71;}
	.st60{fill:#414042;}
	.st61{fill:#5A4740;}
	.st62{fill:#89664D;}
	.st63{fill:#808285;stroke:#FFFFFF;stroke-miterlimit:10;}
	.st64{fill:#808285;stroke:#FFFFFF;stroke-width:1;stroke-miterlimit:9.9984;}
	.st65{fill:#594A42;}
	.st66{fill:#BCBEC0;stroke:#FFFFFF;stroke-miterlimit:10;}
	.st67{display:none;}
	.st68{display:inline;fill:#FFFFFF;stroke:#231F20;stroke-miterlimit:10;}
	.st69{display:inline;fill:none;}
	.st70{display:inline;fill:#231F20;}
	.st71{font-family:'MyriadPro-Bold';}
	.st72{font-size:14px;}
	.st73{font-size:12px;}
	.st74{font-size:15px;}
	.st75{font-size:16px;}
	.st76{font-size:17px;}
</style>
<g id="Background">
	
		<linearGradient id="SVGID_1_" gradientUnits="userSpaceOnUse" x1="314.5" y1="-373" x2="314.5" y2="-416" gradientTransform="matrix(1 0 0 1 0 416)">
		<stop  offset="0" style="stop-color:#2484C6;stop-opacity:0"/>
		<stop  offset="1" style="stop-color:#2484C6"/>
	</linearGradient>
	<rect class="st0" width="629" height="43"/>
	
		<linearGradient id="SVGID_00000088823320359900631630000013422738740786361238_" gradientUnits="userSpaceOnUse" x1="314.75" y1="563" x2="314.75" y2="-373" gradientTransform="matrix(1 0 0 1 0 416)">
		<stop  offset="2.793296e-03" style="stop-color:#000002"/>
		<stop  offset="0.7123" style="stop-color:#262262"/>
		<stop  offset="0.9274" style="stop-color:#00AEEF"/>
		<stop  offset="1" style="stop-color:#ABE1FA"/>
	</linearGradient>
	<rect x="0.5" y="43" style="fill:url(#SVGID_00000088823320359900631630000013422738740786361238_);" width="628.5" height="936"/>
	<g>
		<g>
			<g>
				<path class="st2" d="M407.8,48.7c2,2.3,6,4.6,17.3-5.5c5-4.4,9.1-4.8,11.5-3.3c1.5,0.9,2.1,2.9,1.8,3.9
					c-0.5,1.7-2.1,2.3-3.3,1.5c1.1-0.7,0.6-2.2-1-1.9c-2.4,0.5-2.2,3.7-0.9,5.3c2,2.3,6,4.6,17.3-5.5c5-4.4,9.1-4.8,11.5-3.3
					c1.5,0.9,2.1,2.9,1.8,3.9c-0.5,1.7-2.1,2.3-3.3,1.5c1.1-0.7,0.6-2.2-1-1.9c-2.4,0.5-2.2,3.7-0.9,5.3c2,2.3,6,4.6,17.3-5.5"/>
			</g>
			<g>
				<path class="st2" d="M458.5,48.7c2,2.3,6,4.6,17.3-5.5c5-4.4,9.1-4.8,11.5-3.3c1.5,0.9,2.1,2.9,1.8,3.9
					c-0.5,1.7-2.1,2.3-3.3,1.5c1.1-0.7,0.6-2.2-1-1.9c-2.4,0.5-2.2,3.7-0.9,5.3c2,2.3,6,4.6,17.3-5.5c5-4.4,9.1-4.8,11.5-3.3
					c1.5,0.9,2.2,2.9,1.8,3.9c-0.5,1.7-2.1,2.3-3.3,1.5c1.1-0.7,0.6-2.2-1-1.9c-2.4,0.5-2.2,3.7-0.8,5.3c2,2.3,6,4.6,17.3-5.5"/>
			</g>
			<g>
				<path class="st2" d="M509.3,48.7c2,2.3,6,4.6,17.3-5.5c5-4.4,9.1-4.8,11.5-3.3c1.5,0.9,2.2,2.9,1.8,3.9
					c-0.5,1.7-2.1,2.3-3.3,1.5c1.1-0.7,0.7-2.2-1-1.9c-2.4,0.5-2.2,3.7-0.8,5.3c2,2.3,6,4.6,17.3-5.5c5-4.4,9.1-4.8,11.5-3.3
					c1.5,0.9,2.2,2.9,1.8,3.9c-0.5,1.7-2.1,2.3-3.3,1.5c1.1-0.7,0.7-2.2-1-1.9c-2.4,0.5-2.2,3.7-0.8,5.3c2,2.3,6,4.6,17.3-5.5"/>
			</g>
		</g>
		<g>
			<g>
				<path class="st2" d="M255.8,48.7c2,2.3,6,4.6,17.3-5.5c5-4.4,9.1-4.8,11.5-3.3c1.5,0.9,2.1,2.9,1.8,3.9
					c-0.5,1.7-2.1,2.3-3.3,1.5c1.1-0.7,0.6-2.2-1-1.9c-2.4,0.5-2.2,3.7-0.9,5.3c2,2.3,6,4.6,17.3-5.5c5-4.4,9.1-4.8,11.5-3.3
					c1.5,0.9,2.1,2.9,1.8,3.9c-0.5,1.7-2.1,2.3-3.3,1.5c1.1-0.7,0.6-2.2-1-1.9c-2.4,0.5-2.2,3.7-0.9,5.3c2,2.3,6,4.6,17.3-5.5"/>
			</g>
			<g>
				<path class="st2" d="M306.5,48.7c2,2.3,6,4.6,17.3-5.5c5-4.4,9.1-4.8,11.5-3.3c1.5,0.9,2.1,2.9,1.8,3.9
					c-0.5,1.7-2.1,2.3-3.3,1.5c1.1-0.7,0.6-2.2-1-1.9c-2.4,0.5-2.2,3.7-0.9,5.3c2,2.3,6,4.6,17.3-5.5c5-4.4,9.1-4.8,11.5-3.3
					c1.5,0.9,2.1,2.9,1.8,3.9c-0.5,1.7-2.1,2.3-3.3,1.5c1.1-0.7,0.6-2.2-1-1.9c-2.4,0.5-2.2,3.7-0.8,5.3c2,2.3,6,4.6,17.3-5.5"/>
			</g>
			<g>
				<path class="st2" d="M357.3,48.7c2,2.3,6,4.6,17.3-5.5c5-4.4,9.1-4.8,11.5-3.3c1.5,0.9,2.1,2.9,1.8,3.9
					c-0.5,1.7-2.1,2.3-3.3,1.5c1.1-0.7,0.6-2.2-1-1.9c-2.4,0.5-2.2,3.7-0.9,5.3c2,2.3,6,4.6,17.3-5.5c5-4.4,9.1-4.8,11.5-3.3
					c1.5,0.9,2.1,2.9,1.8,3.9c-0.5,1.7-2.1,2.3-3.3,1.5c1.1-0.7,0.6-2.2-1-1.9c-2.4,0.5-2.2,3.7-0.8,5.3c2,2.3,6,4.6,17.3-5.5"/>
			</g>
		</g>
		<g>
			<g>
				<path class="st2" d="M129.8,48.7c2,2.3,6,4.6,17.3-5.5c5-4.4,9.1-4.8,11.4-3.3c1.5,0.9,2.1,2.9,1.8,3.9
					c-0.6,1.7-2.1,2.3-3.3,1.5c1.1-0.7,0.6-2.2-1-1.9c-2.4,0.5-2.2,3.7-0.9,5.3c2,2.3,6,4.6,17.3-5.5c5-4.4,9.1-4.8,11.5-3.3
					c1.5,0.9,2.1,2.9,1.8,3.9c-0.6,1.7-2.1,2.3-3.3,1.5c1.1-0.7,0.6-2.2-1-1.9c-2.4,0.5-2.2,3.7-0.9,5.3c2,2.3,6,4.6,17.3-5.5"/>
			</g>
			<g>
				<path class="st2" d="M180.5,48.7c2,2.3,6,4.6,17.3-5.5c5-4.4,9.1-4.8,11.4-3.3c1.5,0.9,2.1,2.9,1.8,3.9
					c-0.6,1.7-2.1,2.3-3.3,1.5c1.1-0.7,0.6-2.2-1-1.9c-2.4,0.5-2.2,3.7-0.9,5.3c2,2.3,6,4.6,17.3-5.5c5-4.4,9.1-4.8,11.5-3.3
					c1.5,0.9,2.1,2.9,1.8,3.9c-0.6,1.7-2.1,2.3-3.3,1.5c1.1-0.7,0.6-2.2-1-1.9c-2.4,0.5-2.2,3.7-0.8,5.3c2,2.3,6,4.6,17.3-5.5"/>
			</g>
			<g>
				<path class="st2" d="M231.3,48.7c2,2.3,6,4.6,17.3-5.5c5-4.4,9.1-4.8,11.5-3.3c1.5,0.9,2.1,2.9,1.8,3.9
					c-0.5,1.7-2.1,2.3-3.3,1.5c1.1-0.7,0.6-2.2-1-1.9c-2.4,0.5-2.2,3.7-0.9,5.3c2,2.3,6,4.6,17.3-5.5c5-4.4,9.1-4.8,11.5-3.3
					c1.5,0.9,2.1,2.9,1.8,3.9c-0.5,1.7-2.1,2.3-3.3,1.5c1.1-0.7,0.6-2.2-1-1.9c-2.4,0.5-2.2,3.7-0.8,5.3c2,2.3,6,4.6,17.3-5.5"/>
			</g>
		</g>
		<g>
			<g>
				<path class="st2" d="M0.8,49.7c2,2.3,6,4.6,17.3-5.5c5-4.4,9.1-4.8,11.5-3.3c1.5,0.9,2.1,2.9,1.8,3.9c-0.5,1.7-2.1,2.3-3.3,1.5
					c1.1-0.7,0.6-2.2-1-1.9c-2.4,0.5-2.2,3.7-0.9,5.3c2,2.3,6,4.6,17.3-5.5c5-4.4,9.1-4.8,11.5-3.3c1.5,0.9,2.2,2.9,1.8,3.9
					c-0.5,1.7-2.1,2.3-3.3,1.5c1.1-0.7,0.7-2.2-1-1.9c-2.4,0.5-2.2,3.7-0.8,5.3c2,2.3,6,4.6,17.3-5.5"/>
			</g>
			<g>
				<path class="st2" d="M51.5,49.7c2,2.3,6,4.6,17.3-5.5c5-4.4,9.1-4.8,11.4-3.3c1.5,0.9,2.2,2.9,1.8,3.9c-0.6,1.7-2.1,2.3-3.3,1.5
					c1.1-0.7,0.7-2.2-1-1.9c-2.4,0.5-2.2,3.7-0.8,5.3c2,2.3,6,4.6,17.3-5.5c5-4.4,9.1-4.8,11.5-3.3c1.5,0.9,2.2,2.9,1.8,3.9
					c-0.6,1.7-2.1,2.3-3.3,1.5c1.1-0.7,0.7-2.2-1-1.9c-2.4,0.5-2.2,3.7-0.8,5.3c2,2.3,6,4.6,17.3-5.5"/>
			</g>
			<g>
				<path class="st2" d="M102.3,49.7c2,2.3,6,4.6,17.3-5.5c5-4.4,9.1-4.8,11.4-3.3c1.5,0.9,2.1,2.9,1.8,3.9
					c-0.6,1.7-2.1,2.3-3.3,1.5c1.1-0.7,0.6-2.2-1-1.9c-2.4,0.5-2.2,3.7-0.8,5.3c2,2.3,6,4.6,17.3-5.5c5-4.4,9.1-4.8,11.5-3.3
					c1.5,0.9,2.1,2.9,1.8,3.9c-0.6,1.7-2.1,2.3-3.3,1.5c1.1-0.7,0.6-2.2-1-1.9c-2.4,0.5-2.2,3.7-0.8,5.3c2,2.3,6,4.6,17.3-5.5"/>
			</g>
		</g>
	</g>
	<path class="st3" d="M629.5,32.6l-22.4,0.9L576.5,40l-51,22.2c0,0-20,21.5-44.5,48.3c-29.4,32.3-21,56.6-31.5,80.1
		s2.5,93.9-48.5,174.9c-45,71.5-181.9,133.3-202,225c-2.8,34.1-17.8,41.6-23.4,85.4C163.2,773,154,907.5,154,907.5s-15,48.7-30,55
		S0,966.7,0,966.7V998l629.5,1V32.6z"/>
	<g>
		<g>
			<path class="st4" d="M455.3,36.1h2.4l0.9-3.3c0.1-0.2,0.2-0.2,0.3-0.2h1.5V28c0-0.2,0.1-0.3,0.3-0.3h0.9v-2.2
				c0-0.1,0-0.1,0.1-0.2s0.1-0.1,0.2-0.1h12.7c0.1,0,0.1,0,0.2,0.1s0.1,0.1,0.1,0.2l0.8,2.2h1.2c0.1,0,0.2,0,0.3,0.1l3.8,4.6h1.3
				c0.1,0,0.2,0,0.3,0.1s0.2,0.1,0.3,0.1c0.1,0,0.2,0.1,0.3,0.2l3.2,3.3h5.9h0.1l0.1,0.1c0,0,0,0.1,0,0.2c0,0.1,0,0.2-0.1,0.2
				l-4.7,5.4l-0.1,0.1h-0.1h-29.8c-0.1,0-0.2-0.1-0.3-0.2l-2.6-5.4c0,0,0-0.1,0-0.2s0-0.1,0-0.1C455.1,36.2,455.2,36.1,455.3,36.1z
				 M479.5,36c0.1,0.1,0.2,0.2,0.4,0.2h3.5c0.2,0,0.2-0.1,0.2-0.2c0-0.1-0.1-0.3-0.2-0.4l-1.4-1.3c-0.2-0.2-0.3-0.3-0.5-0.3
				c-0.2-0.1-0.3-0.1-0.5-0.1h-1c-0.2,0-0.3,0.1-0.4,0.2c-0.1,0.1-0.2,0.3-0.2,0.4v1.1C479.4,35.7,479.4,35.8,479.5,36z M477,30.4
				c-0.1-0.2-0.3-0.3-0.4-0.3s-0.3,0-0.5,0H462c-0.1,0-0.1,0-0.2,0.1s-0.1,0.1-0.1,0.2s0,0.1,0,0.2s0,0.1,0,0.1l0,0v0.1
				c0,0,0,0.1,0,0.2s0,0.1,0.1,0.2c0,0,0.1,0.1,0.2,0.1h15.4c0.2,0,0.3-0.1,0.3-0.2s0-0.1-0.1-0.2c0-0.1-0.1-0.1-0.2-0.2L477,30.4z
				 M474.8,35.9c0.1,0.1,0.3,0.2,0.4,0.2h1.1c0.2,0,0.3-0.1,0.5-0.2c0.1-0.1,0.2-0.3,0.2-0.4v-1.1c0-0.2-0.1-0.3-0.2-0.5
				c-0.1-0.1-0.3-0.2-0.5-0.2h-1.1c-0.1,0-0.3,0.1-0.4,0.2s-0.2,0.3-0.2,0.5v1.1C474.6,35.7,474.7,35.8,474.8,35.9z M473.2,26.5
				h-10.1c-0.1,0-0.1,0-0.2,0.1s-0.1,0.1-0.1,0.2v0.7c0,0.1,0,0.1,0.1,0.2s0.1,0.1,0.2,0.1h10.1c0.1,0,0.2,0,0.2-0.1
				c0.1-0.1,0.1-0.1,0.1-0.2v-0.7C473.5,26.6,473.4,26.5,473.2,26.5z M470.1,36c0.1,0.1,0.2,0.2,0.4,0.2h1.1c0.2,0,0.3-0.1,0.4-0.2
				s0.2-0.3,0.2-0.4v-1.1c0-0.2-0.1-0.3-0.2-0.4c-0.1-0.1-0.2-0.2-0.4-0.2h-1.1c-0.2,0-0.3,0.1-0.4,0.2c-0.1,0.1-0.2,0.3-0.2,0.4
				v1.1C469.9,35.7,470,35.8,470.1,36z M465.4,36c0.1,0.1,0.2,0.2,0.4,0.2h1.1c0.2,0,0.3-0.1,0.4-0.2s0.2-0.3,0.2-0.4v-1.1
				c0-0.2-0.1-0.3-0.2-0.4c-0.1-0.1-0.2-0.2-0.4-0.2h-1.1c-0.2,0-0.3,0.1-0.4,0.2c-0.1,0.1-0.2,0.3-0.2,0.4v1.1
				C465.2,35.7,465.3,35.8,465.4,36z M460.7,36c0.1,0.1,0.2,0.2,0.4,0.2h1.1c0.1,0,0.3-0.1,0.4-0.2s0.2-0.3,0.2-0.4v-1.1
				c0-0.2-0.1-0.3-0.2-0.4c-0.1-0.1-0.3-0.2-0.4-0.2h-1.1c-0.2,0-0.3,0.1-0.4,0.2s-0.2,0.3-0.2,0.4v1.1
				C460.5,35.7,460.5,35.8,460.7,36z"/>
		</g>
		<polygon class="st5" points="456,38 491,38 493,36 455,36 		"/>
		<polygon class="st5" points="458.7,34 484,34 482,32 459,32 		"/>
		<polygon class="st5" points="461,30 479,30 477,28 461,28 		"/>
		<polygon class="st5" points="462,27 476,27 474.9,25 462,25 		"/>
	</g>
	<g>
		<path class="st6" d="M366.3,14.1h-0.1c-0.5-1.6-2.5-2.9-4.9-2.9c-0.3,0-0.5,0-0.8,0.1c-0.9-2.9-4.5-5.1-8.9-5.1
			c-1.9,0-3.7,0.4-5.2,1.2c-1.7-1.3-4.1-2.2-6.8-2.2c-3.5,0-6.5,1.4-8,3.5c-2.5,0.2-4.4,1.8-4.4,3.6c0,0.3,0.1,0.6,0.2,0.9
			c0,0-0.1,0-0.2,0c-1.8,0-3.3,1.1-3.3,2.4s1.5,2.4,3.3,2.4c0.4,0,0.8-0.1,1.2-0.2c0.4,0.4,0.8,0.8,1.4,1.1c-0.6,0.4-0.9,1-0.9,1.7
			c0,1.3,1.5,2.4,3.3,2.4c0.4,0,0.8-0.1,1.2-0.2c0.9,1.1,2.5,1.8,4.4,1.8c0.5,0,0.9-0.1,1.4-0.1c1.5,0.7,3.2,1.1,5.1,1.1
			c2,0,3.8-0.5,5.3-1.2c0.5,0.2,1,0.3,1.5,0.3c1.3,0,2.5-0.6,3-1.4c0.3,0.1,0.7,0.1,1,0.1c1,0,1.9-0.3,2.5-0.8
			c0.5,0.3,1.2,0.4,1.9,0.4c1.8,0,3.3-1.1,3.3-2.4c0-0.5-0.2-0.9-0.5-1.2c0.9,0,1.7-0.4,2.2-0.8c0.5,0.3,1.2,0.4,1.9,0.4
			c1.8,0,3.3-1.1,3.3-2.4C369.6,15.2,368.1,14.1,366.3,14.1z"/>
		<path class="st6" d="M497,14.1h0.1c0.5-1.6,2.5-2.9,4.9-2.9c0.3,0,0.5,0,0.8,0.1c0.9-2.9,4.5-5.1,8.9-5.1c1.9,0,3.7,0.4,5.2,1.2
			c1.7-1.3,4.1-2.2,6.8-2.2c3.5,0,6.5,1.4,8,3.5c2.5,0.2,4.4,1.8,4.4,3.6c0,0.3-0.1,0.6-0.2,0.9c0,0,0.1,0,0.2,0
			c1.8,0,3.3,1.1,3.3,2.4s-1.5,2.4-3.3,2.4c-0.4,0-0.8-0.1-1.2-0.2c-0.3,0.4-0.8,0.8-1.4,1.1c0.6,0.4,0.9,1,0.9,1.7
			c0,1.3-1.5,2.4-3.3,2.4c-0.4,0-0.8-0.1-1.2-0.2c-0.9,1.1-2.5,1.8-4.3,1.8c-0.5,0-0.9-0.1-1.4-0.1c-1.5,0.7-3.2,1.1-5.1,1.1
			c-2,0-3.8-0.5-5.3-1.2c-0.5,0.2-1,0.3-1.5,0.3c-1.3,0-2.5-0.6-3-1.4c-0.3,0.1-0.7,0.1-1,0.1c-1,0-1.9-0.3-2.5-0.8
			c-0.5,0.3-1.2,0.4-1.9,0.4c-1.8,0-3.3-1.1-3.3-2.4c0-0.5,0.2-0.9,0.5-1.2c-0.9,0-1.7-0.4-2.2-0.8c-0.5,0.3-1.2,0.4-1.9,0.4
			c-1.8,0-3.3-1.1-3.3-2.4C493.7,15.2,495.2,14.1,497,14.1z"/>
		<path class="st6" d="M109.3,14.1L109.3,14.1c-0.6-1.6-2.6-2.9-5-2.9c-0.3,0-0.6,0-0.8,0.1c-0.9-2.9-4.5-5.1-8.9-5.1
			c-1.9,0-3.7,0.4-5.2,1.2c-1.7-1.4-4.1-2.2-6.8-2.2c-3.5,0-6.5,1.4-8.1,3.5c-2.5,0.2-4.4,1.8-4.4,3.6c0,0.3,0.1,0.6,0.2,0.9
			c-0.1,0-0.1,0-0.2,0c-1.8,0-3.3,1.1-3.3,2.4s1.5,2.4,3.3,2.4c0.4,0,0.8-0.1,1.2-0.2c0.3,0.4,0.8,0.8,1.4,1.1
			c-0.6,0.4-0.9,1-0.9,1.7c0,1.3,1.5,2.4,3.3,2.4c0.4,0,0.8-0.1,1.2-0.2c0.9,1.1,2.5,1.8,4.3,1.8c0.5,0,0.9-0.1,1.4-0.1
			c1.5,0.7,3.2,1.1,5.1,1.1c2,0,3.8-0.5,5.3-1.2c0.4,0.2,0.9,0.3,1.5,0.3c1.3,0,2.5-0.6,3-1.4c0.3,0.1,0.7,0.1,1,0.1
			c1,0,1.9-0.3,2.5-0.8c0.5,0.3,1.2,0.4,1.9,0.4c1.8,0,3.3-1.1,3.3-2.4c0-0.5-0.2-0.9-0.5-1.2c0.9,0,1.7-0.4,2.2-0.8
			c0.5,0.3,1.2,0.4,1.9,0.4c1.8,0,3.3-1.1,3.3-2.4C112.6,15.2,111.1,14.1,109.3,14.1z"/>
		<path class="st6" d="M209.9,14.4L209.9,14.4c0.5-1.2,2-2.1,3.8-2.1c0.2,0,0.4,0,0.6,0c0.7-2.2,3.4-3.9,6.7-3.9
			c1.5,0,2.8,0.3,3.9,0.9c1.3-1,3.1-1.7,5.1-1.7c2.6,0,4.9,1.1,6.1,2.6c1.9,0.2,3.3,1.3,3.3,2.7c0,0.2-0.1,0.4-0.1,0.6h0.1
			c1.4,0,2.5,0.8,2.5,1.8s-1.1,1.8-2.5,1.8c-0.3,0-0.6,0-0.9-0.1c-0.3,0.3-0.6,0.6-1.1,0.8c0.4,0.3,0.7,0.8,0.7,1.2
			c0,1-1.1,1.8-2.5,1.8c-0.3,0-0.6,0-0.9-0.1c-0.7,0.8-1.9,1.4-3.3,1.4c-0.4,0-0.7,0-1-0.1c-1.1,0.5-2.4,0.9-3.8,0.9
			c-1.5,0-2.9-0.4-4-0.9c-0.3,0.1-0.7,0.2-1.1,0.2c-1,0-1.9-0.4-2.3-1c-0.2,0.1-0.5,0.1-0.8,0.1c-0.8,0-1.4-0.2-1.9-0.6
			c-0.4,0.2-0.9,0.3-1.4,0.3c-1.4,0-2.5-0.8-2.5-1.8c0-0.3,0.1-0.6,0.4-0.9c-0.7,0-1.3-0.3-1.7-0.6c-0.4,0.2-0.9,0.3-1.4,0.3
			c-1.4,0-2.5-0.8-2.5-1.8C207.4,15.2,208.5,14.4,209.9,14.4z"/>
		<path class="st6" d="M228.9,19.4L228.9,19.4c0.5-1.2,2-2.1,3.8-2.1c0.2,0,0.4,0,0.6,0c0.7-2.2,3.4-3.9,6.7-3.9
			c1.5,0,2.8,0.3,3.9,0.9c1.3-1,3.1-1.6,5.1-1.6c2.6,0,4.9,1.1,6.1,2.6c1.9,0.2,3.3,1.3,3.3,2.7c0,0.2,0,0.4-0.1,0.6h0.1
			c1.4,0,2.5,0.8,2.5,1.8s-1.1,1.8-2.5,1.8c-0.3,0-0.6,0-0.9-0.1c-0.3,0.3-0.6,0.6-1,0.8c0.4,0.3,0.7,0.8,0.7,1.2
			c0,1-1.1,1.8-2.5,1.8c-0.3,0-0.6,0-0.9-0.1c-0.7,0.8-1.9,1.4-3.3,1.4c-0.4,0-0.7,0-1-0.1c-1.1,0.5-2.4,0.9-3.8,0.9
			c-1.5,0-2.9-0.4-4-0.9c-0.3,0.1-0.7,0.2-1.1,0.2c-1,0-1.9-0.4-2.3-1c-0.2,0.1-0.5,0.1-0.8,0.1c-0.8,0-1.4-0.2-1.9-0.6
			c-0.4,0.2-0.9,0.3-1.4,0.3c-1.4,0-2.5-0.8-2.5-1.8c0-0.3,0.1-0.6,0.4-0.9c-0.7,0-1.3-0.3-1.7-0.6c-0.4,0.2-0.9,0.3-1.4,0.3
			c-1.4,0-2.5-0.8-2.5-1.8C226.4,20.2,227.5,19.4,228.9,19.4z"/>
	</g>
	<g>
		<g transform="matrix(1 0 0 1 0 0)">
			<g>
				<g>
					<g>
						<path class="st7" d="M589.9,34c0,0-11.9,0.7-9.5,1.6c2.4,0.9,5.6,1.3,4.4,2.4s-0.7,2.7,4,2.8s8.8-1.1,7.9,0.1
							c-0.9,1.2-0.5,1.5,1.7,1.2s9.1-2.4,1.7-3.6c-7.4-1.2-2.8-2.8,0.9-2.8S610.3,34.4,589.9,34z"/>
						<g>
							<path class="st8" d="M592,16.2L592,16.2L592,16.2z"/>
							<path class="st8" d="M592,16.5c0,0,0-0.2,0-0.3c0,0,0,0,0-0.1C592,16.2,592,16.5,592,16.5z"/>
							<path class="st8" d="M592,16.5c0,0,0-0.1,0-0.2l0,0C592,16.4,592,16.5,592,16.5z"/>
							<g>
								<path class="st9" d="M595.2,37.2c-0.1-0.4,0.3-0.5,0.2-0.9s-0.4-0.4-0.4-0.9c-0.1-0.4,0.3-0.5,0.2-1
									c-0.1-0.4-0.4-0.4-0.4-0.9c-0.1-0.4,0.3-0.5,0.2-0.9s-0.4-0.4-0.4-0.8c-0.1-0.4,0.3-0.5,0.2-1c-0.1-0.4-0.4-0.4-0.4-0.9
									c-0.1-0.4,0.3-0.5,0.2-1c-0.1-0.4-0.4-0.4-0.4-0.9c-0.1-0.4,0.2-0.5,0.2-1c-0.1-0.4-0.4-0.4-0.4-0.8c-0.1-0.5,0.2-0.5,0.2-1
									c-0.1-0.4-0.4-0.4-0.4-0.9c-0.1-0.4,0.2-0.5,0.2-1c-0.1-0.4-0.4-0.4-0.4-0.8c-0.1-0.5,0.3-0.5,0.2-1
									c-0.1-0.4-0.4-0.4-0.4-0.8c-0.1-0.5,0.2-0.5,0.2-1c-0.1-0.4-0.4-0.4-0.4-0.9c-0.1-0.5,0.2-0.5,0.2-1
									c-0.1-0.4-0.4-0.4-0.4-0.9c-0.1-0.5,0.3-0.5,0.2-1l-0.1,0.2v-0.3v0.3v-0.3v0.3v-0.3c0,0,0,0.3-0.1,0.3s0-0.3,0-0.3l0,0v21.5
									h3.2C595.5,37.5,595.3,37.5,595.2,37.2z"/>
								<path class="st8" d="M592.4,16.5v-0.3V16.5c-0.1,0-0.1-0.4-0.1-0.4l-0.1,0.3v-0.3c0,0,0,0.3-0.1,0.3s0-0.3,0-0.3
									s0,0.3-0.1,0.3v-0.3v0.1l0,0c-0.1,0.4-0.4,0.4-0.4,0.8s0.3,0.4,0.2,0.9c0,0.4-0.4,0.4-0.4,0.8s0.3,0.5,0.2,0.9
									c0,0.4-0.4,0.4-0.4,0.9c0,0.4,0.3,0.5,0.2,0.9c0,0.4-0.4,0.4-0.4,0.9s0.3,0.6,0.2,1c0,0.4-0.4,0.4-0.4,0.9s0.3,0.5,0.2,0.9
									s-0.4,0.4-0.4,0.9c0,0.4,0.3,0.5,0.2,0.9s-0.4,0.4-0.4,0.9s0.3,0.5,0.2,1c0,0.5-0.4,0.4-0.4,0.9c0,0.4,0.3,0.5,0.2,0.9
									c0,0.5-0.4,0.4-0.4,0.9c0,0.4,0.3,0.5,0.2,0.9c0,0.5-0.4,0.4-0.4,0.9c0,0.4,0.3,0.5,0.2,0.9c0,0.5-0.4,0.4-0.4,0.9
									c0,0.4,0.3,0.5,0.2,0.9c0,0.5-0.4,0.4-0.4,0.9c0,0.4,0.2,0.5,0.2,0.8h2.8V16.2C592.5,16.4,592.4,16.5,592.4,16.5z"/>
							</g>
							<path class="st8" d="M592,16.2L592,16.2L592,16.2C592.1,16.2,592.1,16.2,592,16.2z"/>
						</g>
						<g>
							<g>
								<path class="st10" d="M592.9,15c-0.1,0.1-0.1,0.7-0.2,1c0.1-0.3,0.4-0.7,0.5-0.9C593.1,15.1,593.1,15.1,592.9,15
									C593,15,593,15,592.9,15z"/>
								<path class="st10" d="M592.7,16.3c0,0,0-0.1,0.1-0.2C592.7,16.2,592.7,16.2,592.7,16.3z"/>
								<path class="st10" d="M605,7.1c0.1,0,0.2,0,0.2,0C605.3,7.1,605.2,7.1,605,7.1z"/>
								<path class="st10" d="M604,7c0,0.2,0,0.3,0,0.3c0.1,0,0.8-0.1,1.1-0.2C604.7,7.1,604.2,7,604,7z"/>
								<path class="st10" d="M604,6.3c-0.2,0-0.6,1-0.8,0.9c-0.2,0-0.2-1-0.4-1s-0.4,1-0.6,1c-0.2,0-0.4-1-0.6-0.9
									c-0.2,0-0.2,1.1-0.4,1.1s-0.6-0.9-0.7-0.9c-0.2,0-0.1,1.1-0.3,1.1s-0.7-0.8-0.9-0.8c-0.2,0.1,0,1.1-0.1,1.1
									c-0.2,0.1-0.8-0.8-0.9-0.7c-0.2,0.1,0.2,1,0,1.1s-0.9-0.7-1-0.6c-0.2,0.1,0.3,1,0.1,1.1c-0.2,0.1-0.9-0.6-1.1-0.5
									c-0.1,0.1,0.4,1,0.3,1.1c-0.1,0.1-1-0.5-1.1-0.4s0.5,0.9,0.4,1.1c-0.1,0.2-1-0.4-1.1-0.2c-0.1,0.1,0.6,0.9,0.5,1
									s-1.1-0.3-1.2-0.2c-0.1,0.2,0.7,0.8,0.6,0.9c-0.1,0.1-1.1-0.2-1.2,0c-0.1,0.2,0.8,0.7,0.7,0.9s-1.2,0-1.3,0.1
									c-0.1,0.2,0.9,0.6,0.8,0.8c-0.1,0.2-1.2,0.1-1.2,0.3s1,0.4,1,0.6c0,0.2-1.2,0.4-1.2,0.5s0.5,0.2,0.8,0.2l0,0c0,0,0,0,0.1,0
									s0.2,0,0.2,0.1l0,0c0.3,0.2,0.7,0.4,0.7,0.4c0.1-0.1-0.6-0.9-0.5-1s1,0.4,1.1,0.3s-0.7-0.9-0.6-1c0.1-0.1,1,0.4,1.1,0.3
									s-0.7-0.9-0.6-1c0.1-0.1,1,0.4,1.1,0.3s-0.6-0.9-0.5-1s1,0.4,1.1,0.3c0.1-0.1-0.6-0.9-0.5-1s1,0.5,1.1,0.4s-0.5-0.9-0.4-1
									s0.9,0.5,1.1,0.4c0.1-0.1-0.5-0.9-0.4-1s0.9,0.6,1.1,0.5c0.1-0.1-0.4-1-0.3-1c0.1-0.1,0.9,0.6,1,0.6c0.1-0.1-0.4-1-0.2-1.1
									c0.1-0.1,0.9,0.7,1,0.6c0.1-0.1-0.3-1-0.2-1.1s0.8,0.7,1,0.6c0.1-0.1-0.3-1-0.1-1.1s0.8,0.7,0.9,0.7c0.1-0.1-0.2-1,0-1.1
									s0.8,0.8,0.9,0.7c0.2-0.1-0.2-1,0-1.1s0.8,0.8,0.9,0.7c0.2-0.1-0.2-1,0-1.1s0.9,0.8,1,0.7c0.2-0.1-0.4-1-0.2-1
									c0,0,0,0,0.1,0C604,6.7,604.1,6.3,604,6.3z"/>
							</g>
							<g>
								<g>
									<path class="st11" d="M586.1,10.1c0.1,0.1,1-0.7,1.1-0.6c0.1,0.1-0.5,1.1-0.4,1.2s1-0.6,1.1-0.5s-0.5,1-0.4,1.1
										s1-0.6,1.1-0.4c0.1,0.1-0.6,1-0.5,1.1s1.1-0.5,1.2-0.4c0.1,0.1-0.6,1-0.5,1.1s1.1-0.5,1.2-0.3c0.1,0.2-0.7,1-0.6,1.1
										c0.1,0.1,1.1-0.4,1.2-0.3c0.1,0.2-0.7,1-0.6,1.1c0.1,0.1,1.1-0.4,1.1-0.3c0.1,0.2-0.6,1.1-0.6,1.2c0.1,0.2,0.9-0.6,1.1-0.5
										c0.2,0.2,0.1,1.4,0.2,1.4c0.1,0-0.6-1.1-0.6-1.3s1.2-0.1,1.1-0.3c0-0.2-1.2-0.4-1.2-0.6c0-0.2,1.1-0.5,1-0.7
										c0-0.2-1.2-0.1-1.3-0.3s0.9-0.7,0.9-0.9c-0.1-0.2-1.2,0-1.3-0.1c-0.1-0.2,0.9-0.8,0.8-1c-0.1-0.2-1.2,0.2-1.3,0
										s0.8-0.9,0.6-1.1c-0.1-0.2-1.1,0.3-1.3,0.2c-0.1-0.1,0.7-1,0.5-1.1c-0.1-0.2-1.1,0.4-1.2,0.3c-0.1-0.1,0.6-1.1,0.4-1.2
										c-0.1-0.1-1,0.6-1.2,0.4c-0.1-0.1,0.4-1.1,0.3-1.2c-0.2-0.1-1,0.6-1.1,0.5c-0.2-0.1,0.3-1.1,0.2-1.3
										c-0.2-0.1-0.9,0.8-1.1,0.7c-0.2-0.1,0.2-1.2,0-1.3c-0.2-0.1-0.8,0.8-1,0.8c-0.2-0.1,0-1.2-0.1-1.3
										c-0.2-0.1-0.7,0.9-0.9,0.9c-0.2-0.1-0.1-1.2-0.3-1.3c-0.2,0-0.6,1-0.8,1s-0.2-1.2-0.4-1.2s-0.4,1.1-0.6,1.1
										c-0.2,0-0.4-1.2-0.6-1.2s-0.2,1.1-0.4,1.1s-0.7-1.1-0.8-1.1c-0.2,0,0.2,1.1,0,1.2s-1.4-0.4-1.4-0.3s1.2-0.2,1.4-0.1
										c0.1,0.1-0.4,1.1-0.2,1.2c0.1,0.1,0.9-0.9,1-0.8c0.2,0.1-0.2,1.1,0,1.2s0.8-0.9,1-0.8s-0.2,1.1,0,1.2s0.8-0.9,0.9-0.8
										c0.2,0.1-0.2,1.1-0.1,1.2c0.1,0.1,0.8-0.8,1-0.8c0.2,0.1-0.3,1.1-0.1,1.2c0.1,0.1,0.8-0.8,1-0.7c0.1,0.1-0.3,1.1-0.2,1.2
										c0.1,0.1,0.9-0.8,1-0.7s-0.4,1.1-0.2,1.2c0.1,0.1,0.9-0.7,1-0.6C586.5,9,586,10,586.1,10.1z"/>
								</g>
							</g>
							<g>
								<g>
									<path class="st11" d="M600.3,16.9c-0.2,0-0.1-1.2-0.3-1.2s-0.5,1.1-0.6,1c-0.2,0-0.2-1.1-0.3-1.2c-0.2,0-0.4,1.1-0.6,1.1
										c-0.2,0-0.2-1.1-0.4-1.1s-0.4,1.1-0.6,1.1c-0.2,0-0.3-1.1-0.5-1.1s-0.4,1.1-0.5,1.1c-0.2,0-0.3-1.1-0.5-1.1
										s-0.3,1.1-0.5,1.1s-0.4-1.1-0.5-1.1c-0.2,0-0.3,1.2-0.5,1.2s-0.3-1.1-0.5-1.1s-0.4,1.2-0.6,1.2c-0.2,0-0.1-1.1-0.3-1.1
										s-1.2,0.8-1.2,0.7s1.2-0.2,1.3-0.4c0.1-0.1-0.7-1-0.5-1.1c0.1-0.1,1.1,0.7,1.2,0.6c0.2-0.1-0.3-1.1-0.1-1.2
										c0.2-0.1,0.9,0.8,1.1,0.8c0.1-0.1-0.2-1.2,0-1.2c0.2-0.1,0.8,1,0.9,0.9c0.2,0,0-1.2,0.3-1.2c0.2,0,0.6,1,0.8,1
										s0.2-1.1,0.4-1.2c0.2,0,0.5,1.1,0.7,1.1s0.3-1.1,0.5-1.1s0.4,1.1,0.6,1.1c0.2,0,0.4-1.1,0.7-1.1c0.2,0,0.2,1.1,0.4,1.2
										c0.2,0,0.5-1.1,0.7-1c0.2,0,0.2,1.2,0.3,1.2c0.2,0,0.7-1,0.9-0.9s0,1.2,0.2,1.2c0.2,0.1,0.8-0.9,1-0.8
										c0.2,0.1-0.1,1.2,0,1.3c0.2,0.1,0.9-0.8,1.1-0.7c0.2,0.1-0.2,1.1-0.1,1.2c0.2,0.1,1-0.7,1.1-0.6c0.2,0.1-0.4,1.1-0.2,1.2
										s1.1-0.6,1.2-0.5c0.2,0.1-0.5,1-0.4,1.1s1.2-0.4,1.3-0.3c0.1,0.2-0.7,0.9-0.6,1c0.1,0.2,1.3-0.2,1.4,0
										c0.1,0.2-1,0.6-0.9,0.8c0.1,0.2,1.1,0.8,1.1,0.9c-0.1,0.1-0.6-1.1-0.9-1.1c-0.1,0-0.6,1-0.8,0.9c-0.1-0.1,0.1-1.2-0.1-1.3
										c-0.2-0.1-0.8,0.9-0.9,0.8c-0.1-0.1,0.2-1.2,0-1.3c-0.2-0.1-0.8,0.9-0.9,0.8c-0.1-0.1,0.2-1.2,0-1.3
										c-0.2-0.1-0.7,0.9-0.9,0.8c-0.1-0.1,0.1-1.2,0-1.2c-0.2-0.1-0.7,0.9-0.8,0.9c-0.2,0,0.1-1.2-0.1-1.2c-0.2,0-0.6,1-0.8,0.9
										c-0.2,0,0-1.2-0.2-1.2s-0.6,1-0.8,1s0-1.2-0.2-1.2C600.8,15.8,600.5,16.9,600.3,16.9z"/>
								</g>
							</g>
							<g>
								<path class="st12" d="M578.3,21c0,0,0.1,0,0.1-0.2C578.4,20.9,578.3,21,578.3,21z"/>
								<path class="st12" d="M579.1,20.1c0,0-0.1-0.1-0.2-0.2c-0.1,0.1-0.3,0.6-0.4,0.8C578.7,20.6,579.1,20.3,579.1,20.1z"/>
								<path class="st12" d="M591.2,16.4c0.1,0,0.2,0.1,0.2,0C591.5,16.4,591.4,16.4,591.2,16.4z"/>
								<path class="st12" d="M590.4,16C590.3,16,590.3,16,590.4,16c0,0.1,0,0.2,0,0.3c0.2,0.1,0.7,0.1,0.9,0.1
									C591,16.3,590.5,16,590.4,16z"/>
								<path class="st12" d="M590.3,16.1C590.3,16,590.3,16,590.3,16.1L590.3,16.1c0.2-0.3,0.4-0.7,0.3-0.8
									c-0.1-0.1-0.8,0.7-0.9,0.6c-0.1,0,0.1-1,0-1c-0.2,0-0.6,0.8-0.8,0.8c-0.1,0,0-1-0.2-1s-0.5,0.9-0.7,0.9s-0.2-1-0.4-1
									s-0.4,0.9-0.6,0.9c-0.2,0-0.3-0.9-0.4-0.9c-0.2,0-0.3,1-0.4,1c-0.2,0-0.4-0.9-0.6-0.9c-0.2,0-0.2,1-0.3,1
									c-0.2,0-0.5-0.8-0.7-0.8s-0.1,1-0.2,1c-0.1,0-0.6-0.8-0.7-0.8c-0.2,0.1,0,1-0.2,1.1s-0.7-0.7-0.8-0.7c-0.2,0.1,0.1,1,0,1
									c-0.1,0.1-0.8-0.7-0.9-0.6c-0.2,0.1,0.2,1,0.1,1c-0.1,0.1-0.8-0.6-0.9-0.5c-0.1,0.1,0.3,0.9,0.2,1s-0.9-0.5-1-0.4
									s0.4,0.9,0.3,1c-0.1,0.1-0.9-0.4-1.1-0.2c-0.1,0.1,0.6,0.8,0.5,0.9s-1-0.2-1.1-0.1s0.7,0.7,0.6,0.8c-0.1,0.1-1.1,0-1.1,0.1
									s0.4,0.2,0.6,0.4l0,0c0.1,0,0.6,0.8,0.7,0.7c0.1-0.1-0.2-1-0.1-1.1c0.1-0.1,0.7,0.6,0.8,0.6c0.1-0.1-0.3-1-0.2-1
									s0.7,0.6,0.8,0.6c0.1-0.1-0.3-1-0.1-1c0.1-0.1,0.7,0.7,0.8,0.6s-0.2-1-0.1-1c0.1-0.1,0.7,0.7,0.8,0.6s-0.2-1-0.1-1
									c0.1-0.1,0.6,0.7,0.8,0.7c0.1-0.1-0.2-1,0-1c0.1-0.1,0.6,0.8,0.7,0.7c0.1,0-0.1-1,0-1s0.6,0.8,0.7,0.8c0.1,0,0-1,0.1-1
									s0.5,0.8,0.7,0.8c0.1,0,0-1,0.2-1c0.1,0,0.5,0.8,0.6,0.8s0.1-1,0.2-1c0.1,0,0.5,0.9,0.6,0.8c0.1,0,0.1-1,0.2-1
									c0.2,0,0.4,0.9,0.6,0.9c0.1,0,0.2-1,0.3-1c0.2,0,0.4,0.9,0.5,0.9s0.2-1,0.3-1c0.2,0,0.4,0.9,0.5,0.9s0.2-1,0.3-1
									c0.2,0,0.5,0.9,0.6,0.9s0.1-0.4,0-0.7l0,0C590.2,16.2,590.3,16.2,590.3,16.1z"/>
							</g>
							<path class="st13" d="M591.7,16.6c0,0.6-0.3,1.1-0.8,1.1c-0.4,0-0.8-0.5-0.8-1.1s0.3-1.1,0.8-1.1
								C591.3,15.5,591.7,16,591.7,16.6z"/>
							<ellipse class="st13" cx="593.2" cy="16" rx="0.9" ry="1"/>
							<ellipse class="st13" cx="591.8" cy="15.7" rx="0.7" ry="1.1"/>
						</g>
						<g>
							<polygon class="st14" points="591.2,38.1 591.2,37.3 592.1,36.4 592.3,36 591.8,35.1 590.6,35 589.4,34.8 588.3,35.1 
								587.3,35.7 586.2,35.9 586.1,37 586.3,38 587.3,38.5 587.6,38.6 589.6,38.4 							"/>
							<polygon class="st15" points="592.4,36.2 592.3,36 592.1,36.4 591.2,37.3 591.2,38.1 589.6,38.4 587.6,38.6 588.3,38.9 
								589.4,38.9 590.6,38.6 591.8,38.8 592.5,37.8 592.9,37 							"/>
						</g>
						<g>
							<polygon class="st14" points="596.1,37.9 595.7,37.5 595.4,36.6 594.7,36.3 593.9,36.4 593.1,36.5 592.5,37 591.6,37.1 
								591.8,37.9 591.6,38.7 592.6,38.7 593.2,39.3 593.9,39.1 594.7,39.2 595.5,39.1 596,38.4 							"/>
						</g>
					</g>
				</g>
			</g>
		</g>
	</g>
</g>
<g id="Shapes">
	
		<polygon id="EverestBase" onmouseover="document.getElementById(&quot;EverestLink&quot;).style.display=&quot;block&quot;;" onmouseout="document.getElementById(&quot;EverestLink&quot;).style.display=&quot;none&quot;;" class="st16" points="
		629,980.9 351,980.9 464.3,397.1 629,397.1 	"/>
	
		<rect id="Borehole" x="565.5" y="37.5" onmouseover="document.getElementById(&quot;BoreholeLink&quot;).style.display=&quot;block&quot;;" onmouseout="document.getElementById(&quot;BoreholeLink&quot;).style.display=&quot;none&quot;;" class="st17" width="12" height="936"/>
	<line class="st18" x1="0.7" y1="131" x2="629" y2="131"/>
	<line class="st18" x1="0.7" y1="60" x2="624.9" y2="60"/>
	<line class="st18" x1="-3" y1="43" x2="625.9" y2="43"/>
	<line class="st19" x1="-0.5" y1="412" x2="628.5" y2="412"/>
	<g>
		<g>
			<line class="st20" x1="-1.4" y1="959" x2="-0.9" y2="959"/>
			<line class="st21" x1="2.1" y1="959" x2="625.5" y2="959"/>
			<line class="st20" x1="627" y1="959" x2="627.5" y2="959"/>
		</g>
	</g>
	
		<g id="DCSub" onmouseover="document.getElementById(&quot;DCSubLink&quot;).style.display=&quot;block&quot;;" onmouseout="document.getElementById(&quot;DCSubLink&quot;).style.display=&quot;none&quot;;">
		<rect x="91.6" y="889.9" class="st22" width="5.1" height="5.1"/>
		<path class="st22" d="M103.8,965.1h-13l-5.1-13.9v-5.3l0.2-39.8c-0.3-2.9,0-5.6,0.9-8L88,895h15l0.7,4.5L103.8,965.1L103.8,965.1z
			"/>
		<polygon class="st22" points="119.7,901.3 103.8,901.3 103.8,896.9 109,896.9 119.7,898.6 		"/>
		<rect x="119.7" y="896.3" class="st22" width="0.7" height="4.7"/>
		<circle class="st22" cx="94.1" cy="901.7" r="1.5"/>
		<line class="st23" x1="85.8" y1="906.1" x2="103.8" y2="906.1"/>
		<line class="st23" x1="85.7" y1="945.9" x2="103.7" y2="945.9"/>
		<rect x="85.8" y="907.5" class="st22" width="14.6" height="23.1"/>
		<line class="st23" x1="100.4" y1="919.3" x2="85.8" y2="919.3"/>
		<path class="st22" d="M108.3,960.6c-1.4,1.3-2.7,1.3-4.1,0v-15.8h4.1V960.6z"/>
		<rect x="104.2" y="943.7" class="st22" width="5.1" height="0.6"/>
		<path class="st22" d="M93.1,942.8c0,2.5-6.2,2.5-6.2,0V933h6.2V942.8z"/>
		<path class="st22" d="M101.3,942.8c0,2.5-6.2,2.5-6.2,0V933h6.2V942.8z"/>
		<rect x="92.6" y="908.6" class="st22" width="6.4" height="10"/>
		<rect x="92.6" y="920" class="st22" width="6.4" height="10"/>
		<circle class="st24" cx="93.7" cy="954" r="6.2"/>
		<rect x="89" y="893.5" class="st22" width="1.8" height="1.8"/>
		<rect x="98.1" y="893.5" class="st22" width="1.8" height="1.8"/>
		<line class="st23" x1="95.6" y1="879" x2="95.6" y2="889.5"/>
		<line class="st23" x1="93.1" y1="885.9" x2="93.1" y2="890"/>
		<rect x="90.7" y="954" class="st22" width="6.4" height="10.8"/>
		<rect x="91.2" y="956.6" class="st22" width="5.6" height="5.6"/>
		<rect x="85.6" y="964.2" class="st22" width="5.1" height="1.2"/>
		
			<rect x="86.5" y="953.54" transform="matrix(0.9461 -0.324 0.324 0.9461 -305.0629 79.7897)" class="st25" width="1.2" height="5.1"/>
	</g>
	
		<g id="Everest" onmouseover="document.getElementById(&quot;EverestLink&quot;).style.display=&quot;block&quot;;" onmouseout="document.getElementById(&quot;EverestLink&quot;).style.display=&quot;none&quot;;">
		<path class="st16" d="M629,228.5l-5.9-7.6l-8-8.9l-8,2.5l-4.5,8.9l-10.2,10.1v8.9l-12.5,11.4l-2.3,7.6l-6.8,3.8l-2.3,15.2l-8,17.7
			l-16.7,2.5l-19.7,26.6l-14.8,13.9l-3.4,8.9l-10.2,8.9L476.4,383l-19.3,33H564l65-0.4C628.9,408.1,625.5,239.1,629,228.5z"/>
		<path class="st6" d="M622.3,268.2c0,0-5.5-50.1-6.5-50.5c-0.5-0.2-1.4,0.4-2.3,1.1c-2,1.4-2.2,0.5-4-0.5c-1.5-0.8-2.7,1.2-3.6,2.3
			c-3.7,4.9-9.1,19.6-12.2,26c-1.3,2.8-9.4,4.4-10.7,9c-3.2,12-9.7,25.2-9.7,25.2s-3,5.7-6.2,18c-0.4,0.7-0.8,1.4-1.1,2
			c-0.5-0.1-1.4,0.1-2.3,0.4c-2.3,0.8-2.2-0.2-3.7-1.7c-1.2-1.2-2.9,0.3-4,1.2c-4.8,3.6-14.1,16.1-18.8,21.3
			c-2.1,2.3-10.3,1.5-12.7,5.5c-6.4,10.5-16.2,21.4-16.2,21.4s-4.7,4.9-11.4,16.3c0,0,8.7-6.9,11.2-6.3c1.5,0.3-2.3,9-2.3,9
			l12.7-10.1l-9.3,11.1c0,0,8.3-3.5,14.1-7.5c2.1-1.4,5.6-5.7,8.1-8.3c-1.3,2.8-2.8,6.5-4.5,11.2c-0.3,0.4-0.5,0.7-0.5,0.7l2.5-0.7
			l-4.7,8.4l9.8-10.3l-7,12c0,0,8.2-10.6,9.7-11.9c0,0,0.1,0,0.1-0.1c-0.3,1.7-0.6,3.1-0.6,3.1l3.8-4.4c-0.7,3-11.4,16.8-11.4,16.8
			s16.7-10.2,21.4-10.2c6.2,0,9,14.1,9,14.1l-0.2-15.4c1.6-3.1,5.7-11,6.7-12.2c8.9-10.9-5.2,16.7-5.2,16.7s14.5-13.3,19.2-14.2
			c6.1-1.3,11.5,12.1,11.5,12.1l-4.9-24.2c4-3.6,13.7-11.8,17.3-12.6c6.1-1.3,11.5,12.1,11.5,12.1l-6.1-30c0,0-0.2-9-0.4-19.4
			c3.7-3.7,7.9-7.4,10.1-8.1C624.5,284.7,622.3,268.2,622.3,268.2z M558.8,351.2c0,0,0.5-2.7,1.1-6.8c0.7-1,1.2-1.5,1.3-0.8
			c0.3,2-1.1,5.9-2.5,9.2L558.8,351.2z M584.7,318.7c0.3-0.2,0.5-0.2,0.5,0.2c0.1,0.9-0.1,2.2-0.4,3.6
			C584.7,321.2,584.7,320,584.7,318.7z M586.9,329.8l-1.9,5.5c0-0.7,0-1.5,0-2.4L586.9,329.8z M559,365.9V361l4.1-6.5L559,365.9z
			 M585.9,343.1l-0.9-4.4c0,0,0-0.4,0-1.1c1.8-3.4,3.9-7.3,4.5-8.1C596.6,320.9,589.3,336.2,585.9,343.1z"/>
		<g>
			<path class="st26" d="M628.9,229.9c-3-3.2-6.4-5.8-7.8-8.1c-0.8-1.4-2.8-4.5-3.9-4c-2.8,1.3-4.3,13.5-6.7,16.1
				c0,0,1.4,2.9,0.6,9.1c0,0,2.8-5.3,2.8-1.2c0,8.2,3.7,7.7,4.3,11.5c1.3,7.2,3,13.2,4.6,17.8c-1.5,4.2-2.7,10.5-4.3,12.2
				c0,0,0.7,1.4,0.8,4.4c-1.1-1.3-2.1-2.5-2.8-3.5c-0.8-1.4-2.8-4.5-3.9-4c-2.8,1.3-4.3,13.5-6.7,16.1c0,0,1.4,2.9,0.6,9.1
				c0,0,2.8-5.3,2.8-1.2c0,8.2,3.7,7.7,4.3,11.5c2.8,15.1,7.2,25.5,9.3,27c4.1,2.9,6.1,7.8,6.1,7.8l-0.5-7.6
				C629.5,342.6,629.4,239.6,628.9,229.9z M621.1,289.6c0.3-0.1,0.5,0,0.6,0.7C621.5,290,621.3,289.8,621.1,289.6z"/>
		</g>
	</g>
	
		<g id="Snailfish" onmouseover="document.getElementById(&quot;SnailfishLink&quot;).style.display=&quot;block&quot;;" onmouseout="document.getElementById(&quot;SnailfishLink&quot;).style.display=&quot;none&quot;;">
		<path class="st27" d="M85.3,780l1.9-0.8l0.9-2l3.4-2.1l2.8-3.2l2.3-2.2l3.6-1.4l3.6-0.5l3.7,1.2l3,1.5l2.4,2.5l0.6,2.6l1.2,4.2
			l-0.4,3.5l-1.8,3.8l-3.6,3.4l-3.1,4.3l-2.6,2.4l0.9,3.2l-8.5-0.5l-9.4,6.4l-5.3,0.4l-5.5,3.6l-7.8,5.1l-7.8,3.4l-4.7,3.4
			c0,0-3.6,3.4-3.9,7.4c-0.3,4,0.8,8.2,0.8,8.2l3.9,6.5l-0.4,3.3l-2.1,5.9l-0.3,1l-2.2,7.1l0.5-5.8l0.3-4.4l-4.3-6.2
			c0,0-4.4-7.4-4-7.8s0.6-8.2,0.6-8.2l3.4-6.1l1.6-1.8l0.6-2.6l3.4-4.5l6.7-4.3l8.5-1.5l3.3-2.7l3.4-4.5l1.3-4.4l-0.1-2.9l3.1-2.9
			l3.3-4.2l0.6-3.5L85.3,780z"/>
		<path class="st27" d="M52.9,823.2c0,0-4.9,6.1-4.2,8.5s1.8,6.8,1.8,6.8l2.3,5.5l0.2,6.2l-0.4,6.5"/>
		<polyline class="st27" points="52,819.7 59.6,815.3 65,811.8 69.5,808.1 		"/>
		<path class="st27" d="M75.7,795.9h-1.5l-0.9,0.8l-1.2-1.3L71,795l-0.6,0.5l2.1-4.6c0,0-2.4-1.7-5.7,0.3c0,0-0.3-3.2-2.8-2.4
			c0,0,1.4-2.7-0.4-3.1c-1.8-0.4-0.3-0.1-0.3-0.1s1.5-2.1,1.1-3.1c-0.1-0.1-0.1-0.3-0.3-0.3c-1-0.7-0.2-1.1-0.2-1.1l-0.9-1.4
			l0.1-0.7c0,0,1.1-1-0.4-2.1l1.1-1l0.2-1.8l-1-1l1.8,0.5l0.2-0.7l-0.4-1.3l0.8-0.8l1.3-0.3l0.2-1.1l1.3,0.3l1.6-0.5l3.6,1.2
			l7.4,5.8l0.3,0.5l2.2,4l-0.2,5.1l-2.6,4L75.7,795.9z"/>
		<polygon class="st27" points="84.8,781 81.1,776.8 83.5,781 83.2,783.7 		"/>
		<polygon class="st27" points="85.7,807.2 85.4,808.6 86.4,808.2 86.1,809.8 87.2,810.9 88.2,812 89.6,812.3 90.3,813.1 
			91.4,814.7 92.8,816.4 92.6,817.9 94.4,817.4 95.4,818.5 96.7,819.2 98.4,819.1 99.3,820.1 101.2,820.2 102.4,821.5 103.8,820.1 
			104.8,820.6 107.3,819.4 107.8,818.9 109.3,818.4 110.8,818 112,818.8 113.4,818.6 114,817 114,813.2 113.2,810 110.4,806.4 
			107,802 104.5,800.5 100.5,800.1 95.9,799.9 87.4,805.8 		"/>
		
			<ellipse transform="matrix(0.7266 -0.6871 0.6871 0.7266 -505.4698 280.0393)" class="st28" cx="99.12" cy="775.12" rx="1.3" ry="0.9"/>
		
			<ellipse transform="matrix(0.7266 -0.6871 0.6871 0.7266 -509.389 288.6008)" class="st28" cx="107.92" cy="784.33" rx="1.2" ry="0.6"/>
		<path class="st27" d="M49.3,821.2l12.6-3.6l7-2.9c0,0,13.7-11.2,14.6-12.9"/>
		<line class="st29" x1="68.5" y1="770.4" x2="79.7" y2="778.1"/>
		<line class="st29" x1="70.2" y1="769.9" x2="79.5" y2="776.8"/>
		<line class="st29" x1="66.2" y1="771.2" x2="78.9" y2="778.4"/>
		<line class="st29" x1="65.5" y1="773.6" x2="79.4" y2="779.8"/>
		<line class="st29" x1="64" y1="776.6" x2="78.8" y2="780.5"/>
		<line class="st29" x1="63.3" y1="779" x2="79.2" y2="781.2"/>
		<line class="st29" x1="64.3" y1="782.2" x2="79.2" y2="781.6"/>
		<line class="st29" x1="63.7" y1="785.1" x2="79.8" y2="782.4"/>
		<line class="st29" x1="64.5" y1="788" x2="79.9" y2="783.6"/>
		<line class="st29" x1="66.5" y1="790" x2="80.2" y2="784.4"/>
		<line class="st29" x1="71.3" y1="790.5" x2="80.7" y2="785.3"/>
		<line class="st29" x1="72.6" y1="793.8" x2="80.5" y2="786.7"/>
		<line class="st29" x1="73.2" y1="795.5" x2="79.7" y2="788.3"/>
		<line class="st29" x1="104.7" y1="801.8" x2="113.5" y2="814.1"/>
		<line class="st29" x1="103.3" y1="802.5" x2="112.9" y2="816.5"/>
		<line class="st29" x1="110.4" y1="817.7" x2="102.2" y2="801.7"/>
		<line class="st29" x1="107.7" y1="819" x2="101.5" y2="802.5"/>
		<line class="st29" x1="105.1" y1="820.4" x2="101.3" y2="803"/>
		<line class="st29" x1="101.8" y1="820.8" x2="100.7" y2="803.1"/>
		<line class="st29" x1="99.2" y1="819.1" x2="99.8" y2="803.3"/>
		<line class="st29" x1="96.1" y1="818.8" x2="99.1" y2="803.5"/>
		<line class="st29" x1="93.1" y1="817.3" x2="98.5" y2="802.7"/>
		<line class="st29" x1="91.5" y1="814" x2="97.9" y2="802.9"/>
		<line class="st29" x1="89.6" y1="812.2" x2="97.3" y2="802.2"/>
		<line class="st29" x1="87.3" y1="810.8" x2="96.6" y2="802.2"/>
		<line class="st29" x1="86.3" y1="809.1" x2="93.7" y2="803.1"/>
		<line class="st29" x1="51.3" y1="849.8" x2="51.9" y2="843.7"/>
		<line class="st29" x1="49.8" y1="847.5" x2="51.2" y2="841.7"/>
		<line class="st29" x1="48.4" y1="845.2" x2="49.8" y2="838.2"/>
		<line class="st29" x1="46.9" y1="841.8" x2="48.1" y2="836.2"/>
		<line class="st29" x1="45" y1="839.2" x2="48.5" y2="832"/>
		<line class="st29" x1="44.5" y1="837.7" x2="47.9" y2="831.8"/>
		<line class="st29" x1="44.5" y1="836.3" x2="48.3" y2="829.8"/>
		<line class="st29" x1="44.5" y1="834.8" x2="47.8" y2="829.2"/>
		<line class="st29" x1="44.1" y1="832.9" x2="49.6" y2="826.4"/>
		<line class="st29" x1="45.3" y1="829.7" x2="50.7" y2="824.6"/>
		<line class="st29" x1="45.9" y1="828.1" x2="51.1" y2="823.2"/>
		<line class="st29" x1="47.7" y1="824" x2="53" y2="821.3"/>
		<line class="st29" x1="50.4" y1="818.1" x2="54.2" y2="818.4"/>
		<line class="st29" x1="51.4" y1="816.7" x2="55.7" y2="817.2"/>
		<line class="st29" x1="52.2" y1="815.6" x2="56.8" y2="816.2"/>
		<line class="st29" x1="53.8" y1="814.5" x2="58.8" y2="815.7"/>
		<line class="st29" x1="54.3" y1="814" x2="60.5" y2="814.3"/>
		<line class="st29" x1="57.4" y1="812.5" x2="62.4" y2="812.9"/>
		<line class="st29" x1="60.7" y1="810.6" x2="64.4" y2="811.1"/>
		<line class="st29" x1="53.7" y1="847.3" x2="54.1" y2="849.5"/>
		<line class="st29" x1="53.3" y1="843.6" x2="55.5" y2="846.9"/>
		<line class="st29" x1="75.7" y1="802.4" x2="85.2" y2="788.1"/>
		<line class="st29" x1="81.1" y1="805.8" x2="92" y2="800"/>
		<polygon class="st27" points="95.9,799.9 101.8,795 104.1,796.2 103.4,797.3 104.5,800.5 		"/>
	</g>
	
		<g id="CEel" onmouseover="document.getElementById(&quot;CEelLink&quot;).style.display=&quot;block&quot;;" onmouseout="document.getElementById(&quot;CEelLink&quot;).style.display=&quot;none&quot;;">
		<g>
			<path class="st30" d="M140.5,502.6l14.8,1.1l9.7,4.8v3.7l-0.8,2.6l-13.3,10.6l-15,6.1l-28.7,6.5c0,0-50.9,5.5-60.6,4.9
				c-13.5-0.8-34.9-1-18.7-5.5l37.7-5.9l32.5-14.1l28.5-11.1L140.5,502.6z"/>
			<path class="st31" d="M133.5,503.6c-0.6,0-15,2.9-15.8,3s-25.6,9.7-25.6,9.7l-17.8,4.9l-15,7.2L35,532.2L23,539l-4.2-0.8l1,1.7
				l0.2,4.8l3.6-1.6l3,4l30.2,1.1l30.8-1.3l18.6-8l0.2-1.7c0,0-29.9,3.7-30.7,3.7s-35.9,1.4-35.9,1.4l-14.2-0.4l2.9-3l27-4.2
				l24.4-8.9l37.3-15.9l23.7-6.5L133.5,503.6L133.5,503.6z"/>
			<path class="st32" d="M137.3,516.3l-3.8,1.1l-5.8-0.6l-2.2,1.7l-0.9,2.8l1.1,3.4l1.7,4l2.7,0.8l4-1.5l5.9-3.2
				C139.9,524.8,139.4,516.1,137.3,516.3z"/>
			<polyline class="st32" points="140.6,503.6 141.8,506.8 141.2,510.7 139,513.1 139,517.4 140.4,519.6 143.4,522 149.2,524.1 
				153,522.9 			"/>
			<polyline class="st32" points="141.3,522 142,524.1 146.4,525.6 150.5,525.6 151.7,524.8 			"/>
			<path class="st33" d="M164.2,512.5c0,0-5.5,1.7-8.4,4.4"/>
			<circle class="st34" cx="157.8" cy="509.3" r="1.3"/>
			<path class="st32" d="M146.5,513.3c0,0-3.4,6.3,1.3,8"/>
		</g>
		<line class="st32" x1="125.1" y1="520.9" x2="139.7" y2="519.1"/>
		<line class="st32" x1="125.1" y1="524.6" x2="139.7" y2="520.9"/>
		<line class="st32" x1="126.9" y1="528.2" x2="139.7" y2="522.8"/>
		<line class="st32" x1="39" y1="531.9" x2="35.3" y2="537.4"/>
		<line class="st32" x1="46.3" y1="530.1" x2="40.8" y2="537.4"/>
		<line class="st32" x1="61" y1="528.2" x2="57.3" y2="533.7"/>
		<line class="st32" x1="75.6" y1="520.9" x2="68.3" y2="530.1"/>
		<line class="st32" x1="84.8" y1="519.1" x2="79.3" y2="526.4"/>
		<line class="st32" x1="95.8" y1="515.4" x2="92.1" y2="520.9"/>
		<line class="st32" x1="24.4" y1="541.1" x2="29.8" y2="535.6"/>
		<line class="st32" x1="29.8" y1="541.1" x2="28" y2="546.5"/>
		<line class="st32" x1="39" y1="542.9" x2="35.3" y2="546.5"/>
		<line class="st32" x1="51.8" y1="530.1" x2="50" y2="535.6"/>
		<line class="st32" x1="90.3" y1="517.3" x2="86.6" y2="522.8"/>
		<line class="st32" x1="103.1" y1="511.8" x2="97.4" y2="518"/>
		<line class="st32" x1="46.3" y1="542.9" x2="40.8" y2="548.4"/>
		<line class="st32" x1="53.6" y1="542.9" x2="48.2" y2="548.4"/>
		<line class="st32" x1="67.3" y1="525.6" x2="63.6" y2="531.1"/>
		<line class="st32" x1="61.9" y1="541.9" x2="56.4" y2="547.4"/>
		<line class="st32" x1="71.1" y1="541.9" x2="65.6" y2="547.4"/>
		<line class="st32" x1="80.2" y1="541.9" x2="74.8" y2="547.4"/>
		<line class="st32" x1="89.4" y1="540.1" x2="83.9" y2="545.6"/>
		<line class="st32" x1="98.3" y1="538.5" x2="92.8" y2="544"/>
		<path class="st32" d="M29.8,541.1c0,0,47.8-5.5,53.2-7.3s36.7-15.4,40.3-16.9"/>
	</g>
	
		<g id="Anglerfish" onmouseover="document.getElementById(&quot;AnglerfishLink&quot;).style.display=&quot;block&quot;;" onmouseout="document.getElementById(&quot;AnglerfishLink&quot;).style.display=&quot;none&quot;;">
		<ellipse class="st35" cx="137.4" cy="305.9" rx="5.9" ry="4.9"/>
		<g>
			<path class="st36" d="M109.4,347.9l-1.6,2.2v7.5v9.7l-0.8,4.2l0.8,5.6l4.1,2.7h5.6c0,0,7.1,3.1,8.9,3.1c1.8,0,9-3.1,9-3.1l12-5.5
				l3,0.6l9.7-2.4l12.6-8.7l9.9-4l8.5-4.5l4.3-1.5l11-0.7l-6.8-2.6l11.6,0.1l-10.3-2.2l10.3-2.6l-10.8,0.8l10.8-3.2l-15.5,2.6
				c0,0,16.2-6.4,15.4-6.4s-8,1.6-8,1.6l6.6-3.6l-8.9,3.2l-4.1,2l6.5-5.2l1.1-1.5l-7.6,4.2l5.7-4.2l-6,2.9l2.9-2.9l-5.7,4.2
				l-3.3,2.5l-2.4,0.1l-1.9-0.1l2.9-1.5l-5.2-0.4l-4.6-1.5l-2.5,1.2l1.9-1.9l-7.1-2.5l-5.7,1.4l-16.8-6.9c0,0-12-0.2-23.9,4.4
				l-3.2,3.6l-1.2,1.2l-0.3-1.2l-1.8-0.6l-2.9,3.9l-0.6,4.3l-1.4,2h-4.2L109.4,347.9L109.4,347.9z"/>
			<ellipse class="st37" cx="125" cy="342.2" rx="1.5" ry="1.2"/>
			<polygon class="st37" points="121.3,337.8 122.5,334.8 124.7,329.2 128.1,320.5 130.6,315.6 130.6,311.5 131.9,305.6 
				134.7,305.6 137.1,306 138,307.3 138,310.4 134.3,313.1 132.4,315.6 129,323.2 127,330.2 126.2,332 125,336.3 122.9,339.4 			"/>
			<path class="st38" d="M132.9,305.1c0,0,0.6-2.2,2.5-2.2s2.8,1.1,2.8,1.1v2.9L132.9,305.1z"/>
			<path class="st37" d="M108.3,359.5l4.4,4.5l0.5-3.3l-3.9-10.6l4-1.7l-2.1-0.5c0,0-1.8-0.7-2.6,0.5
				C108,349.6,108.3,359.5,108.3,359.5z"/>
			<polyline class="st37" points="112.2,364.4 110.8,369.8 112.8,372.4 118.2,371.8 125,365.3 127.8,355.5 127,350.7 122.9,345.7 
							"/>
			<polygon class="st37" points="119.3,339.3 117.6,340.6 117.6,347 115.1,358 113.4,368.5 112.8,370.3 112.8,365.3 113.5,359.5 
				116,340.9 118.4,337.7 120.4,339 			"/>
			<path class="st37" d="M143.8,345.9l13-1.8l2.2,1.7l1.6,1.8l2.6,0.6l0.9,3.4c0,0-1.2,0.6-1.5,1s-8.6,0.2-8.6,0.2l-6.6-0.2
				L143.8,345.9z"/>
			<path class="st37" d="M111.2,349.1c0,0-2.4,0.5-1.8,1.3c0.6,0.9,4,9.8,4,9.8l1.7-13.5h-0.8C114.3,346.7,114,349.1,111.2,349.1z"
				/>
			<polygon class="st37" points="108.3,360.6 109.3,371.6 112.2,377.5 117.1,373.2 119.3,370.8 112.8,372.4 110.8,369.8 112.2,364 
							"/>
			<line class="st39" x1="109.7" y1="351.3" x2="112.8" y2="350.1"/>
			<line class="st39" x1="110.3" y1="352.8" x2="113.4" y2="351.6"/>
			<line class="st39" x1="111.3" y1="354.7" x2="113.7" y2="353.5"/>
			<line class="st39" x1="111.9" y1="356.2" x2="113.7" y2="355"/>
			<line class="st39" x1="109.7" y1="350.4" x2="111.9" y2="349.8"/>
			<line class="st39" x1="110.3" y1="352.2" x2="112.8" y2="350.7"/>
			<line class="st39" x1="154.8" y1="346.4" x2="159.1" y2="345.7"/>
			<line class="st39" x1="156.3" y1="348.2" x2="160" y2="347.6"/>
			<line class="st39" x1="158.5" y1="349.1" x2="163.1" y2="348.2"/>
			<line class="st39" x1="159.7" y1="350.7" x2="163.7" y2="350.1"/>
			<line class="st39" x1="160.4" y1="351.3" x2="164.1" y2="350.7"/>
			<ellipse class="st37" cx="125" cy="342.2" rx="0.8" ry="0.5"/>
			<line class="st39" x1="152.3" y1="355.6" x2="154.8" y2="368.3"/>
			<line class="st39" x1="175.5" y1="350.7" x2="177.9" y2="360.2"/>
			<line class="st39" x1="172.7" y1="338.6" x2="170.2" y2="344.8"/>
			<line class="st39" x1="163.4" y1="337.7" x2="163.1" y2="344.5"/>
			<line class="st39" x1="137.2" y1="337.7" x2="142.1" y2="343.3"/>
			<line class="st39" x1="115.9" y1="345.4" x2="113.4" y2="348.5"/>
			<line class="st39" x1="113.4" y1="349.8" x2="115" y2="349.1"/>
			<line class="st39" x1="127" y1="337.7" x2="124.2" y2="340.5"/>
		</g>
	</g>
	
		<g id="Jellyfish" onmouseover="document.getElementById(&quot;JellyfishLink&quot;).style.display=&quot;block&quot;;" onmouseout="document.getElementById(&quot;JellyfishLink&quot;).style.display=&quot;none&quot;;">
		<path class="st40" d="M121.8,140.6l-4.5-0.8l-4.4-3.1l-2.1,1.4l-1-4.1l-0.5-3.2l5.5-0.5l2.1,0.6l3.1,1.2l5.6-0.3l2.2,3l7.9,0.8
			l4,3.1l6.5,2.2l7,3.6l8.2,5.8l4.5,1.1v3.5l-7.2-0.7l-5.1-0.8l-3.5,0.3l-4-1.6l-7.6-3.1c0,0-4.4-2.6-5.1-2.9
			c-0.7-0.3-5.3-1.3-5.3-1.3L121.8,140.6z"/>
		<path class="st41" d="M111.3,130.7l4-0.5l4.7,1.4c0,0,3.4-0.7,5.6,0.1c1.4,0.6,1.8,2.9,2.1,2.9c0.9-0.1,8.1,1,8.1,1l3.4,2.9
			l6.6,1.8l9.5,5.1l6,4.8l4.4,1.8l-0.1-4l-1.6-10.2l-2.9-5.5l-7.4-7.2l-10-5l-11.3-2.5l-10.4,3l-7.5,3.5l-5.6,6.5L111.3,130.7z"/>
		<path class="st42" d="M123.5,135l-1.7,3l2.1,2.1l1.2,3.6l0.2,1.1l-0.3,4.6l-0.2,4.6l0.8,3.3l-1.1,5.9l-1,5.7l-2.9,2.4l-1.2,7.7
			l-1.3,6.4l-4.9,8.6l-1.7,7.8L109,208l6.5-4.6c0,0,2.5-6.3,3.4-8.4s2-5.4,2.2-7.7c0.2-2.2,1.6-12,1.6-12s7.3-10.3,7-11.7
			s-1.3-5.6-0.8-8.1s0.8-7.9,0.6-10.4c-0.1-2.4-1.2-10.1-1.2-10.1l-4.2-3.6L123.5,135z"/>
		<path class="st42" d="M132.5,147.8l0.1,8.1l-2.2,8.8c0,0-1.5,7-1.2,7.1s0.2,4.5,0.2,4.5s3.9-2.2,3.6-3.4c-0.4-1.2-1.6-2.3-1.2-3.2
			s-0.2-1.6,1.2-3.1s2.5,0,3.1-5.1c0.5-5-0.1-13.3,0.1-13.8c0.2-0.6,1-1.7,2-2.4c1.1-0.6,2.8-2.4,2.8-2.4L132.5,147.8z"/>
		<path class="st42" d="M151.8,145l-7.8,5l0.4,4.9l-1.3,7l-2.1,9.3l-4.2,10.4l-2.6,3.9l-1.5,6.4l-2.2,7.1c0,0,0.1,5.5-0.6,5.8
			s-3.8,2.1-3.8,2.1s-1.8-3.3-0.6-5.9c1.3-2.6,2.1-4.2,2.4-8.1c0.3-3.9-0.5-5.4,0.3-7.7c0.7-2.2,1.1-4.6,3.3-8.3
			c2.2-3.8,3.1-6.3,3.8-7.9s0.8-2.4,2-8.1c1.2-5.6,1.8-7.7,2-8.1s2-5.1,2.2-5.6s0.4-7.7,0.4-7.7l5.9,2.1L151.8,145z"/>
		<path class="st42" d="M148.6,148.5l-0.1,8.2L146,163c0,0-1.5,9-2.3,10.4s-2.9,4.4-2.9,4.4s-2.4,3.6-3,4s-1.6,1.8-1-0.2
			s0.5-3.9,2-6.7s2.7-5.6,2.8-9.1s-1.6-5.3-0.4-6.9s1.9-5.9,2.9-7.3s5-6.3,5-6.3L148.6,148.5z"/>
		<path class="st43" d="M111.1,130.9c0,0,0.8,14.9-0.2,20.2"/>
		<path class="st43" d="M115.1,130.8c0,0,1.2,32.4-1,39.4"/>
		<path class="st42" d="M113,130c0,0,3.8,21.2-0.6,29.7"/>
		<path class="st44" d="M128.9,133.2c0,0,0.2,11.4-6.6,22.5c-6.8,11.1-6.9,15.1-6.9,15.1"/>
		<path class="st45" d="M135.6,135.9c0,0-11.3,32.3-16.1,43.2c-4.8,10.9-8.7,15.4-8.7,15.4"/>
		<polyline class="st43" points="147.6,140.8 137.4,153 126.8,175.3 121,199.6 121.1,208.9 		"/>
		<polyline class="st43" points="152.9,145.3 145.1,157.8 135.2,189.3 130.4,206.7 		"/>
		<path class="st44" d="M157.5,147.8l-8.2,15.9c0,0-7.1,25.6-8.9,26.9"/>
		<path class="st42" d="M159.5,153c0,0-8.5,2.8-8.4,13"/>
		<path class="st46" d="M156.6,148.3c0,0-8.7,20.7-6,30.6c2.8,9.9,5,25.4,5,25.4"/>
		<path class="st46" d="M160.1,154.2c0,0-8.1,10.2-8.5,12.8s-4.2,4.7-2.7,15.2"/>
		<path class="st47" d="M161.7,154.4c0,0-13.9,18-12.5,34.4"/>
		<path class="st48" d="M143.3,127.5c0,0-1.7,8.5-5.3,6.6s-2.1-7.2-2.1-7.2"/>
		<path class="st48" d="M146.8,130c0,0-0.7,7.2,2.1,8.3c2.8,1.2,6.1-3.5,6.1-3.5"/>
		<path class="st48" d="M155.8,134.7c0,0,0.4,6.3,1.8,8s3.1-6.1,3.1-6.1"/>
		<path class="st48" d="M128.8,124.5c0,0-4.1,3.9-2,5c2.1,1.1,7.7-2.8,7.7-2.8"/>
		<path class="st48" d="M124.4,123.4c0,0-5.2,8.3-5.3,4"/>
		<line class="st48" x1="117.3" y1="139.8" x2="116.2" y2="157.9"/>
		<path class="st43" d="M100.5,223.7c0,0,7-7.7,8.8-10.5s5.7-8.3,5.7-8.3"/>
		<path class="st43" d="M111.3,193.9c0,0-4.9,11.2-9.3,19.6"/>
		<path class="st42" d="M125.2,196.5c0,0,2.1,5.7-3.4,16.3s-11,12.3-11,12.3"/>
		<path class="st47" d="M123.6,208.4c0,0-2.6,10.2-6.4,16.1"/>
		<path class="st42" d="M124.7,143.6l-2.9,0.2l-1.1,1.8l3.6,2.9c0,0,1.9-4.2,0.9-4.8"/>
	</g>
	
		<g id="Octopus" onmouseover="document.getElementById(&quot;OctopusLink&quot;).style.display=&quot;block&quot;;" onmouseout="document.getElementById(&quot;OctopusLink&quot;).style.display=&quot;none&quot;;">
		<path class="st49" d="M461.2,165.2c3,0.7,6.4,3.5,10.3,6.6l4.9,3.4l-2.8,4.5l5.4,3.9l2.6,1.1l1.5,1.3l-17.3-4.5l-12.1-14.4
			l3.6-4.5L461.2,165.2z"/>
		<path class="st50" d="M501.6,149.4c0,0-11.6,0.9-13.2,2.3s-8.5,1.6-9.7,4.2c-1.3,2.6-6.5,6.9-6.5,6.9l-3.1,2.7l-1.3-0.9
			c-1.6-0.3,4.5-12.9,9.5-14.7c1.9-0.7,2.9-1.9,4.3-2.8c1.6-1,4-1.2,4-1.2l10.7-2.1l6.6-1.3c0,0,4.5-3.2,2.3-7.4
			c-2.2-4.1-6.7-3.8-6.6-3.9l-2.6-1.3c0,0-1.2-2-0.4-2.6c0.8-0.5,3.4,1.1,3.4,1.1l3.3,1.4l4,2c0,0,4.5,2.4,4.3,7.3s-4.3,8.6-4.3,8.6
			L501.6,149.4z"/>
		<path class="st50" d="M493.2,140.7c0,0,3-1.5,4.9,0.2c4.1,3.6,13.9,11,13.5,12.1l9.3,10.1l1.1,7.7l-3.4,6c0,0-8.9,4.4-12.1,4.8
			c-5.6,0.8-12.6,3-11.8,2.8l-9.9-8.1l20.8-3.5c-0.4-0.2,8.1-1.9,7-8.1c-1.2-6.8-9-14.1-9-14.1l-4.1-4.1l-2.2-3.9l-2.6-0.3
			L493.2,140.7z"/>
		<path class="st49" d="M485,146.1c0,0-6.9,2.1-10.9,3.4c-4.1,1.3-9.8,7.2-9.8,7.2l-3,1.1l-2.6-1.7l5.4,6.7l3.3,1.8
			C466.2,164.3,473.7,148.6,485,146.1z"/>
		<path class="st50" d="M454.1,148l-3.5-10.6l-3.4-13.9c0-1.1-7.9-10.8-10.2-11.9c-2.6-1.3-5.8-4.6-5.9-4.2c0,0-2.9-1.6-1.4-2.9
			s2.8-5.2,2.8-5.2l-2.6,2.8l-2.5,1.6l1.1,3.7l4.3,3.3l6.6,10l3.8,11.7l2.1,14.4l3.1,1.8L454.1,148z"/>
		<path class="st50" d="M435,154.2l-2.6-9.4l-2.6-9.8l-2.4-6.2c0,0-0.9-2.5,1-1.4c2,1.1,1.9,2.7,1.9,2.7l1.6-1c0,0-0.4-3.4-2-4.3
			s-4.1-1.5-4.8,0s0,6.4,0,6.4l2.3,12.3l2.1,10.6v1.8L435,154.2z"/>
		<path class="st50" d="M485,184.7l-4.3-0.4c-1.3-0.2-6.2-3.4-7-4.6s0.1-2.6,0-3.9c0.8-0.3,2-0.2,3.6,0l8.3,5.9l0.1,1.4L485,184.7z"
			/>
		<polygon class="st50" points="487.7,137.2 490.8,140.3 493.2,142.6 492.7,144.6 493.2,145.4 495,144.1 495,142.6 492.3,139.9 
			487.7,136.1 		"/>
		<polygon class="st50" points="492.2,142.6 491.4,143.6 492.2,145 492.8,144 		"/>
		<polygon class="st50" points="499.2,131.5 497.1,132.7 495.3,132.7 495,131.2 496.4,130.2 497.7,130.6 		"/>
		<polygon class="st50" points="449.6,148.2 444.7,135.8 446.6,147.2 448.5,148.6 		"/>
		<path class="st50" d="M492.8,193.9c0,0-7.6,1.4-13.1-0.4s-11.5-8-11.5-8l-2-1.4l11.2,3.3c0,0,9.9,3.6,10.2,1.1s-2.1-6.6-2.1-6.6
			l6.3,4.8L492.8,193.9z"/>
		<path class="st50" d="M463.2,182c-0.1-1.1,17.6,3,19,3.8c1.2,0.7,3.6-0.6,3.5-3.1c0,0,2.5,4.9,1.6,6.5s-24.2-5.8-24.2-5.8
			l-3.1,0.9L463.2,182z"/>
		<path class="st50" d="M458.4,186.4l-0.4,4.1l0.3,12.9c1.4,4.1,1.5,8.7,0.6,13.6c0,0-1.9,4.3-4.2,5.3s-7.4-0.3-7.4-0.3l-7.2-5l-6-6
			c0,0-1.1-3.2,0.9-6c1.9-2.8,6-1.3,6-1.3s2.4,1.5,1.9,2.4s-1.5,3.8-2.4,4s-2.1,0.9-2.1,0.9l5.8,3.9c0,0,7.5,2.4,8.8-0.9
			c1.3-3.2,0-16.3,0-16.3s2.8-10.6,3.7-11S458.4,186.4,458.4,186.4z"/>
		<path class="st50" d="M440.6,211.6c0,0,6.9,4.2,7.1,2.9s4.7-2.1-0.3-12.8l-3.7-6.7c-4.7-9.9-0.1-14.8,5.8-14.8l2.1,10.7l1.9,21.3
			c0,0,0.3,2.7-2.3,3.4c-2.6,0.7-7.3-0.9-7.3-0.9l-4.1-2.8L440.6,211.6z"/>
		<path class="st49" d="M466.3,182c-2.6-4.7-5.2-8.5-8-11.2c-1.1-1.1-1-5.1-3.5-4.1l-5.4,13.5l3.9,30.9l-0.3-13.3l3.5-11.4h2.2
			l1.3-2.2l3.1-2.2H466.3z"/>
		<polygon class="st50" points="438.3,208.7 439.3,208.1 440.4,206.6 439.7,205.5 437.6,206.3 		"/>
		<path class="st50" d="M438,210.6c0,0-1.5-2.1-2.1-3.1s0-3.4,0-3.4l2.8-0.4l-1.5,1.4l0.9,4.2L438,210.6L438,210.6z"/>
		<path class="st50" d="M443.6,195h-3.9l-3.1,4.5l-7.1,9.5c0,0-6,4.8-9.2,5.7s-10.9,0-10.9,0l-5.6-2.8l-3.1-0.8l-1.6,0.8l-1.4-1.3
			l-1.6-5.1l1.2-5.6c0,0,1.9-3.2,3-3.2s3.9,1.1,4.3,2.1c0.4,1.1,1.1,4.3,0.2,4.9s-3.9,0.9-3.9,0.9l-1.7-1.3l-0.3,1.2l1.7,2.7h8.6
			l4.2-0.1l5.1-2.6l6.4-5.7l9.4-10.5C435.7,186.1,445.5,184.2,443.6,195z"/>
		<path class="st50" d="M428.8,188.1c0,0-4.3,8.4-7.5,9.4s-7,0-7,0l-4.8-5.6l-7-6.3l-5-0.5c0,0-4.7-0.2-6.1,0.5
			c-1.4,0.8-2.2,3.5-1.4,4.6s3.6,3.6,4.9,3s2.4-1.1,2.2-1.7c-0.2-0.6-0.2-2.9-0.8-2.9s3.8,1.4,3.8,1.4l6.8,8c0,0,4.4,3.9,4.7,4.2
			c0.3,0.3,6.1,2.8,6.1,2.8l6.9-6l9.4-11.1L428.8,188.1z"/>
		<path class="st49" d="M434.4,189.4l-6.2,10.7l-8.6,7.5c-3.6,1.9-7.1,2.2-10.6,1.1l-6.4,0.6c-0.6,0.4-4.1-1.1-4.4-2.2
			c-0.3-1.2,0-3.9,0-3.9l1.2-2.8l2.6-0.6l1,1.6l-1,0.8l-1.7-0.4l-1.1,1.7v1.7l1.4,2.2l13.3-0.3l4.6-2.5l6.4-5.8l8.1-9.8
			C433.1,188.9,432.9,188.6,434.4,189.4z"/>
		<path class="st49" d="M428.3,193.9l-7.4,5.4l-3.2,1.8l-4.7,0.5l-5.6-3.4l-7.3-8.6l-4-1.3l3.2,0.3h2.9l7.6,7.4l3.9,1.5
			c2.6,1.3,5.3,1.1,8.1,0l7.1-9.2l3.9,0.6L428.3,193.9z"/>
		<path class="st50" d="M431.1,154.4l-1.6-6.1l-2.3-10.9c0,0-2.5-11-1.6-11.5s3.2,0,3.2,0l0.7,2.2c0,0-2-1.9-2.4-0.8
			c-0.4,1.1,3.5,20.5,3.5,20.5L431.1,154.4z"/>
		<path class="st49" d="M457.6,155.5c0,0,0-0.2,0.1-0.5c0.2-1.6,0.6-6.7-2.2-6.9c-3.3-0.2-7.6,0.5-7.6,0.5s-2.2-2.2-4.4-2.1
			c-2.8,0.1-4.6,4-4.5,5.3c0,0.7-2.9,2-4,2.5c-0.3,0.1-0.4,0.2-0.4,0.2s8.8-3.1,15,1.6c3.4,2.6,3.4,5.4,3.4,5.4c3-1.7,3.3-3,4.6-2
			l6.8,3.5L457.6,155.5z"/>
		<circle class="st50" cx="456.2" cy="151.1" r="1.2"/>
		<path class="st50" d="M427.1,161.9c0,0-4.7,3.7-5.1,8.2"/>
		<path class="st49" d="M435.9,113.3c0,0,6.8,10.7,7,12.4c0.2,1.7,1.7,9.7,1.7,9.7"/>
		<path class="st50" d="M465.3,181c0,0-7.2-5.9-8.2-4.4s-5.7,2.9-5.7,5.4s-0.5,9.9-0.5,9.9l-2.1-12.4l6.2-10.2l-0.2-2.7
			c0,0,0.6-0.7,1.9,0.5s2.1,4.5,2.1,4.5l5,6.1L465.3,181z"/>
		<path class="st50" d="M441.1,194.4c0,0-13.2,4.9-15.3,7.8"/>
		<polygon class="st50" points="457.7,150.9 455.6,150.4 454.7,149.9 456.5,149.7 		"/>
		<polygon class="st50" points="457.4,152 455.1,151.6 456.2,152.7 		"/>
		<path class="st50" d="M395.8,187.9c0,0-2.8-2.1-3.4-0.9c-0.6,1.3-2.4,2.4-1.1,3s3,1.7,3.6,0.9c0.6-0.9,0.9-2.1,0.2-2.4
			c-0.6-0.2-1.5-1.3-1.9-0.9s-1.8,0.9-1.4,1.3c0.4,0.4,1.2,1.4,1.5,1.2s1.5-0.7,1-1.4"/>
		<path class="st50" d="M399.7,197.6c0,0,2.5-0.4,3.6,1.5s1.5,2.4,0.9,3.9s-0.6,1.5-0.6,1.5"/>
		<path class="st50" d="M451.1,157.5c0,0,5.6,8.8,3.5,13.1c-2.7,5.5-9.1,15.8-12.5,16.5c-1.5,0.3-3.8,1.8-6.4,1.9
			c-5.3,0.3-11.5-1.1-11.4-1.9c-3.2,0.1-5-0.9-5.6-3c-2.9-1.7-1.9-13.4,1.1-16.9c0.7-0.9,3.5-6.7,7.9-10.3c2.5-2.1,6.8-1.9,8.6-2.8
			C439.8,152.4,449.3,153.8,451.1,157.5z"/>
		<path class="st50" d="M425.8,163.9c0,0-5.3,7.1-5.8,9.9"/>
		<path class="st50" d="M446.1,166.5c-2-0.5-4.8-1.4-5-3.1"/>
		<path class="st50" d="M457.4,163l2.7,2.5l-0.8,2.2l-3-1l-3.9-2.5l1.4-4c0.5-1.1,2-1.5,3.9-1.5l20.5,12.3l15.4,10.6l2.4,3.4
			c0,0,0.6,2.6,0.4,3.9c-0.2,1.3-2.8,4.5-2.8,4.5h-0.8c-0.5,0-0.3-6.5-1.8-7.3c-2-1.1-7.5-6-7.5-6l-19.1-13.5L457.4,163z"/>
		<polyline class="st50" points="456.5,162.8 456.1,163.7 458.9,166 454.7,164.2 		"/>
		<path class="st49" d="M504.8,149.7c0,0,11.6,11.8,11.4,16.3c-0.2,4.8-3.7,9.1-6.8,9.5l2.4-3.1l1.3-4.5c0,0,0-2.9-1.2-5.7
			C510.7,159.6,504.8,149.7,504.8,149.7z"/>
		<path class="st50" d="M506.5,136.7c0,0-0.4,4.9-2.3,5.9v1.2l3.5-3L506.5,136.7z"/>
		<polygon class="st50" points="510.9,171.2 504.4,173.8 495.9,175.6 501.8,175.6 510.9,171.9 		"/>
		<path class="st50" d="M454.1,207.2c0,0,3.9,4.2,2,7.2c-1.8,3-1.3,4.2-3.7,4.1s-8.9-2.9-8.9-2.9s6.2,3.5,8.2,0.5s1.9-9,1.9-9"/>
		<path class="st50" d="M448.8,197.9c0,0,3.1,5.7,3.4,7.6c0.2,1.9,1.1,5.6,1.1,5.6"/>
	</g>
	
		<g id="Fish" onmouseover="document.getElementById(&quot;FishLink&quot;).style.display=&quot;block&quot;;" onmouseout="document.getElementById(&quot;FishLink&quot;).style.display=&quot;none&quot;;">
		<g>
			<path class="st36" d="M233.7,100.4l5,6.2l-4,5.3l7.7-3.2l13,1.8l21.3,1l15.7-0.5l5-2.9c-0.9-3.2-4.2-4.7-8.6-5.4l-20.5-0.3
				l-22.2,2.4l-2.4-0.5L233.7,100.4z"/>
			<polygon class="st37" points="273.5,102.5 268.6,95 267.6,100.4 267.6,102.4 			"/>
			<polygon class="st37" points="269.7,111.4 265.5,116 266.4,111 			"/>
			<polygon class="st37" points="263.5,112.9 267.6,111.4 266.4,111 			"/>
			<polygon class="st37" points="245.6,109.1 250.4,112.6 252.9,109.7 			"/>
			<polyline class="st36" points="247.6,104.4 248.9,102.4 250.8,103.9 			"/>
			<ellipse class="st39" cx="291" cy="106" rx="1.8" ry="2.2"/>
			<circle class="st51" cx="291" cy="106.2" r="1.1"/>
			<polygon class="st39" points="282.9,108.3 282.4,110.8 277.4,109.8 274.8,107 275.3,106.2 			"/>
			<line class="st39" x1="297.4" y1="108.1" x2="294.8" y2="108.4"/>
			<path class="st39" d="M242.3,103.9c0,0-1.7,3.7,0.1,4.8"/>
			<path class="st39" d="M287.6,103.9c0,0-1.3,3.5-0.8,4.6"/>
			<line class="st39" x1="276.3" y1="107.8" x2="281.8" y2="108.7"/>
			<path class="st39" d="M284.6,103.9c0,0-0.6,1.4,0.5,1.7"/>
			<path class="st39" d="M284,104.8c0,0-0.9,2,0.5,3"/>
			<path class="st39" d="M283.7,107.8c0,0-0.1,1.3,1.1,2.3"/>
			<path class="st39" d="M285.4,108.7c0,0,0.1,1.2,1.2,1.1"/>
			<line class="st39" x1="268.1" y1="97.1" x2="272.3" y2="101.9"/>
			<line class="st39" x1="267.8" y1="98.7" x2="270.7" y2="101.9"/>
			<path class="st39" d="M291.3,109.1c0,0,0.8-0.2,1.4-0.8"/>
			<line class="st39" x1="267.6" y1="100.4" x2="269.2" y2="102.1"/>
		</g>
		<g>
			<path class="st36" d="M269.5,87.4l5,6.2l-4,5.3l7.7-3.2l13,1.8l21.3,1l15.7-0.5l5-2.9c-0.9-3.2-4.2-4.7-8.6-5.4l-20.5-0.3
				l-22.2,2.4l-2.4-0.5L269.5,87.4z"/>
			<polygon class="st37" points="309.3,89.5 304.4,82 303.4,87.4 303.4,89.4 			"/>
			<polygon class="st37" points="305.5,98.4 301.4,103 302.1,98 			"/>
			<polygon class="st37" points="299.3,99.9 303.4,98.4 302.1,98 			"/>
			<polygon class="st36" points="281.4,96 286.2,99.6 288.8,96.7 			"/>
			<polyline class="st36" points="283.4,91.4 284.7,89.4 286.6,90.9 			"/>
			<ellipse class="st39" cx="326.8" cy="93" rx="1.8" ry="2.2"/>
			<circle class="st51" cx="326.8" cy="93.2" r="1.1"/>
			<polygon class="st39" points="318.7,95.2 318.2,97.8 313.2,96.8 310.6,94 311.1,93.2 			"/>
			<line class="st39" x1="333.2" y1="95.1" x2="330.6" y2="95.4"/>
			<path class="st39" d="M278.1,90.9c0,0-1.7,3.7,0.1,4.8"/>
			<path class="st39" d="M323.4,90.9c0,0-1.3,3.5-0.8,4.6"/>
			<line class="st39" x1="312.1" y1="94.8" x2="317.6" y2="95.7"/>
			<path class="st39" d="M320.4,90.9c0,0-0.6,1.4,0.5,1.7"/>
			<path class="st39" d="M319.8,91.8c0,0-0.9,2,0.5,3"/>
			<path class="st39" d="M319.5,94.8c0,0-0.1,1.3,1.1,2.3"/>
			<path class="st39" d="M321.2,95.7c0,0,0.1,1.2,1.2,1.1"/>
			<line class="st39" x1="303.9" y1="84.1" x2="308.1" y2="88.8"/>
			<line class="st39" x1="303.6" y1="85.7" x2="306.5" y2="88.8"/>
			<path class="st39" d="M327.1,96c0,0,0.8-0.2,1.4-0.8"/>
			<line class="st39" x1="303.4" y1="87.4" x2="305" y2="89"/>
		</g>
		<g>
			<path class="st36" d="M269.5,113.4l5,6.2l-4,5.3l7.7-3.2l13,1.8l21.3,1l15.7-0.5l5-2.9c-0.9-3.2-4.2-4.7-8.6-5.4l-20.5-0.3
				l-22.2,2.4l-2.4-0.5L269.5,113.4z"/>
			<polygon class="st36" points="309.3,115.5 304.4,108 303.4,113.4 303.4,115.4 			"/>
			<polygon class="st36" points="305.5,124.5 301.4,129 302.1,124 			"/>
			<polygon class="st37" points="299.3,125.9 303.4,124.4 302.1,124 			"/>
			<polygon class="st36" points="281.4,122.1 286.2,125.6 288.8,122.8 			"/>
			<polyline class="st37" points="283.4,117.4 284.7,115.4 286.6,116.9 			"/>
			<ellipse class="st39" cx="326.8" cy="119" rx="1.8" ry="2.2"/>
			<circle class="st51" cx="326.8" cy="119.2" r="1.1"/>
			<polygon class="st39" points="318.7,121.3 318.2,123.8 313.2,122.9 310.6,120 311.1,119.2 			"/>
			<line class="st39" x1="333.2" y1="121.1" x2="330.6" y2="121.4"/>
			<path class="st39" d="M278.1,116.9c0,0-1.7,3.7,0.1,4.8"/>
			<path class="st39" d="M323.4,116.9c0,0-1.3,3.5-0.8,4.6"/>
			<line class="st39" x1="312.1" y1="120.8" x2="317.6" y2="121.8"/>
			<path class="st39" d="M320.4,116.9c0,0-0.6,1.4,0.5,1.7"/>
			<path class="st39" d="M319.8,117.8c0,0-0.9,2,0.5,3"/>
			<path class="st39" d="M319.5,120.8c0,0-0.1,1.3,1.1,2.3"/>
			<path class="st39" d="M321.2,121.8c0,0,0.1,1.2,1.2,1.1"/>
			<line class="st39" x1="303.9" y1="110.1" x2="308.1" y2="114.9"/>
			<line class="st39" x1="303.6" y1="111.7" x2="306.5" y2="114.9"/>
			<path class="st39" d="M327.1,122.1c0,0,0.8-0.2,1.4-0.8"/>
			<line class="st39" x1="303.4" y1="113.4" x2="305" y2="115.1"/>
		</g>
	</g>
	
		<g id="Diver" onfocusin="document.getElementById(&quot;DiverLink2&quot;).style.display=&quot;block&quot;;" onfocusout="document.getElementById(&quot;DiverLink2&quot;).style.display=&quot;none&quot;;" onmouseover="document.getElementById(&quot;DiverLink1&quot;).style.display=&quot;block&quot;;" onmouseout="document.getElementById(&quot;DiverLink1&quot;).style.display=&quot;none&quot;;">
		<g>
			<g>
				<g>
					<g>
						<path class="st52" d="M440,93.4c-1.2-0.2-2.4-0.4-3.5,0.1c-0.8,0.3-1.5,0.6-2.2,1c-2.5,1.4-5.2,2-8,2.3
							c-2,0.2-2.9-0.3-3.6-2.2c-0.3-0.7-0.7-1.1-1.3-1.4c-1.3-0.5-2.6-1.1-4-1.5c-1.7-0.5-3.3,0-4.9,0.6c-0.7,0.2-1.4,0.3-2.1,0.4
							c-0.1,0-0.3,0-0.4,0.1c-1.9,1-4,0.9-6,1.1c-1.2,0.1-2.5,0.1-3.7,0.1c-0.6,0-0.8-0.3-0.6-0.9c0.3-0.9,0.6-1.7,0.8-2.6
							c0.2-0.8,0.7-0.9,1.4-0.8c1.4,0.2,2.7,0.4,4.1,0.6c2.5,0.4,4.7,0,6.8-1.4c0.7-0.5,1.3-0.9,2-1.3c0.9-0.5,2,1.6,2.5,1.7
							c0.9,0.2,1.9,0.4,3,0.6c-0.4-0.7-0.6-1.3-0.9-1.8c-0.6-0.8-1.2-1.6-1.9-2.3c-0.5-0.5-1.1-0.6-1.8-0.2
							c-0.7,0.5-1.5,0.9-2.2,1.2c-0.7,0.3-1.5,0.4-2.3,0.6c-0.9,0.3-1.8,0.6-2.6,0.9c-1.9,0.9-3.9,0.7-6,0.7c-0.3,0-0.5-0.1-1-0.2
							c0.4-1,0.7-1.8,1.1-2.7c0.5-1.2,0.5-1.3,1.9-1.2c1.9,0.1,3.9,0.1,5.8,0.2c0.8,0,1.4-0.3,2-0.9c1-1.2,2.1-2.4,3.2-3.6
							c0.8-0.8,1.1-0.7,1.9,0.1c0.2,0.2,0.6,0.4,0.8,0.7c0.2,0.2,0.3,0.5,0.5,0.8c0.1,0.3,0.2,0.7,0.4,1c1.8,2.1,3.6,4.2,5.4,6.2
							c0.2,0.3,0.5,0.6,0.6,0.9c0.3,0.8,0.9,1.2,1.7,1.3c0.3,0.1,0.8-0.1,1-0.3c2.1-1.4,4.2-2.9,6.2-4.3c0.1,0,0.1-0.1,0.2-0.3
							c-0.7,0.3-1-0.1-1.1-0.6c-0.4-1.4-0.9-2.7-1.3-4.1c-0.2-0.6,0-0.9,0.6-1.1c4.2-1.4,8.5-2.8,12.7-4.2c0.1-1.3,0.1-1.3,1.5-1.7
							c0.2,0.3,0.4,0.6,0.6,1c0.3-0.1,0.6-0.2,0.9-0.3c1.2-0.5,2.4-0.3,3.4,0.7c0.5,0.5,1.1,0.8,1.7,0c0.1-0.1,0.3-0.2,0.5-0.1
							c0.3,0.1,0.7,0.1,1,0.3c0.2,0.1,0.2,0.5,0.2,0.7s-0.2,0.3-0.4,0.5c0.7,0.1,1.5-0.8,2.1,0.1c0.4,0.6,0.6,1.3,0.9,2.1
							c0.6-0.6,1.2-1.1,1.9-1.6c1.4-1.1,3.2-0.7,4.2,0.8c0.3,0.5,0.6,1.1,0.6,1.7c0,1.1,0.4,2.3-0.5,3.3c-0.3,0.3-0.2,1-0.3,1.5
							c-0.3-0.1-0.6-0.1-0.9-0.2c-0.1,0.4-0.1,0.4,1.3,1.4c-0.1,0.2-0.1,0.4-0.2,0.5c-0.4,0.5-0.9,0.9-1.3,1.3
							c-0.3-0.5-0.7-0.9-1-1.4c-0.4-0.8-1.8-1.3-2.7-1.3c-1.3,0-2,0.8-2.6,1.8c-0.9,1.3-1.7,2.6-3.2,3.2c-0.8,0.3-1.5,0.7-2.1,1.3
							c-1.9,1.7-2,4-2.2,6.2c0,0.2,0.1,0.4,0.1,0.7c0.1,0.7,0.2,1.3,0.3,2c0,0.5,0,1,0,1.6c0,0.5-0.1,0.8-0.6,0.9s-0.7-0.3-0.7-0.7
							c0-1.1,0-2.3,0.1-3.4c0.2-1.6,1.7-5.4,2-7.2c-2.3,1.2-5.4,3.8-7.2,1.8c-0.5,0.7-1,1.4-1.5,1.9c-0.4,0.4-0.9,0.8-1.4,0.9
							c-0.6,0.2-1.2-0.4-1.1-1.1c0-0.4,0-0.8,0.1-1.1c0-0.2,0.2-0.3,0.4-0.4c0.5-0.3,0.9-0.6,1.4-0.9C440,93.6,440,93.5,440,93.4z"
							/>
					</g>
				</g>
			</g>
			<line class="st48" x1="435.1" y1="86.5" x2="457.5" y2="80"/>
		</g>
		<path class="st48" d="M454,82.5c0,0,5.9-2.5,2.5,1.5c-1.4,1.6-4.9,2.2-7.4,4c-3.8,2.7-6.8,6.4-6.8,6.4l-2.3-0.9l6.1-7.4L454,82.5z
			"/>
		<path class="st48" d="M464.1,81.7l-3.7,0.8l0.5,1.5l2.6,0.3C463.5,84.2,464.3,82.9,464.1,81.7z"/>
		<line class="st48" x1="419.2" y1="83" x2="417" y2="85.4"/>
		<line class="st48" x1="420.3" y1="89.9" x2="422.3" y2="93.9"/>
		<line class="st48" x1="417.3" y1="88.9" x2="416.3" y2="91.4"/>
		<line class="st48" x1="457.5" y1="80" x2="458.4" y2="86"/>
	</g>
	
		<g id="Dolphin" onmouseover="document.getElementById(&quot;DolphinLink&quot;).style.display=&quot;block&quot;;" onmouseout="document.getElementById(&quot;DolphinLink&quot;).style.display=&quot;none&quot;;">
		<g>
			<path class="st53" d="M253.6,63.3l0.4,0.2c0.9-0.5,4.2-0.1,5,0.9c0.7,0.9,1.6,0.2,1.6,0.3c0,0,0.1,0.5,0.8,0.8
				c0.7,0.4,1.5-0.4,2,0.4s1.8,2.3,1.8,2.3s1-1.6,1.2-2.6c0.3-1.1-1.8-5.7-2.3-5.5c0,0,0.7-1.7,2.7-3.9c2-2.3,7-5.7,7-5.7
				c2.9-1,6-1.6,9.2-1.9l5.8-0.6l4.3-0.3l2.2,1c0,0,0,0.5,0.5,0.6s0.7,0.5,1.4,0c0.9-0.6,0.5-2.4,0.1-2.5c0.2,0,2.6-3-0.3-6.3
				c-2.8-3.2-7.8-4.5-10.5-4.6s-6.4,1.5-6.4,1.5c-2,1-4.1,2.4-6.2,4.1l-5.1,4.6c-2,2.3-3.9,4.6-4.6,6.5l-1.1,2l-0.8,4.1
				c0,0,0.1,0.9-0.7,0.8c-0.4-0.1-3.8,0.2-4,0.5c0,0-3.4,1.5-3.8,2.5C253.2,63.3,253.6,63.3,253.6,63.3z"/>
			<path class="st53" d="M280,37.2l4.7-1.2l-2.4-3.2c-0.5-0.1-0.8,0.1-0.5,1C281.7,35.2,281,36.3,280,37.2z"/>
			<path class="st53" d="M283.5,42.6c0.1,0,1.8,0.7,2.4,0.9s1.6,0.8,1.6,1s-5.6,1.2-6.5,1s-4.5-1.1-4.5-1.2s-0.3-0.2,0.5-0.4
				s3.1-0.3,3.1-0.3l2.6-0.8L283.5,42.6z"/>
			<path class="st54" d="M288.9,47.9l-0.5,2.3c0,0-1.2,1.5-1.3,2c-0.1,0.5-0.5,0.6,0.2,0.8c0.6,0.2,2.5-0.3,2.5-0.3s1.5-1.1,1.8-1.8
				s1.2-3.1,1.2-3.1L288.9,47.9z"/>
			<ellipse transform="matrix(0.8285 -0.56 0.56 0.8285 27.8289 173.4669)" class="st55" cx="297.12" cy="41.3" rx="0.2" ry="0.6"/>
			
				<ellipse transform="matrix(0.4375 -0.8992 0.8992 0.4375 126.1481 286.81)" class="st56" cx="292.32" cy="42.57" rx="0.7" ry="0.7"/>
			<path class="st53" d="M292.8,44c0,0,2.2,2.7,2.5,3.1S296,48,296,48l0.9,0.5l0.5,0.2"/>
			<line class="st57" x1="261" y1="63.8" x2="260.7" y2="64.6"/>
			<line class="st57" x1="261" y1="63.6" x2="260.6" y2="64.8"/>
		</g>
		<path class="st58" d="M295.2,38.8c-0.5-0.5-1.1-0.9-1.8-1.2c-0.1-0.2-0.3-0.3-0.5-0.4c-2.6-0.8-5.3-0.7-7.9-0.3
			c-2.6,0.3-5.2,0.6-7.5,2c-4.6,2.7-8.1,7.2-11.5,11.3c-0.1,0.2-0.2,0.3-0.2,0.5c-1.3,1.3-2.4,2.8-2.6,4.7c0,0.3,0.2,0.5,0.5,0.5
			s0.5-0.2,0.5-0.5c0.2-1.5,1-2.7,2-3.7c0.4,0.3,0.9,0.4,1.3-0.1c3.1-3.7,6.4-7.7,10.4-10.5c2-1.4,4.3-1.7,6.7-2.1
			c2.4-0.3,4.7-0.5,7,0c0.1,0.1,0.2,0.2,0.4,0.2s0.3,0.1,0.5,0.2c0.3,0.2,0.6,0.3,1,0.5c0.1,0.1,0.2,0.2,0.4,0.3
			c0.2,0.2,0.5,0.3,0.7,0.3s0.5-0.1,0.7-0.3s0.3-0.4,0.3-0.7C295.4,39.3,295.4,39,295.2,38.8z"/>
		<path class="st58" d="M254.9,62.3c0.1-0.2,0.3-0.3,0.5-0.3c0.5-0.1,1-0.3,1.5-0.5c0,0,0.4-0.2,0.2-0.1c0.1,0,0.2-0.1,0.4-0.2
			c0.2-0.1,0.5-0.2,0.7-0.3c1-0.5,2-0.9,3.1-1.2c0.5-0.1,0.9,0,1.1,0.4c0-0.2,0-0.3,0-0.5c-0.2-0.5-0.7-0.8-1.2-0.7
			c-2,0.5-3.9,1-5.8,1.7c-0.5,0.2-0.9,0.7-0.7,1.2C254.7,62.1,254.8,62.2,254.9,62.3z"/>
		<path class="st58" d="M283.6,43.2c-0.1-0.3-0.4-0.4-0.6-0.3c-1.3,0.3-2.6,0.5-4,0.6c-0.3,0-0.5,0.2-0.5,0.5s0.2,0.5,0.5,0.5
			c1.4-0.1,2.9-0.3,4.2-0.6C283.5,43.8,283.7,43.5,283.6,43.2z"/>
		<path class="st58" d="M284,35.1c-0.2-0.8-0.7-1.6-1.4-2c-0.1-0.1-0.3-0.1-0.4,0c-0.1,0-0.2,0.1-0.3,0.2c-0.1,0.3,0,0.5,0.2,0.7
			l0,0c0,0,0.1,0,0.1,0.1c0.1,0,0.1,0.1,0.2,0.2c0.1,0.1,0.1,0.1,0.2,0.2l0,0c0,0,0,0.1,0.1,0.1c0.1,0.1,0.2,0.3,0.2,0.4l0,0v0.1
			c0,0.1,0,0.2,0.1,0.3c0.1,0.3,0.4,0.4,0.6,0.3C283.9,35.6,284,35.4,284,35.1z"/>
	</g>
	
		<g id="Vents" onmouseover="document.getElementById(&quot;VentsLink&quot;).style.display=&quot;block&quot;;" onmouseout="document.getElementById(&quot;VentsLink&quot;).style.display=&quot;none&quot;;">
		<g>
			<path class="st59" d="M346.9,429.1V429c1.7-0.7,2.7-3,2.4-5.6c0-0.3-0.1-0.6-0.2-0.9c3-1.3,4.9-5.5,4.4-10.1
				c-0.2-2.1-0.9-3.9-1.9-5.4c1.2-1.9,1.8-4.6,1.5-7.5c-0.4-3.7-2.3-6.8-4.7-8.1c-0.6-2.6-2.4-4.5-4.4-4.2c-0.3,0-0.6,0.1-0.9,0.3
				c0-0.1,0-0.1,0-0.2c-0.2-2-1.6-3.4-3-3.2s-2.4,1.9-2.1,3.8c0,0.5,0.2,0.9,0.3,1.3c-0.4,0.4-0.8,1-1,1.6c-0.5-0.6-1.2-0.9-1.9-0.8
				c-1.4,0.2-2.4,1.9-2.1,3.8c0,0.5,0.2,0.9,0.3,1.3c-1,1.1-1.6,2.9-1.4,4.9c0.1,0.5,0.2,1,0.3,1.4c-0.6,1.6-0.8,3.5-0.6,5.6
				c0.2,2.1,1,4,2,5.5c-0.1,0.5-0.2,1-0.1,1.6c0.2,1.4,0.9,2.5,1.8,3c0,0.4,0,0.7,0,1.1c0.1,1.1,0.6,2,1.2,2.5
				c-0.2,0.6-0.3,1.3-0.2,2.1c0.2,2,1.6,3.4,3,3.2c0.5-0.1,0.9-0.3,1.2-0.7c0.2,1,0.6,1.8,1.1,2.3c-0.2,0.6-0.3,1.3-0.2,2.1
				c0.2,2,1.6,3.4,3,3.2C346.2,432.8,347.1,431,346.9,429.1z"/>
			<path class="st60" d="M352.2,453.7v-0.1c1.7-0.7,2.7-3,2.4-5.6c0-0.3-0.1-0.6-0.2-0.9c3-1.3,4.9-5.5,4.4-10.1
				c-0.2-2.1-0.9-3.9-1.9-5.4c1.2-1.9,1.8-4.6,1.5-7.5c-0.4-3.7-2.3-6.8-4.7-8.1c-0.6-2.6-2.4-4.5-4.4-4.2c-0.3,0-0.6,0.1-0.9,0.3
				c0-0.1,0-0.1,0-0.2c-0.2-2-1.6-3.4-3-3.2s-2.4,1.9-2.1,3.8c0,0.5,0.2,0.9,0.3,1.3c-0.4,0.4-0.8,1-1,1.6c-0.5-0.6-1.2-0.9-1.9-0.8
				c-1.4,0.2-2.4,1.9-2.1,3.8c0,0.5,0.2,0.9,0.3,1.3c-1,1.1-1.6,2.9-1.4,4.9c0.1,0.5,0.2,1,0.3,1.4c-0.6,1.6-0.8,3.5-0.6,5.6
				c0.2,2.1,1,4,2,5.5c-0.1,0.5-0.2,1-0.1,1.6c0.2,1.4,0.9,2.5,1.8,3c0,0.4,0,0.7,0,1.1c0.1,1.1,0.6,2,1.2,2.5
				c-0.2,0.6-0.3,1.3-0.2,2.1c0.2,2,1.6,3.4,3,3.2c0.5-0.1,0.9-0.3,1.2-0.7c0.2,1,0.6,1.8,1.1,2.3c-0.2,0.6-0.3,1.3-0.2,2.1
				c0.2,2,1.6,3.4,3,3.2C351.5,457.4,352.5,455.7,352.2,453.7z"/>
			<g>
				<path class="st61" d="M361.5,451.1c-1.8-4-2.4-1.4-4-2.6s-4.6,1.2-6.6,0.5s-4.9,1-6.7-0.1c-1.8-1.1-2.7,0-3.1,0.6
					c-0.5,0.9-1.7,3.7-1.8,3.9c-9.9,22.5-25.6,35-25.6,35c25.1,4.7,49.8,4.8,74.2,0C388.1,488.3,372.1,474.7,361.5,451.1z"/>
				<path class="st62" d="M342.2,454.1c-0.9,2-1.2,3.6-0.9,5.9c0.3,2.2-0.1,4.4-1.7,6c-0.9,1-2.1,1.7-3.1,2.5
					c-1.7,1.4-3.1,3-4.1,5.1c-0.7-3.9,2.7-6.5,5-8.9c1.7-1.7,1.5-3.6,1.8-5.8C339.5,456.8,340.6,455.2,342.2,454.1z"/>
				<path class="st62" d="M331.4,476.8c0.2,2.6-2,5.2-4,6.4c-2.1,1.3-4.5,2.1-6.5,3.6c0.3-2.5,3.2-4.3,5.1-5.5
					C328,480.1,329.8,478.4,331.4,476.8z"/>
				<path class="st62" d="M346.2,455.9c-0.3,1.6-0.4,3.2-0.1,4.9c0.3,1.6,0.9,3,1.4,4.6c1.1,3.4-0.2,7.6-2.4,10.1
					c0.3-3.3,1-6.7-0.1-9.9C343.8,462.4,343.6,458.6,346.2,455.9z"/>
				<path class="st62" d="M341.2,468.6c1.4,3.1-0.5,6.9-2.7,9c-1.1,1.1-2.2,2.2-2.2,3.9c-0.1,1.5,0.4,3.1,1,4.5
					c-3.2-2.1-4-6.5-1.3-9.4C338.3,474.2,340.4,472,341.2,468.6z"/>
				<path class="st62" d="M350.4,454.1c-1.2,3.6,0,6.5,2.4,9.2c1.6,1.8,4.3,6.3,1.3,8.2c1.1-3-2.2-5.6-3.9-7.5
					C347.8,461.4,347,456.5,350.4,454.1z"/>
				<path class="st62" d="M351.2,471.6c-0.9,3-0.1,5.4,1.4,7.9c1,1.6,2.3,4.9,0.6,6.5c0-2.2-1.9-4.2-3.1-5.9
					C348.4,477.6,348.1,473.3,351.2,471.6z"/>
				<path class="st62" d="M343.4,475.5c-0.7,2.3,0.8,4.3,2.1,6c0.6,0.9,2.5,4.6,0.5,5.2c0.5-1.4-2.2-3.5-2.9-4.3
					C341.6,480.7,340.3,476.5,343.4,475.5z"/>
				<path class="st62" d="M354.8,454.6c-0.4,2.5,1.2,4.9,3,6.4c0.7,0.6,1.5,1.2,2.1,1.9c3.4,3.7,0.8,9.8-2.5,12.5
					c1.3-3.7,3.1-8.6-0.1-11.8l0,0C355,461.7,352.3,457.5,354.8,454.6z"/>
				<path class="st62" d="M354.8,476.8c4.1,0.2,8.6,6.1,5.4,10c-0.6-1.9-1.1-3.7-2.2-5.4C356.9,479.9,355.8,478.4,354.8,476.8z"/>
				<path class="st62" d="M358.9,454.6c3.8,2.6,6.3,7.5,7.6,11.9c0.5,1.6,0.8,3.4,1,5.1c0.2,2,0.7,4.8,2.7,5.8
					c-2.3,0.3-4-2.4-4.7-4.3c-0.5-1.6-0.8-3.3-1.3-5C363.2,463.4,361.3,458.8,358.9,454.6z"/>
				<path class="st62" d="M362.7,474.4c1.1,2.8,2.6,5.3,5.1,7.1c0.7,0.5,1.3,0.9,1.9,1.5c0.4,0.4,2.3,2.8,0.7,3
					c0.8-1.2-3.3-2.1-3.7-2.6C363.5,482,360.9,477.9,362.7,474.4z"/>
				<path class="st62" d="M371.3,475.5c2.5,0.6,5,2.9,5.3,5.5l0,0c0.3,2.6,2.7,3.9,4.8,5.1c-2.7,0.6-6.1-0.7-7-3.6
					c-0.3-0.9-0.2-1.7-0.5-2.6C373.2,478.3,372.2,476.9,371.3,475.5z"/>
				<path class="st59" d="M361.7,448.1L361.7,448.1c1.7-1.7,4.3-2.4,3.4-4.9c-1.5-4.4-8.9,6.9-5.5,0.4c3.5-6.5-0.2-7.3-1.1-5.9
					c-1,1.4-3.5,15.5-4.1,7.1s8.9-34,3.8-30.4s-4.5,26.9-7.5,30.8s3.1-25.6,0.8-28.6c-1.7-2.2-6-1.8-4.2,17.3s-1.2,8.9-2.9,4.1
					c-1.7-4.8-3.4-3-1.6,5.7c1.4,7-1.9-2.9-5.6-10.1c-3.8-7.3-12.4-3.2-5.1,2.1c6.7,5,7.7,9.3,9,12.9c-1.3,1.2-2.5,3.9-3.7,8.1
					c-0.9,2.9,2.2-1.8,3.5-3.2s2.1,4,4.1,0.8s3.6-1.5,7,2.5s5.5,3,6.9,1s2.1-2.4,5.2-0.3s1.1-0.9,1.1-0.9
					C363.9,455,362.5,449.4,361.7,448.1z"/>
			</g>
			<ellipse class="st58" cx="349.9" cy="450.3" rx="1.1" ry="3.8"/>
			<ellipse class="st58" cx="354.2" cy="436.4" rx="1.1" ry="3.8"/>
			<ellipse class="st58" cx="357.4" cy="422.5" rx="1.1" ry="3.8"/>
			<ellipse class="st58" cx="348.9" cy="423.5" rx="1.1" ry="3.8"/>
			
				<ellipse transform="matrix(0.7488 -0.6628 0.6628 0.7488 -204.191 330.8707)" class="st58" cx="334.41" cy="434.82" rx="1.6" ry="4.3"/>
			
				<ellipse transform="matrix(0.7488 -0.6628 0.6628 0.7488 -209.8621 350.0726)" class="st58" cx="356.9" cy="451.9" rx="1.6" ry="4.3"/>
			
				<ellipse transform="matrix(0.7488 -0.6628 0.6628 0.7488 -206.2113 351.106)" class="st58" cx="360.09" cy="447.6" rx="1.6" ry="4.3"/>
		</g>
		<g>
			<path class="st59" d="M300.9,439.1V439c1.7-0.7,2.7-3,2.4-5.6c0-0.3-0.1-0.6-0.2-0.9c3-1.3,4.9-5.5,4.4-10.1
				c-0.2-2.1-0.9-3.9-1.9-5.4c1.2-1.9,1.8-4.6,1.5-7.5c-0.4-3.7-2.3-6.8-4.7-8.1c-0.6-2.6-2.4-4.5-4.4-4.2c-0.3,0-0.6,0.1-0.9,0.3
				c0-0.1,0-0.1,0-0.2c-0.2-2-1.6-3.4-3-3.2s-2.4,1.9-2.1,3.8c0,0.5,0.2,0.9,0.3,1.3c-0.4,0.4-0.8,1-1,1.6c-0.5-0.6-1.2-0.9-1.9-0.8
				c-1.4,0.2-2.4,1.9-2.1,3.8c0,0.5,0.2,0.9,0.3,1.3c-1,1.1-1.6,2.9-1.4,4.9c0.1,0.5,0.2,1,0.3,1.4c-0.6,1.6-0.8,3.5-0.6,5.6
				c0.2,2.1,1,4,2,5.5c-0.1,0.5-0.2,1-0.1,1.6c0.2,1.4,0.9,2.5,1.8,3c0,0.4,0,0.7,0,1.1c0.1,1.1,0.6,2,1.2,2.5
				c-0.2,0.6-0.3,1.3-0.2,2.1c0.2,2,1.6,3.4,3,3.2c0.5-0.1,0.9-0.3,1.2-0.7c0.2,1,0.6,1.8,1.1,2.3c-0.2,0.6-0.3,1.3-0.2,2.1
				c0.2,2,1.6,3.4,3,3.2C300.2,442.8,301.1,441,300.9,439.1z"/>
			<path class="st60" d="M306.2,463.7v-0.1c1.7-0.7,2.7-3,2.4-5.6c0-0.3-0.1-0.6-0.2-0.9c3-1.3,4.9-5.5,4.4-10.1
				c-0.2-2.1-0.9-3.9-1.9-5.4c1.2-1.9,1.8-4.6,1.5-7.5c-0.4-3.7-2.3-6.8-4.7-8.1c-0.6-2.6-2.4-4.5-4.4-4.2c-0.3,0-0.6,0.1-0.9,0.3
				c0-0.1,0-0.1,0-0.2c-0.2-2-1.6-3.4-3-3.2s-2.4,1.9-2.1,3.8c0,0.5,0.2,0.9,0.3,1.3c-0.4,0.4-0.8,1-1,1.6c-0.5-0.6-1.2-0.9-1.9-0.8
				c-1.4,0.2-2.4,1.9-2.1,3.8c0,0.5,0.2,0.9,0.3,1.3c-1,1.1-1.6,2.9-1.4,4.9c0.1,0.5,0.2,1,0.3,1.4c-0.6,1.6-0.8,3.5-0.6,5.6
				c0.2,2.1,1,4,2,5.5c-0.1,0.5-0.2,1-0.1,1.6c0.2,1.4,0.9,2.5,1.8,3c0,0.4,0,0.7,0,1.1c0.1,1.1,0.6,2,1.2,2.5
				c-0.2,0.6-0.3,1.3-0.2,2.1c0.2,2,1.6,3.4,3,3.2c0.5-0.1,0.9-0.3,1.2-0.7c0.2,1,0.6,1.8,1.1,2.3c-0.2,0.6-0.3,1.3-0.2,2.1
				c0.2,2,1.6,3.4,3,3.2C305.5,467.4,306.5,465.7,306.2,463.7z"/>
			<g>
				<path class="st61" d="M315.5,461.1c-1.8-4-2.4-1.4-4-2.6s-4.6,1.2-6.6,0.5s-4.9,1-6.7-0.1c-1.8-1.1-2.7,0-3.1,0.6
					c-0.5,0.9-1.7,3.7-1.8,3.9c-9.9,22.5-25.6,35-25.6,35c25.1,4.7,49.8,4.8,74.2,0C342.1,498.3,326.1,484.7,315.5,461.1z"/>
				<path class="st62" d="M296.2,464.1c-0.9,2-1.2,3.6-0.9,5.9c0.3,2.2-0.1,4.4-1.7,6c-0.9,1-2.1,1.7-3.1,2.5
					c-1.7,1.4-3.1,3-4.1,5.1c-0.7-3.9,2.7-6.5,5-8.9c1.7-1.7,1.5-3.6,1.8-5.8C293.5,466.8,294.6,465.2,296.2,464.1z"/>
				<path class="st62" d="M285.4,486.8c0.2,2.6-2,5.2-4,6.4c-2.1,1.3-4.5,2.1-6.5,3.6c0.3-2.5,3.2-4.3,5.1-5.5
					C282,490.1,283.8,488.4,285.4,486.8z"/>
				<path class="st62" d="M300.2,465.9c-0.3,1.6-0.4,3.2-0.1,4.9c0.3,1.6,0.9,3,1.4,4.6c1.1,3.4-0.2,7.6-2.4,10.1
					c0.3-3.3,1-6.7-0.1-9.9C297.8,472.4,297.6,468.6,300.2,465.9z"/>
				<path class="st62" d="M295.2,478.6c1.4,3.1-0.5,6.9-2.7,9c-1.1,1.1-2.2,2.2-2.2,3.9c-0.1,1.5,0.4,3.1,1,4.5
					c-3.2-2.1-4-6.5-1.3-9.4C292.3,484.2,294.4,482,295.2,478.6z"/>
				<path class="st62" d="M304.4,464.1c-1.2,3.6,0,6.5,2.4,9.2c1.6,1.8,4.3,6.3,1.3,8.2c1.1-3-2.2-5.6-3.9-7.5
					C301.8,471.4,301,466.5,304.4,464.1z"/>
				<path class="st62" d="M305.2,481.6c-0.9,3-0.1,5.4,1.4,7.9c1,1.6,2.3,4.9,0.6,6.5c0-2.2-1.9-4.2-3.1-5.9
					C302.4,487.6,302.1,483.3,305.2,481.6z"/>
				<path class="st62" d="M297.4,485.5c-0.7,2.3,0.8,4.3,2.1,6c0.6,0.9,2.5,4.6,0.5,5.2c0.5-1.4-2.2-3.5-2.9-4.3
					C295.6,490.7,294.3,486.5,297.4,485.5z"/>
				<path class="st62" d="M308.8,464.6c-0.4,2.5,1.2,4.9,3,6.4c0.7,0.6,1.5,1.2,2.1,1.9c3.4,3.7,0.8,9.8-2.5,12.5
					c1.3-3.7,3.1-8.6-0.1-11.8l0,0C309,471.7,306.3,467.5,308.8,464.6z"/>
				<path class="st62" d="M308.8,486.8c4.1,0.2,8.6,6.1,5.4,10c-0.6-1.9-1.1-3.7-2.2-5.4C310.9,489.9,309.8,488.4,308.8,486.8z"/>
				<path class="st62" d="M312.9,464.6c3.8,2.6,6.3,7.5,7.6,11.9c0.5,1.6,0.8,3.4,1,5.1c0.2,2,0.7,4.8,2.7,5.8
					c-2.3,0.3-4-2.4-4.7-4.3c-0.5-1.6-0.8-3.3-1.3-5C317.2,473.4,315.3,468.8,312.9,464.6z"/>
				<path class="st62" d="M316.7,484.4c1.1,2.8,2.6,5.3,5.1,7.1c0.7,0.5,1.3,0.9,1.9,1.5c0.4,0.4,2.3,2.8,0.7,3
					c0.8-1.2-3.3-2.1-3.7-2.6C317.5,492,314.9,487.9,316.7,484.4z"/>
				<path class="st62" d="M325.3,485.5c2.5,0.6,5,2.9,5.3,5.5l0,0c0.3,2.6,2.7,3.9,4.8,5.1c-2.7,0.6-6.1-0.7-7-3.6
					c-0.3-0.9-0.2-1.7-0.5-2.6C327.2,488.3,326.2,486.9,325.3,485.5z"/>
				<path class="st59" d="M315.7,458.1L315.7,458.1c1.7-1.7,4.3-2.4,3.4-4.9c-1.5-4.4-8.9,6.9-5.5,0.4c3.5-6.5-0.2-7.3-1.1-5.9
					c-1,1.4-3.5,15.5-4.1,7.1s8.9-34,3.8-30.4s-4.5,26.9-7.5,30.8s3.1-25.6,0.8-28.6c-1.7-2.2-6-1.8-4.2,17.3s-1.2,8.9-2.9,4.1
					c-1.7-4.8-3.4-3-1.6,5.7c1.4,7-1.9-2.9-5.6-10.1c-3.8-7.3-12.4-3.2-5.1,2.1c6.7,5,7.7,9.3,9,12.9c-1.3,1.2-2.5,3.9-3.7,8.1
					c-0.9,2.9,2.2-1.8,3.5-3.2s2.1,4,4.1,0.8s3.6-1.5,7,2.5s5.5,3,6.9,1s2.1-2.4,5.2-0.3s1.1-0.9,1.1-0.9
					C317.9,465,316.5,459.4,315.7,458.1z"/>
			</g>
			<ellipse class="st58" cx="303.9" cy="460.3" rx="1.1" ry="3.8"/>
			<ellipse class="st58" cx="308.2" cy="446.4" rx="1.1" ry="3.8"/>
			<ellipse class="st58" cx="311.4" cy="432.5" rx="1.1" ry="3.8"/>
			<ellipse class="st58" cx="302.9" cy="433.5" rx="1.1" ry="3.8"/>
			
				<ellipse transform="matrix(0.7488 -0.6628 0.6628 0.7488 -222.3739 302.8936)" class="st58" cx="288.41" cy="444.81" rx="1.6" ry="4.3"/>
			
				<ellipse transform="matrix(0.7488 -0.6628 0.6628 0.7488 -228.0485 322.0963)" class="st58" cx="310.9" cy="461.9" rx="1.6" ry="4.3"/>
			
				<ellipse transform="matrix(0.7488 -0.6628 0.6628 0.7488 -224.3943 323.1289)" class="st58" cx="314.09" cy="457.6" rx="1.6" ry="4.3"/>
		</g>
		<g>
			<path class="st59" d="M367.9,439.1V439c1.7-0.7,2.7-3,2.4-5.6c0-0.3-0.1-0.6-0.2-0.9c3-1.3,4.9-5.5,4.4-10.1
				c-0.2-2.1-0.9-3.9-1.9-5.4c1.2-1.9,1.8-4.6,1.5-7.5c-0.4-3.7-2.3-6.8-4.7-8.1c-0.6-2.6-2.4-4.5-4.4-4.2c-0.3,0-0.6,0.1-0.9,0.3
				c0-0.1,0-0.1,0-0.2c-0.2-2-1.6-3.4-3-3.2s-2.4,1.9-2.1,3.8c0,0.5,0.2,0.9,0.3,1.3c-0.4,0.4-0.8,1-1,1.6c-0.5-0.6-1.2-0.9-1.9-0.8
				c-1.4,0.2-2.4,1.9-2.1,3.8c0,0.5,0.2,0.9,0.3,1.3c-1,1.1-1.6,2.9-1.4,4.9c0.1,0.5,0.2,1,0.3,1.4c-0.6,1.6-0.8,3.5-0.6,5.6
				c0.2,2.1,1,4,2,5.5c-0.1,0.5-0.2,1-0.1,1.6c0.2,1.4,0.9,2.5,1.8,3c0,0.4,0,0.7,0,1.1c0.1,1.1,0.6,2,1.2,2.5
				c-0.2,0.6-0.3,1.3-0.2,2.1c0.2,2,1.6,3.4,3,3.2c0.5-0.1,0.9-0.3,1.2-0.7c0.2,1,0.6,1.8,1.1,2.3c-0.2,0.6-0.3,1.3-0.2,2.1
				c0.2,2,1.6,3.4,3,3.2C367.2,442.8,368.1,441,367.9,439.1z"/>
			<path class="st60" d="M373.2,463.7v-0.1c1.7-0.7,2.7-3,2.4-5.6c0-0.3-0.1-0.6-0.2-0.9c3-1.3,4.9-5.5,4.4-10.1
				c-0.2-2.1-0.9-3.9-1.9-5.4c1.2-1.9,1.8-4.6,1.5-7.5c-0.4-3.7-2.3-6.8-4.7-8.1c-0.6-2.6-2.4-4.5-4.4-4.2c-0.3,0-0.6,0.1-0.9,0.3
				c0-0.1,0-0.1,0-0.2c-0.2-2-1.6-3.4-3-3.2s-2.4,1.9-2.1,3.8c0,0.5,0.2,0.9,0.3,1.3c-0.4,0.4-0.8,1-1,1.6c-0.5-0.6-1.2-0.9-1.9-0.8
				c-1.4,0.2-2.4,1.9-2.1,3.8c0,0.5,0.2,0.9,0.3,1.3c-1,1.1-1.6,2.9-1.4,4.9c0.1,0.5,0.2,1,0.3,1.4c-0.6,1.6-0.8,3.5-0.6,5.6
				c0.2,2.1,1,4,2,5.5c-0.1,0.5-0.2,1-0.1,1.6c0.2,1.4,0.9,2.5,1.8,3c0,0.4,0,0.7,0,1.1c0.1,1.1,0.6,2,1.2,2.5
				c-0.2,0.6-0.3,1.3-0.2,2.1c0.2,2,1.6,3.4,3,3.2c0.5-0.1,0.9-0.3,1.2-0.7c0.2,1,0.6,1.8,1.1,2.3c-0.2,0.6-0.3,1.3-0.2,2.1
				c0.2,2,1.6,3.4,3,3.2C372.5,467.4,373.5,465.7,373.2,463.7z"/>
			<g>
				<path class="st61" d="M382.5,461.1c-1.8-4-2.4-1.4-4-2.6s-4.6,1.2-6.6,0.5s-4.9,1-6.7-0.1c-1.8-1.1-2.7,0-3.1,0.6
					c-0.5,0.9-1.7,3.7-1.8,3.9c-9.9,22.5-25.6,35-25.6,35c25.1,4.7,49.8,4.8,74.2,0C409.1,498.3,393.1,484.7,382.5,461.1z"/>
				<path class="st62" d="M363.2,464.1c-0.9,2-1.2,3.6-0.9,5.9c0.3,2.2-0.1,4.4-1.7,6c-0.9,1-2.1,1.7-3.1,2.5
					c-1.7,1.4-3.1,3-4.1,5.1c-0.7-3.9,2.7-6.5,5-8.9c1.7-1.7,1.5-3.6,1.8-5.8C360.5,466.8,361.6,465.2,363.2,464.1z"/>
				<path class="st62" d="M352.4,486.8c0.2,2.6-2,5.2-4,6.4c-2.1,1.3-4.5,2.1-6.5,3.6c0.3-2.5,3.2-4.3,5.1-5.5
					C349,490.1,350.8,488.4,352.4,486.8z"/>
				<path class="st62" d="M367.2,465.9c-0.3,1.6-0.4,3.2-0.1,4.9c0.3,1.6,0.9,3,1.4,4.6c1.1,3.4-0.2,7.6-2.4,10.1
					c0.3-3.3,1-6.7-0.1-9.9C364.8,472.4,364.6,468.6,367.2,465.9z"/>
				<path class="st62" d="M362.2,478.6c1.4,3.1-0.5,6.9-2.7,9c-1.1,1.1-2.2,2.2-2.2,3.9c-0.1,1.5,0.4,3.1,1,4.5
					c-3.2-2.1-4-6.5-1.3-9.4C359.3,484.2,361.4,482,362.2,478.6z"/>
				<path class="st62" d="M371.4,464.1c-1.2,3.6,0,6.5,2.4,9.2c1.6,1.8,4.3,6.3,1.3,8.2c1.1-3-2.2-5.6-3.9-7.5
					C368.8,471.4,368,466.5,371.4,464.1z"/>
				<path class="st62" d="M372.2,481.6c-0.9,3-0.1,5.4,1.4,7.9c1,1.6,2.3,4.9,0.6,6.5c0-2.2-1.9-4.2-3.1-5.9
					C369.4,487.6,369.1,483.3,372.2,481.6z"/>
				<path class="st62" d="M364.4,485.5c-0.7,2.3,0.8,4.3,2.1,6c0.6,0.9,2.5,4.6,0.5,5.2c0.5-1.4-2.2-3.5-2.9-4.3
					C362.6,490.7,361.3,486.5,364.4,485.5z"/>
				<path class="st62" d="M375.8,464.6c-0.4,2.5,1.2,4.9,3,6.4c0.7,0.6,1.5,1.2,2.1,1.9c3.4,3.7,0.8,9.8-2.5,12.5
					c1.3-3.7,3.1-8.6-0.1-11.8l0,0C376,471.7,373.3,467.5,375.8,464.6z"/>
				<path class="st62" d="M375.8,486.8c4.1,0.2,8.6,6.1,5.4,10c-0.6-1.9-1.1-3.7-2.2-5.4C377.9,489.9,376.8,488.4,375.8,486.8z"/>
				<path class="st62" d="M379.9,464.6c3.8,2.6,6.3,7.5,7.6,11.9c0.5,1.6,0.8,3.4,1,5.1c0.2,2,0.7,4.8,2.7,5.8
					c-2.3,0.3-4-2.4-4.7-4.3c-0.5-1.6-0.8-3.3-1.3-5C384.2,473.4,382.3,468.8,379.9,464.6z"/>
				<path class="st62" d="M383.7,484.4c1.1,2.8,2.6,5.3,5.1,7.1c0.7,0.5,1.3,0.9,1.9,1.5c0.4,0.4,2.3,2.8,0.7,3
					c0.8-1.2-3.3-2.1-3.7-2.6C384.5,492,381.9,487.9,383.7,484.4z"/>
				<path class="st62" d="M392.3,485.5c2.5,0.6,5,2.9,5.3,5.5l0,0c0.3,2.6,2.7,3.9,4.8,5.1c-2.7,0.6-6.1-0.7-7-3.6
					c-0.3-0.9-0.2-1.7-0.5-2.6C394.2,488.3,393.2,486.9,392.3,485.5z"/>
				<path class="st59" d="M382.7,458.1L382.7,458.1c1.7-1.7,4.3-2.4,3.4-4.9c-1.5-4.4-8.9,6.9-5.5,0.4c3.5-6.5-0.2-7.3-1.1-5.9
					c-1,1.4-3.5,15.5-4.1,7.1s8.9-34,3.8-30.4s-4.5,26.9-7.5,30.8s3.1-25.6,0.8-28.6c-1.7-2.2-6-1.8-4.2,17.3s-1.2,8.9-2.9,4.1
					c-1.7-4.8-3.4-3-1.6,5.7c1.4,7-1.9-2.9-5.6-10.1c-3.8-7.3-12.4-3.2-5.1,2.1c6.7,5,7.7,9.3,9,12.9c-1.3,1.2-2.5,3.9-3.7,8.1
					c-0.9,2.9,2.2-1.8,3.5-3.2s2.1,4,4.1,0.8s3.6-1.5,7,2.5s5.5,3,6.9,1s2.1-2.4,5.2-0.3s1.1-0.9,1.1-0.9
					C384.9,465,383.5,459.4,382.7,458.1z"/>
			</g>
			<ellipse class="st58" cx="370.9" cy="460.3" rx="1.1" ry="3.8"/>
			<ellipse class="st58" cx="375.2" cy="446.4" rx="1.1" ry="3.8"/>
			<ellipse class="st58" cx="378.4" cy="432.5" rx="1.1" ry="3.8"/>
			<ellipse class="st58" cx="369.9" cy="433.5" rx="1.1" ry="3.8"/>
			
				<ellipse transform="matrix(0.7488 -0.6628 0.6628 0.7488 -205.5438 347.3016)" class="st58" cx="355.41" cy="444.82" rx="1.6" ry="4.3"/>
			
				<ellipse transform="matrix(0.7488 -0.6628 0.6628 0.7488 -211.215 366.5035)" class="st58" cx="377.9" cy="461.9" rx="1.6" ry="4.3"/>
			
				<ellipse transform="matrix(0.7488 -0.6628 0.6628 0.7488 -207.5642 367.5368)" class="st58" cx="381.09" cy="457.6" rx="1.6" ry="4.3"/>
		</g>
	</g>
	<line class="st19" x1="1.6" y1="591" x2="627.5" y2="591"/>
	
		<g id="SBRoberts" onmouseover="document.getElementById(&quot;sBRobertsLink&quot;).style.display=&quot;block&quot;;" onmouseout="document.getElementById(&quot;sBRobertsLink&quot;).style.display=&quot;none&quot;;">
		<g>
			<path class="st63" d="M318.1,651.8l-1.3,19.3l-52.6,3.9l-78.9-4.6l-1.3-4.6l30.6-0.1l34.8,2.2c2.8-0.4,4-1.8,4-3.8l34.2-6.1
				L318.1,651.8z"/>
			<polygon class="st63" points="280.7,651 280.7,659 291.7,656.6 291.1,651.8 284.5,648.8 			"/>
			
				<rect x="290.49" y="650.18" transform="matrix(0.9736 -0.2281 0.2281 0.9736 -140.7097 84.1049)" class="st64" width="6" height="1.2"/>
			<polygon class="st63" points="216.5,665 216.8,657.7 229,656 232.3,648.5 245.9,647 250.2,667.2 			"/>
			<polygon class="st63" points="260.1,647 245,647 250.2,667.2 278,659 274.7,654.8 263.6,653.1 			"/>
			<rect x="233.79" y="622.84" transform="matrix(0.6 -0.8 0.8 0.6 -422.1525 445.3666)" class="st63" width="1" height="44"/>
		</g>
		<path class="st65" d="M304.8,673.7c-9.8,0.5-20.1,1.1-29.9,0.1c-4.6-0.5-9.1-1.3-13.7-1.7c-5-0.4-9.8-0.3-14.8,0
			c-4.8,0.3-9.5,0.8-14.4,0.8c-4.6,0-9-0.4-13.4-0.9c-9.3-1-18.2-1.9-27.7-1.2c-2.8,0.2-4.3,2-3.6,3.2c0.8,1.5,3.6,2,6.4,1.8
			c8.8-0.7,17.6,0.8,26.1,1.6c4.4,0.4,8.9,0.7,13.4,0.7c5,0,9.9-0.6,14.8-0.9c4.5-0.3,8.9-0.3,13.3,0.2c4.5,0.5,8.8,1.3,13.3,1.6
			c10,0.8,20.1,0.4,30.2-0.2c2.8-0.1,5.2-1.1,5.2-2.6C310,675,307.6,673.6,304.8,673.7z"/>
	</g>
	
		<polygon id="BurjK" onmouseover="document.getElementById(&quot;BurjkLink&quot;).style.display=&quot;block&quot;;" onmouseout="document.getElementById(&quot;BurjkLink&quot;).style.display=&quot;none&quot;;" class="st66" points="
		240.5,956.7 240.5,959 259,959 258.9,956.6 256.9,956.7 256.9,955.7 255.8,955.7 255.8,955.1 254.8,955.1 254.8,948.2 253.9,948.2 
		253.9,939.1 253.1,939.1 253.3,928.3 252.3,928 252.4,916 251.4,915.3 251.5,912 251.5,910.5 251.4,904.2 250.9,903.8 250.9,899.9 
		250.7,899.5 250.8,895.3 250.5,895.1 250.4,893 250.5,890.3 250.4,890.3 250.4,885.6 250.1,885.6 250.1,889.7 249.9,889.7 
		249.9,891.9 249.6,892.6 249.6,896.4 249.4,896.9 249.3,897.4 249.3,902.2 248.7,902.9 248.8,906.1 248.6,906.6 248.5,909.9 
		247.7,910.9 247.6,924.1 246.6,924.7 246.4,935.8 245.7,936 245.5,945.6 244.8,945.7 244.5,955 243.5,955 243.5,955.7 242.6,955.7 
		242.5,956.6 	"/>
	
		<g id="Titanic" onmouseover="document.getElementById(&quot;TitanicLink&quot;).style.display=&quot;block&quot;;" onmouseout="document.getElementById(&quot;TitanicLink&quot;).style.display=&quot;none&quot;;">
		<g>
			<polygon class="st22" points="365.1,369.9 365.2,370.9 372.2,371.9 372.4,370.9 			"/>
			<path class="st22" d="M396.4,356.2l-0.4,12.5l4.1,0.3l0.5-12.9C400.6,356,398.6,355,396.4,356.2z"/>
			<path class="st22" d="M411.1,356l-0.6,13.5l4.4,0.6l1-14.1C415.8,356,412.6,355.5,411.1,356z"/>
			<path class="st22" d="M424.3,360.6l2.7,13.8l5.1-1.3l-3.1-13.8C429.1,359.4,426,359.4,424.3,360.6z"/>
			<path class="st22" d="M442.9,357l2.9,14.2l6.3-1.1l-3.8-14.9C448.3,355.2,444.6,355.7,442.9,357z"/>
			<polygon class="st22" points="465.2,332.8 474.8,371.8 476.2,371.7 			"/>
			<polygon class="st22" points="386.5,343 384.8,367.1 385.5,367.2 			"/>
			<path class="st22" d="M421.5,372.7l-8.7-0.5l-33.3-3.2l0.1,1.1l34.2,3l7.7,0.5C421.5,373.4,421.5,373,421.5,372.7z"/>
			<path class="st22" d="M464.8,372l-11.7,0.5l-27.9,4.8c0.1,0.3,0.2,0.6,0.2,1l27.7-4.5l12.5-0.6L464.8,372z"/>
			<path class="st22" d="M421.4,370.1l-38.8-2.3l-0.5,0.6l32,2.7l7.5,0.4C421.4,371,421.4,370.5,421.4,370.1z"/>
			<path class="st22" d="M463.3,369.6l-10.9,0.5l-27.9,4.8c0.1,0.4,0.3,0.8,0.4,1.2l25.4-4.5l8.1-0.8l5.9,0.1L463.3,369.6z"/>
			<polygon class="st22" points="502.6,368.4 465.9,375 466.1,373.5 502.7,367.2 			"/>
			<path class="st22" d="M454.8,374.7l-5,0.9l-18.2,2.9l-5.9,0.8c0.1,0.6,0.3,1.3,0.4,1.9l29.7-4.5l10.1-1.8l-0.1-1.1L454.8,374.7z"
				/>
			<path class="st22" d="M421.5,374.7l-32.5-2.9l-8.1-0.8l-4.7-0.4l-0.1,0.6l-0.7,0.9l29.3,3.2l16.7,1.4
				C421.5,376,421.5,375.4,421.5,374.7z"/>
			<path class="st22" d="M420.5,385.8c0.4-2.6,0.7-5.3,0.9-7.9c0-0.4,0-0.8,0.1-1.2l-5.8-0.4l-50.6-5.8l0.3,1.1l4.1,3.4l-1.4,3.1
				L420.5,385.8z"/>
			<path class="st22" d="M473.7,373.6l-47.6,7.6c0.1,0.3,0.1,0.6,0.2,1c0.5,2.8,0.8,5.6,1,8.4l8.1-0.7l62.7-6l5.6-1.2l-0.9-14.2
				L473.7,373.6z"/>
			<path class="st22" d="M421.4,371l-39.9-2.8l-0.3,0.9l-1.5,1l-0.1,0.8l41.8,3.5C421.6,373.3,421.5,372.2,421.4,371z"/>
			<path class="st22" d="M463.5,372.1V371l-13.2,0.6l-25.5,4.1c0.3,1.1,0.6,2.2,0.9,3.3l29.2-4.3l10.7-1l-0.1-0.6L463.5,372.1z"/>
			<polygon class="st22" points="462.4,368.4 457.5,368.5 452.4,369.7 452.4,370 457.8,369.8 462.4,369.6 			"/>
		</g>
		<path class="st65" d="M482.8,386.7c-9.8,0.5-20.1,1.1-29.9,0.1c-4.6-0.5-9.1-1.3-13.7-1.7c-5-0.4-9.8-0.3-14.8,0
			c-4.8,0.3-9.5,0.8-14.4,0.8c-4.5,0-9-0.4-13.5-0.9c-9.3-1-18.2-1.9-27.7-1.2c-2.8,0.2-4.3,2-3.6,3.2c0.8,1.5,3.6,2,6.4,1.8
			c8.8-0.7,17.6,0.8,26.1,1.6c4.4,0.4,8.9,0.7,13.4,0.7c5,0,9.9-0.6,14.8-0.9c4.5-0.3,8.9-0.3,13.3,0.2c4.5,0.5,8.8,1.3,13.3,1.6
			c10,0.8,20.1,0.4,30.2-0.1c2.8-0.1,5.2-1.1,5.2-2.6C488,388,485.6,386.6,482.8,386.7z"/>
	</g>
</g>
<g id="Links">
	<g id="EverestLink" class="st67">
		<path class="st68" d="M578,403.5h-31c-14.6,0-26.5-11.9-26.5-26.5l0,0c0-14.6,11.9-26.5,26.5-26.5h31c14.6,0,26.5,11.9,26.5,26.5
			l0,0C604.5,391.6,592.6,403.5,578,403.5z"/>
		<rect x="520.2" y="364.3" class="st69" width="88" height="31.9"/>
		<text transform="matrix(1 0 0 1 532.1699 374.2735)" class="st70 st71 st72">Mt. Everest</text>
		<text transform="matrix(1 0 0 1 542.5599 391.0735)" class="st70 st71 st72">8849 m</text>
	</g>
	<g id="TitanicLink" class="st67">
		<path class="st68" d="M423.5,338.5h-79c-13.2,0-24-10.8-24-24l0,0c0-13.2,10.8-24,24-24h79c13.2,0,24,10.8,24,24l0,0
			C447.5,327.7,436.7,338.5,423.5,338.5z"/>
		<text transform="matrix(1 0 0 1 340.7124 310.2095)" class="st70 st71 st72">Titanic sunk at </text>
		<text transform="matrix(1 0 0 1 340.7124 327.0095)" class="st70 st71 st72">approx. 3800 m</text>
	</g>
	<g id="BoreholeLink" class="st67">
		<path class="st68" d="M523.5,813.5h-147c-20.9,0-38-17.1-38-38l0,0c0-20.9,17.1-38,38-38h147c20.9,0,38,17.1,38,38l0,0
			C561.5,796.4,544.4,813.5,523.5,813.5z"/>
		<text transform="matrix(1 0 0 1 350.1294 767)" class="st70 st71 st72">World&apos;s deepest human-made hole </text>
		<text transform="matrix(1 0 0 1 367.5494 783.8)" class="st70 st71 st72">The Kola Superdeep Borehole</text>
		<text transform="matrix(1 0 0 1 412.7694 800.6)" class="st70 st71 st72">12,262 metres</text>
	</g>
	<g id="sBRobertsLink" class="st67">
		<path class="st68" d="M330.5,737.5h-124c-14.9,0-27-12.2-27-27l0,0c0-14.8,12.1-27,27-27h124c14.9,0,27,12.2,27,27l0,0
			C357.5,725.3,345.4,737.5,330.5,737.5z"/>
		<text transform="matrix(1 0 0 1 200.3799 707)" class="st70 st71 st73">Deepest known Shipwreck</text>
		<text transform="matrix(1 0 0 1 186.1699 721.4)" class="st70 st71 st73">USS Samuel B Roberts at 6895 m</text>
	</g>
	<g id="VentsLink" class="st67">
		<path class="st68" d="M377,564.5h-88c-15.7,0-28.5-12.8-28.5-28.5l0,0c0-15.7,12.8-28.5,28.5-28.5h88c15.7,0,28.5,12.8,28.5,28.5
			l0,0C405.5,551.7,392.7,564.5,377,564.5z"/>
		<text transform="matrix(1 0 0 1 283.1707 532.3218)" class="st70 st71 st73">Hydrothermal vents</text>
		<text transform="matrix(1 0 0 1 274.5707 546.7218)" class="st70 st71 st73">(Black smokers) 5000 m</text>
	</g>
	<g id="DCSubLink" class="st67">
		<path class="st68" d="M219.5,950.5h-91c-12.1,0-22-9.9-22-22l0,0c0-12.1,9.9-22,22-22h91c12.1,0,22,9.9,22,22l0,0
			C241.5,940.6,231.6,950.5,219.5,950.5z"/>
		<text transform="matrix(1 0 0 1 122.2969 919.3335)" class="st70 st71 st73">Deepsea Challenger  </text>
		<text transform="matrix(1 0 0 1 111.3569 933.7335)" class="st70 st71 st73">deep-diving submersible </text>
		<text transform="matrix(1 0 0 1 152.0969 948.1335)" class="st70 st71 st73">10,908 m</text>
	</g>
	<g id="BurjkLink" class="st67">
		<path class="st68" d="M368.4,929.5h-85.8c-13.3,0-24.1-10.8-24.1-24.1v-4.8c0-13.3,10.9-24.1,24.1-24.1h85.8
			c13.3,0,24.1,10.8,24.1,24.1v4.8C392.5,918.7,381.6,929.5,368.4,929.5z"/>
		<text transform="matrix(1 0 0 1 296.4292 893)" class="st70 st71 st73">Burj Khalifa </text>
		<text transform="matrix(1 0 0 1 264.5992 907.4)" class="st70 st71 st73">(world&apos;s tallest building) </text>
		<text transform="matrix(1 0 0 1 306.0592 921.8)" class="st70 st71 st73">829.8 m</text>
	</g>
	<g id="SnailfishLink" class="st67">
		<path class="st68" d="M123.5,854h-44c-5.2,0-9.5-4.3-9.5-9.5l0,0c0-5.2,4.3-9.5,9.5-9.5h44c5.2,0,9.5,4.3,9.5,9.5l0,0
			C133,849.7,128.7,854,123.5,854z"/>
		<text transform="matrix(1 0 0 1 76.6562 848.022)" class="st70 st71 st72">Snailfish</text>
	</g>
	<g id="CEelLink" class="st67">
		<path class="st68" d="M183.8,563.8h-43c-4.7,0-8.5-3.8-8.5-8.5l0,0c0-4.7,3.8-8.5,8.5-8.5h43c4.7,0,8.5,3.8,8.5,8.5l0,0
			C192.3,560,188.4,563.8,183.8,563.8z"/>
		<text transform="matrix(1 0 0 1 141.0559 558.8445)" class="st70 st71 st73">Cusk-eel</text>
	</g>
	<g id="AnglerfishLink" class="st67">
		<path class="st68" d="M190.5,397h-43c-4.7,0-8.5-3.8-8.5-8.5l0,0c0-4.7,3.8-8.5,8.5-8.5h43c4.7,0,8.5,3.8,8.5,8.5l0,0
			C199,393.2,195.2,397,190.5,397z"/>
		<text transform="matrix(1 0 0 1 142.3335 391.667)" class="st70 st71 st73">Anglerfish</text>
	</g>
	<g id="JellyfishLink" class="st67">
		<path class="st68" d="M197.8,196.1h-35c-6.3,0-11.5-5.2-11.5-11.5l0,0c0-6.3,5.2-11.5,11.5-11.5h35c6.3,0,11.5,5.2,11.5,11.5l0,0
			C209.3,190.9,204.1,196.1,197.8,196.1z"/>
		<text transform="matrix(1 0 0 1 160.5529 188.0945)" class="st70 st71 st73">Jellyfish</text>
	</g>
	<g id="OctopusLink" class="st67">
		<path class="st68" d="M398.8,177.5h-31c-6,0-11-4.9-11-11l0,0c0-6.1,5-11,11-11h31c6,0,11,4.9,11,11l0,0
			C409.8,172.6,404.9,177.5,398.8,177.5z"/>
		<text transform="matrix(1 0 0 1 362.0347 169.667)" class="st70 st71 st73">Octopus</text>
	</g>
	<g id="DolphinLink" class="st67">
		<path class="st68" d="M316.5,71.5h-29c-4.4,0-8-3.6-8-8l0,0c0-4.4,3.6-8,8-8h29c4.4,0,8,3.6,8,8l0,0
			C324.5,67.9,320.9,71.5,316.5,71.5z"/>
		<text transform="matrix(1 0 0 1 281.7927 67.022)" class="st70 st71 st73">Dolphin</text>
	</g>
	<g id="DiverLink1" class="st67">
		<path class="st68" d="M408.5,115.5h-29c-4.4,0-8-3.6-8-8l0,0c0-4.4,3.6-8,8-8h29c4.4,0,8,3.6,8,8l0,0
			C416.5,111.9,412.9,115.5,408.5,115.5z"/>
		<text transform="matrix(1 0 0 1 378.5388 111.022)" class="st70 st71 st73">Diver</text>
	</g>
	<g id="FishLink" class="st67">
		<path class="st68" d="M252.5,128.5h-12c-4.4,0-8-3.6-8-8l0,0c0-4.4,3.6-8,8-8h12c4.4,0,8,3.6,8,8l0,0
			C260.5,124.9,256.9,128.5,252.5,128.5z"/>
		<text transform="matrix(1 0 0 1 236.761 124.022)" class="st70 st71 st73">Fish</text>
	</g>
	<g id="DiverLink2" class="st67">
		<path class="st68" d="M507,75H356c-3.9,0-7-3.2-7-7l0,0c0-3.8,3.1-7,7-7h151c3.9,0,7,3.2,7,7l0,0C514,71.8,510.9,75,507,75z"/>
		<text transform="matrix(1 0 0 1 353 72.3335)" class="st70 st71 st73">Deepest Human Dive 323.35 m</text>
	</g>
</g>
<g id="Titles">
	<text transform="matrix(1 0 0 1 3.3779 956)" class="st6 st71 st74">10,000 m</text>
	<text transform="matrix(1 0 0 1 5.333 982)" class="st6 st71 st73">10,935 m ( The Challenger Deep)</text>
	<text transform="matrix(1 0 0 1 15.6025 589)" class="st6 st71 st74">6000 m</text>
	<text transform="matrix(1 0 0 1 16.0566 409)" class="st6 st71 st72"> 4000 m</text>
	<text transform="matrix(1 0 0 1 18.8848 129)" class="st51 st71 st72">1000 m</text>
	<text transform="matrix(1 0 0 1 26.6543 59)" class="st51 st71 st72">200 m</text>
	<text transform="matrix(1 0 0 1 75.667 55.6665)" class="st51 st71 st73">Epipelagic (Sunlight) Zone</text>
	<text transform="matrix(1 0 0 1 4.667 38.6665)" class="st51 st71 st73">High Water (Sea Level)</text>
	<text transform="matrix(1 0 0 1 16.667 97.6665)" class="st51 st71 st75">Mesopelagic (Twilight) Zone</text>
	<text transform="matrix(1 0 0 1 21.667 269.6665)" class="st6 st71 st76">Bathypelagic (Midnight) Zone</text>
	<text transform="matrix(1 0 0 1 18.667 476.6665)" class="st6 st71 st76">Abyssopelagic (Abyssal) Zone</text>
	<text transform="matrix(1 0 0 1 12.667 704.6665)" class="st6 st71 st76">Hadopelagic (Hadal)  </text>
	<text transform="matrix(1 0 0 1 12.667 725.0665)" class="st6 st71 st76">Zone and Trenches</text>
</g>
</svg>
