<?xml version="1.0" encoding="utf-8"?>
<!-- Generator: Adobe Illustrator 27.8.1, SVG Export Plug-In . SVG Version: 6.00 Build 0)  -->
<svg version="1.1" id="Target" xmlns="http://www.w3.org/2000/svg" xmlns:xlink="http://www.w3.org/1999/xlink" x="0px" y="0px"
	 viewBox="0 0 304.2 198" style="enable-background:new 0 0 304.2 198;" xml:space="preserve">
<style type="text/css">
	.st0{fill:#6FCCDC;stroke:#231F20;stroke-width:0.3222;stroke-miterlimit:10;}
	.st1{fill:#D097C4;stroke:#231F20;stroke-width:0.6444;stroke-miterlimit:10;}
	.st2{fill:#ED1C24;}
	.st3{fill:#B26FAE;stroke:#231F20;stroke-width:0.6444;stroke-miterlimit:10;}
	.st4{fill:#9695C9;stroke:#231F20;stroke-width:0.6444;stroke-miterlimit:10;}
	.st5{fill:#464771;stroke:#231F20;stroke-width:0.6444;stroke-miterlimit:10;}
	.st6{fill:#CECCCF;stroke:#231F20;stroke-width:0.3222;stroke-miterlimit:10;}
	.st7{fill:#999A98;stroke:#231F20;stroke-width:0.3222;stroke-miterlimit:10;}
	.st8{fill:#CECCCF;stroke:#231F20;stroke-width:0.2797;stroke-miterlimit:10;}
	.st9{fill:#999A98;stroke:#231F20;stroke-width:0.2797;stroke-miterlimit:10;}
	.st10{fill:#DADD98;stroke:#231F20;stroke-width:0.6444;stroke-miterlimit:10;}
	.st11{fill:#B5B46E;stroke:#231F20;stroke-width:0.6444;stroke-miterlimit:10;}
	.st12{fill:#EC008C;}
	.st13{fill:#231F20;}
	.st14{fill:#FFFFFF;stroke:#231F20;stroke-width:0.7071;stroke-miterlimit:10;}
	.st15{fill:#FFFFFF;}
	.st16{fill:none;stroke:#231F20;stroke-width:0.7071;stroke-miterlimit:10;}
	.st17{fill:#E1E2E2;stroke:#231F20;stroke-width:0.3222;stroke-miterlimit:10;}
	.st18{fill:#FFFFFF;stroke:#231F20;stroke-width:0.3038;stroke-miterlimit:10;}
	.st19{font-family:'MyriadPro-Regular';}
	.st20{font-size:8px;}
	.st21{display:none;}
	.st22{display:inline;}
	.st23{fill:none;stroke:#00AEEF;stroke-miterlimit:10;}
	.st24{display:inline;fill:#231F20;}
	.st25{font-size:6px;}
	.st26{font-family:'MyriadPro-Bold';}
</style>
<path id="DampeningFountain" onmouseover="document.getElementById(&quot;DampeningFountainLink&quot;).style.display=&quot;block&quot;;" onmouseout="document.getElementById(&quot;DampeningFountainLink&quot;).style.display=&quot;none&quot;;" class="st0" d="
	M145.41,95.23c-0.27,0.04-6.12,4.16-6.12,4.16H125.7l-3.65-4.16H145.41z"/>
<g id="ImpressionC" onmouseover="document.getElementById(&quot;ImpressionCLink&quot;).style.display=&quot;block&quot;;" onmouseout="document.getElementById(&quot;ImpressionCLink&quot;).style.display=&quot;none&quot;;">
	<circle class="st1" cx="113.5" cy="161.86" r="14.54"/>
	<g>
		<g>
			<path class="st2" d="M102.28,161.86c0.06,4.65,2.91,8.84,7.27,10.5c4.42,1.69,9.62,0.29,12.61-3.37
				c2.96-3.62,3.39-8.84,0.98-12.87c-2.4-4.02-7.12-6.11-11.72-5.29C106.14,151.78,102.35,156.55,102.28,161.86
				c-0.01,1.04,1.6,1.04,1.61,0c0.06-4.01,2.54-7.68,6.35-9.05c3.8-1.36,8.13-0.16,10.7,2.95c2.55,3.09,2.87,7.59,0.82,11.03
				c-2.04,3.42-6.12,5.27-10.04,4.52c-4.54-0.87-7.77-4.87-7.83-9.45C103.88,160.82,102.27,160.82,102.28,161.86z"/>
		</g>
	</g>
	<path class="st2" d="M109.64,149.58l2.07,2.02l-1.03,2.28c0,0,3.52-1.6,7.83-1.16C118.5,152.72,115.22,148.43,109.64,149.58z"/>
	<path class="st2" d="M125.62,164.77l-2.78,0.79l-1.46-2.03c0,0-0.35,3.85-2.87,7.37C118.5,170.91,123.85,170.18,125.62,164.77z"/>
	<path class="st2" d="M104.25,171.14l0.89-2.75l2.5-0.09c0,0-3-2.44-4.52-6.5C103.12,161.81,100.74,166.65,104.25,171.14z"/>
	<circle class="st3" cx="113.5" cy="161.54" r="3.44"/>
</g>
<g id="PlateC" onmouseover="document.getElementById(&quot;PlateCLink&quot;).style.display=&quot;block&quot;;" onmouseout="document.getElementById(&quot;PlateCLink&quot;).style.display=&quot;none&quot;;">
	<circle class="st4" cx="141.01" cy="115.67" r="14.54"/>
	<g>
		<g>
			<path class="st2" d="M129.78,115.67c0.06,4.65,2.91,8.84,7.27,10.5c4.42,1.69,9.62,0.29,12.61-3.37
				c2.96-3.62,3.39-8.84,0.98-12.87c-2.4-4.02-7.12-6.11-11.72-5.29C133.64,105.59,129.85,110.36,129.78,115.67
				c-0.01,1.04,1.6,1.04,1.61,0c0.06-4.01,2.54-7.68,6.35-9.05c3.8-1.36,8.13-0.16,10.7,2.95c2.55,3.09,2.87,7.59,0.82,11.03
				c-2.04,3.42-6.12,5.27-10.04,4.52c-4.54-0.87-7.77-4.87-7.83-9.45C131.38,114.63,129.77,114.63,129.78,115.67z"/>
		</g>
	</g>
	<path class="st2" d="M137.14,103.39l2.07,2.02l-1.03,2.28c0,0,3.52-1.6,7.83-1.16C146,106.53,142.72,102.24,137.14,103.39z"/>
	<path class="st2" d="M153.12,118.58l-2.78,0.79l-1.46-2.03c0,0-0.35,3.85-2.87,7.37C146,124.72,151.35,123.99,153.12,118.58z"/>
	<path class="st2" d="M131.75,124.95l0.89-2.75l2.5-0.09c0,0-3-2.44-4.52-6.5C130.62,115.62,128.24,120.46,131.75,124.95z"/>
	<circle class="st5" cx="141.01" cy="115.35" r="3.44"/>
</g>
<g id="InkOscillatingR" onmouseover="document.getElementById(&quot;InkOscillatingRLink&quot;).style.display=&quot;block&quot;;" onmouseout="document.getElementById(&quot;InkOscillatingRLink&quot;).style.display=&quot;none&quot;;">
	<circle class="st6" cx="183" cy="96.38" r="7.28"/>
	<g>
		<g>
			<path class="st2" d="M177.38,96.7c0.03,2.33,1.46,4.42,3.64,5.26c2.21,0.84,4.82,0.14,6.31-1.69c1.48-1.81,1.7-4.42,0.49-6.44
				c-1.2-2.01-3.57-3.06-5.86-2.65C179.31,91.66,177.42,94.04,177.38,96.7c-0.01,0.52,0.8,0.52,0.81,0
				c0.03-2.01,1.27-3.85,3.18-4.53c1.9-0.68,4.07-0.08,5.35,1.48c1.28,1.55,1.44,3.8,0.41,5.52c-1.02,1.71-3.06,2.64-5.02,2.26
				c-2.27-0.44-3.89-2.44-3.92-4.73C178.18,96.18,177.37,96.18,177.38,96.7z"/>
		</g>
	</g>
	<path class="st2" d="M181.06,90.56l1.03,1.01l-0.52,1.14c0,0,1.76-0.8,3.92-0.58C185.5,92.13,183.86,89.98,181.06,90.56z"/>
	<path class="st2" d="M189.06,98.16l-1.39,0.4l-0.73-1.01c0,0-0.18,1.93-1.44,3.69C185.5,101.23,188.17,100.87,189.06,98.16z"/>
	<path class="st2" d="M178.37,101.35l0.45-1.38l1.25-0.04c0,0-1.5-1.22-2.26-3.25C177.8,96.68,176.61,99.1,178.37,101.35z"/>
	<circle class="st7" cx="183" cy="96.22" r="1.72"/>
</g>
<g id="RTI4" onmouseover="document.getElementById(&quot;RollersInkLink&quot;).style.display=&quot;block&quot;;" onmouseout="document.getElementById(&quot;RollersInkLink&quot;).style.display=&quot;none&quot;;">
	<circle class="st6" cx="168.83" cy="117.66" r="7.28"/>
	<g>
		<g>
			<path class="st2" d="M163.21,117.66c0.03,2.33,1.46,4.42,3.64,5.26c2.21,0.84,4.82,0.14,6.31-1.69c1.48-1.81,1.7-4.42,0.49-6.44
				c-1.2-2.01-3.56-3.06-5.86-2.65C165.14,112.62,163.25,115.01,163.21,117.66c-0.01,0.52,0.8,0.52,0.81,0
				c0.03-2.01,1.27-3.85,3.18-4.53c1.9-0.68,4.07-0.08,5.35,1.48c1.28,1.55,1.44,3.8,0.41,5.52c-1.02,1.71-3.06,2.64-5.02,2.26
				c-2.27-0.44-3.89-2.44-3.92-4.73C164.01,117.15,163.2,117.14,163.21,117.66z"/>
		</g>
	</g>
	<path class="st2" d="M166.89,111.52l1.03,1.01l-0.52,1.14c0,0,1.76-0.8,3.92-0.58C171.33,113.09,169.69,110.94,166.89,111.52z"/>
	<path class="st2" d="M174.89,119.12l-1.39,0.4l-0.73-1.01c0,0-0.18,1.93-1.44,3.69C171.33,122.19,174,121.83,174.89,119.12z"/>
	<path class="st2" d="M164.2,122.31l0.45-1.38l1.25-0.04c0,0-1.5-1.22-2.26-3.25C163.63,117.64,162.44,120.06,164.2,122.31z"/>
	<circle class="st7" cx="168.83" cy="117.5" r="1.72"/>
</g>
<g id="FormR" onmouseover="document.getElementById(&quot;FormRollerLink&quot;).style.display=&quot;block&quot;;" onmouseout="document.getElementById(&quot;FormRollerLink&quot;).style.display=&quot;none&quot;;">
	<circle class="st6" cx="158.77" cy="128.53" r="7.28"/>
	<g>
		<g>
			<path class="st2" d="M162.27,131.84c-1.42,1.39-3.6,1.82-5.42,0.97c-1.84-0.86-2.95-2.8-2.77-4.83c0.18-2.02,1.69-3.73,3.64-4.22
				c1.95-0.48,4.06,0.34,5.16,2.02C164.13,127.69,163.85,130.22,162.27,131.84c-0.36,0.37,0.21,0.94,0.57,0.57
				c1.65-1.68,2.1-4.21,1.12-6.35c-0.98-2.13-3.31-3.46-5.64-3.21c-2.33,0.25-4.33,1.94-4.89,4.22c-0.56,2.27,0.37,4.69,2.3,6.02
				c2.21,1.51,5.23,1.18,7.12-0.68C163.21,132.05,162.64,131.48,162.27,131.84z"/>
		</g>
	</g>
	<path class="st2" d="M164.58,125.46l-1.45-0.02l-0.44,1.17c0,0-0.68-1.81-2.36-3.18C160.33,123.43,163.01,123.08,164.58,125.46z"/>
	<path class="st2" d="M153.55,125.18l0.7,1.26l1.24-0.2c0,0-1.24,1.49-1.59,3.63C153.89,129.87,152.26,127.72,153.55,125.18z"/>
	<path class="st2" d="M158.85,135l0.66-1.29l-0.85-0.91c0,0,1.92,0.2,3.9-0.7C162.56,132.1,161.69,134.65,158.85,135z"/>
	<circle class="st7" cx="158.88" cy="128.42" r="1.72"/>
</g>
<g id="InkFountainR" onmouseover="document.getElementById(&quot;InkFountainRLink&quot;).style.display=&quot;block&quot;;" onmouseout="document.getElementById(&quot;InkFountainRLink&quot;).style.display=&quot;none&quot;;">
	<circle class="st6" cx="216.18" cy="115.35" r="5.79"/>
	<g>
		<g>
			<path class="st2" d="M219.03,117.91c-1.13,1.11-2.86,1.45-4.31,0.77c-1.46-0.69-2.35-2.23-2.2-3.84c0.14-1.6,1.34-2.97,2.9-3.35
				c1.55-0.38,3.23,0.27,4.11,1.6C220.51,114.61,220.29,116.62,219.03,117.91c-0.29,0.29,0.16,0.75,0.45,0.45
				c1.31-1.34,1.67-3.35,0.89-5.05c-0.78-1.7-2.64-2.75-4.49-2.55c-1.85,0.2-3.44,1.54-3.89,3.36c-0.45,1.81,0.3,3.73,1.83,4.78
				c1.76,1.2,4.16,0.93,5.66-0.54C219.77,118.08,219.32,117.62,219.03,117.91z"/>
		</g>
	</g>
	<path class="st2" d="M220.86,112.84l-1.15-0.01l-0.35,0.93c0,0-0.54-1.44-1.88-2.53C217.49,111.23,219.62,110.95,220.86,112.84z"/>
	<path class="st2" d="M212.09,112.62l0.56,1.01l0.98-0.16c0,0-0.98,1.18-1.27,2.88C212.37,116.35,211.07,114.64,212.09,112.62z"/>
	<path class="st2" d="M216.31,120.42l0.52-1.02l-0.68-0.73c0,0,1.53,0.16,3.1-0.56C219.26,118.12,218.56,120.15,216.31,120.42z"/>
	<circle class="st7" cx="216.27" cy="115.26" r="1.37"/>
</g>
<g id="InkDuctorR" onmouseover="document.getElementById(&quot;InkDuctorRLink&quot;).style.display=&quot;block&quot;;" onmouseout="document.getElementById(&quot;InkDuctorRLink&quot;).style.display=&quot;none&quot;;">
	<circle class="st8" cx="205.72" cy="108.28" r="5.02"/>
	<g>
		<g>
			<path class="st2" d="M208.19,110.51c-0.98,0.96-2.49,1.26-3.74,0.67c-1.27-0.6-2.04-1.93-1.91-3.33
				c0.12-1.39,1.16-2.58,2.51-2.91c1.34-0.33,2.8,0.23,3.56,1.39C209.48,107.64,209.29,109.39,208.19,110.51
				c-0.25,0.26,0.14,0.65,0.39,0.39c1.14-1.16,1.45-2.9,0.77-4.38c-0.68-1.47-2.29-2.38-3.9-2.21c-1.61,0.17-2.99,1.34-3.38,2.92
				c-0.39,1.57,0.26,3.24,1.59,4.15c1.52,1.04,3.61,0.81,4.91-0.47C208.84,110.65,208.45,110.26,208.19,110.51z"/>
		</g>
	</g>
	<path class="st2" d="M209.79,106.11l-1-0.01l-0.3,0.81c0,0-0.47-1.25-1.63-2.2C206.86,104.71,208.7,104.46,209.79,106.11z"/>
	<path class="st2" d="M202.18,105.91l0.49,0.87l0.85-0.14c0,0-0.85,1.03-1.1,2.5C202.42,109.15,201.29,107.67,202.18,105.91z"/>
	<path class="st2" d="M205.84,112.69l0.45-0.89l-0.59-0.63c0,0,1.33,0.14,2.69-0.48C208.4,110.69,207.79,112.45,205.84,112.69z"/>
	<circle class="st9" cx="205.8" cy="108.2" r="1.19"/>
</g>
<g id="RTI3" onmouseover="document.getElementById(&quot;RollersInkLink&quot;).style.display=&quot;block&quot;;" onmouseout="document.getElementById(&quot;RollersInkLink&quot;).style.display=&quot;none&quot;;">
	<circle class="st8" cx="189.74" cy="107.03" r="5.02"/>
	<g>
		<g>
			<path class="st2" d="M192.21,109.25c-0.98,0.96-2.49,1.26-3.74,0.67c-1.27-0.6-2.04-1.93-1.91-3.33
				c0.12-1.39,1.16-2.58,2.51-2.91c1.34-0.33,2.8,0.23,3.56,1.39C193.5,106.39,193.31,108.13,192.21,109.25
				c-0.25,0.26,0.14,0.65,0.39,0.39c1.14-1.16,1.45-2.9,0.77-4.38c-0.68-1.47-2.29-2.38-3.9-2.21c-1.61,0.17-2.99,1.34-3.38,2.92
				c-0.39,1.57,0.26,3.24,1.59,4.15c1.52,1.04,3.61,0.81,4.91-0.47C192.86,109.39,192.47,109,192.21,109.25z"/>
		</g>
	</g>
	<path class="st2" d="M193.81,104.85l-1-0.01l-0.3,0.81c0,0-0.47-1.25-1.63-2.2C190.88,103.45,192.72,103.2,193.81,104.85z"/>
	<path class="st2" d="M186.2,104.65l0.49,0.87l0.85-0.14c0,0-0.85,1.03-1.1,2.5C186.43,107.89,185.31,106.41,186.2,104.65z"/>
	<path class="st2" d="M189.86,111.43l0.45-0.89l-0.59-0.63c0,0,1.33,0.14,2.69-0.48C192.41,109.43,191.81,111.19,189.86,111.43z"/>
	<circle class="st9" cx="189.82" cy="106.95" r="1.19"/>
</g>
<g id="RTI2" onmouseover="document.getElementById(&quot;RollersInkLink&quot;).style.display=&quot;block&quot;;" onmouseout="document.getElementById(&quot;RollersInkLink&quot;).style.display=&quot;none&quot;;">
	<circle class="st8" cx="175.84" cy="106.95" r="5.02"/>
	<g>
		<g>
			<path class="st2" d="M178.31,109.17c-0.98,0.96-2.49,1.26-3.74,0.67c-1.27-0.6-2.04-1.93-1.91-3.33
				c0.12-1.39,1.16-2.58,2.51-2.91c1.34-0.33,2.8,0.23,3.56,1.39C179.6,106.31,179.41,108.05,178.31,109.17
				c-0.25,0.26,0.14,0.65,0.39,0.39c1.14-1.16,1.45-2.9,0.77-4.38c-0.68-1.47-2.29-2.38-3.9-2.21c-1.61,0.17-2.99,1.34-3.38,2.92
				c-0.39,1.57,0.26,3.24,1.59,4.15c1.52,1.04,3.61,0.81,4.91-0.47C178.96,109.31,178.57,108.92,178.31,109.17z"/>
		</g>
	</g>
	<path class="st2" d="M179.91,104.77l-1-0.01l-0.3,0.81c0,0-0.47-1.25-1.63-2.2C176.98,103.37,178.82,103.13,179.91,104.77z"/>
	<path class="st2" d="M172.3,104.58l0.49,0.87l0.85-0.14c0,0-0.85,1.03-1.1,2.5C172.53,107.81,171.41,106.33,172.3,104.58z"/>
	<path class="st2" d="M175.96,111.35l0.45-0.89l-0.59-0.63c0,0,1.33,0.14,2.69-0.48C178.51,109.35,177.91,111.11,175.96,111.35z"/>
	<circle class="st9" cx="175.92" cy="106.87" r="1.19"/>
</g>
<g id="OuterR" onmouseover="document.getElementById(&quot;OuterRLink&quot;).style.display=&quot;block&quot;;" onmouseout="document.getElementById(&quot;OuterRLink&quot;).style.display=&quot;none&quot;;">
	<circle class="st8" cx="143.18" cy="87.23" r="5.02"/>
	<g>
		<g>
			<path class="st2" d="M145.65,89.45c-0.98,0.96-2.49,1.26-3.74,0.67c-1.27-0.6-2.04-1.93-1.91-3.33c0.12-1.39,1.16-2.58,2.51-2.91
				c1.34-0.33,2.8,0.23,3.56,1.39C146.94,86.59,146.75,88.33,145.65,89.45c-0.25,0.26,0.14,0.65,0.39,0.39
				c1.14-1.16,1.45-2.9,0.77-4.38c-0.68-1.47-2.29-2.38-3.9-2.21c-1.61,0.17-2.99,1.34-3.38,2.92c-0.39,1.57,0.26,3.24,1.59,4.15
				c1.52,1.04,3.61,0.81,4.91-0.47C146.3,89.59,145.91,89.2,145.65,89.45z"/>
		</g>
	</g>
	<path class="st2" d="M147.25,85.05l-1-0.01l-0.3,0.81c0,0-0.47-1.25-1.63-2.2C144.32,83.65,146.17,83.4,147.25,85.05z"/>
	<path class="st2" d="M139.64,84.85l0.49,0.87l0.85-0.14c0,0-0.85,1.03-1.1,2.5C139.88,88.09,138.75,86.61,139.64,84.85z"/>
	<path class="st2" d="M143.3,91.63l0.45-0.89l-0.59-0.63c0,0,1.33,0.14,2.69-0.48C145.86,89.63,145.25,91.39,143.3,91.63z"/>
	<circle class="st9" cx="143.26" cy="87.15" r="1.19"/>
</g>
<g id="FountainR" onmouseover="document.getElementById(&quot;FountainRLink&quot;).style.display=&quot;block&quot;;" onmouseout="document.getElementById(&quot;FountainRLink&quot;).style.display=&quot;none&quot;;">
	<circle class="st8" cx="133.55" cy="91.85" r="5.02"/>
	<g>
		<g>
			<path class="st2" d="M130.68,94.47c1.16,1.14,2.9,1.45,4.38,0.77c1.47-0.68,2.38-2.29,2.21-3.9c-0.17-1.61-1.34-2.99-2.92-3.38
				c-1.57-0.39-3.24,0.26-4.15,1.59C129.17,91.08,129.4,93.16,130.68,94.47c0.25,0.26,0.64-0.14,0.39-0.39
				c-0.96-0.98-1.26-2.49-0.67-3.74c0.6-1.27,1.93-2.04,3.33-1.91c1.39,0.12,2.58,1.16,2.91,2.51c0.33,1.34-0.23,2.8-1.39,3.56
				c-1.31,0.86-3.06,0.67-4.18-0.42C130.82,93.83,130.43,94.22,130.68,94.47z"/>
		</g>
	</g>
	<path class="st2" d="M129.48,89.67l1-0.01l0.3,0.81c0,0,0.47-1.25,1.63-2.2C132.41,88.27,130.56,88.03,129.48,89.67z"/>
	<path class="st2" d="M137.09,89.48l-0.49,0.87l-0.85-0.14c0,0,0.85,1.03,1.1,2.5C136.85,92.72,137.98,91.24,137.09,89.48z"/>
	<path class="st2" d="M133.43,96.26l-0.45-0.89l0.59-0.63c0,0-1.33,0.14-2.69-0.48C130.87,94.25,131.48,96.02,133.43,96.26z"/>
	<circle class="st9" cx="133.47" cy="91.77" r="1.19"/>
</g>
<g id="RTI1" onmouseover="document.getElementById(&quot;RollersInkLink&quot;).style.display=&quot;block&quot;;" onmouseout="document.getElementById(&quot;RollersInkLink&quot;).style.display=&quot;none&quot;;">
	<circle class="st6" cx="197.02" cy="114.8" r="5.79"/>
	<g>
		<g>
			<path class="st2" d="M200.04,118.1c1.31-1.34,1.67-3.35,0.89-5.05c-0.78-1.7-2.64-2.75-4.49-2.55c-1.85,0.2-3.44,1.54-3.89,3.36
				c-0.45,1.81,0.3,3.73,1.83,4.78C196.13,119.85,198.53,119.58,200.04,118.1c0.3-0.29-0.16-0.74-0.45-0.45
				c-1.13,1.11-2.86,1.45-4.31,0.77c-1.46-0.69-2.35-2.23-2.2-3.84c0.14-1.6,1.34-2.97,2.9-3.35c1.55-0.38,3.23,0.27,4.11,1.6
				c0.99,1.51,0.78,3.53-0.49,4.82C199.3,117.94,199.75,118.4,200.04,118.1z"/>
		</g>
	</g>
	<path class="st2" d="M194.51,119.49l-0.01-1.15l0.93-0.35c0,0-1.44-0.54-2.53-1.88C192.9,116.11,192.62,118.24,194.51,119.49z"/>
	<path class="st2" d="M194.29,110.72l1.01,0.56l-0.16,0.98c0,0,1.18-0.98,2.88-1.27C198.02,110.99,196.31,109.69,194.29,110.72z"/>
	<path class="st2" d="M202.1,114.94l-1.02,0.52l-0.73-0.68c0,0,0.16,1.53-0.56,3.1C199.79,117.88,201.82,117.19,202.1,114.94z"/>
	<circle class="st7" cx="196.93" cy="114.89" r="1.37"/>
</g>
<g id="RollerWater" onmouseover="document.getElementById(&quot;RollerWaterLink&quot;).style.display=&quot;block&quot;;" onmouseout="document.getElementById(&quot;RollerWaterLink&quot;).style.display=&quot;none&quot;;">
	<circle class="st6" cx="153.74" cy="93.92" r="5.79"/>
	<g>
		<g>
			<path class="st2" d="M156.76,97.22c1.31-1.34,1.67-3.35,0.89-5.05c-0.78-1.7-2.64-2.75-4.49-2.55c-1.85,0.2-3.44,1.54-3.89,3.36
				c-0.45,1.81,0.3,3.73,1.83,4.78C152.85,98.96,155.25,98.69,156.76,97.22c0.3-0.29-0.16-0.74-0.45-0.45
				c-1.13,1.11-2.86,1.45-4.31,0.77c-1.46-0.69-2.35-2.23-2.2-3.84c0.14-1.6,1.34-2.97,2.9-3.35c1.55-0.38,3.23,0.27,4.11,1.6
				c0.99,1.51,0.78,3.53-0.49,4.82C156.02,97.06,156.47,97.51,156.76,97.22z"/>
		</g>
	</g>
	<path class="st2" d="M151.23,98.6l-0.01-1.15l0.93-0.35c0,0-1.44-0.54-2.53-1.88C149.62,95.23,149.34,97.36,151.23,98.6z"/>
	<path class="st2" d="M151.01,89.83l1.01,0.56l-0.16,0.98c0,0,1.18-0.98,2.88-1.27C154.74,90.11,153.03,88.81,151.01,89.83z"/>
	<path class="st2" d="M158.81,94.05l-1.02,0.52l-0.73-0.68c0,0,0.16,1.53-0.56,3.1C156.51,97,158.54,96.3,158.81,94.05z"/>
	<circle class="st7" cx="153.65" cy="94.01" r="1.37"/>
</g>
<g id="FormR2" onmouseover="document.getElementById(&quot;FormRoller2Link&quot;).style.display=&quot;block&quot;;" onmouseout="document.getElementById(&quot;FormRoller2Link&quot;).style.display=&quot;none&quot;;">
	<circle class="st6" cx="160.75" cy="105.22" r="7.28"/>
	<g>
		<g>
			<path class="st2" d="M164.24,108.52c-1.42,1.39-3.6,1.82-5.42,0.97c-1.84-0.86-2.95-2.8-2.77-4.83c0.18-2.02,1.69-3.73,3.64-4.22
				c1.95-0.48,4.06,0.34,5.16,2.02C166.11,104.37,165.83,106.9,164.24,108.52c-0.36,0.37,0.21,0.94,0.57,0.57
				c1.65-1.68,2.1-4.21,1.12-6.35c-0.98-2.13-3.31-3.46-5.64-3.21c-2.33,0.25-4.33,1.94-4.89,4.22c-0.56,2.27,0.37,4.69,2.3,6.02
				c2.21,1.51,5.23,1.18,7.12-0.68C165.19,108.73,164.62,108.16,164.24,108.52z"/>
		</g>
	</g>
	<path class="st2" d="M166.56,102.14l-1.45-0.02l-0.44,1.17c0,0-0.68-1.81-2.36-3.18C162.31,100.12,164.99,99.76,166.56,102.14z"/>
	<path class="st2" d="M155.53,101.86l0.7,1.26l1.24-0.2c0,0-1.24,1.49-1.59,3.63C155.87,106.56,154.24,104.41,155.53,101.86z"/>
	<path class="st2" d="M160.83,111.68l0.66-1.29l-0.85-0.91c0,0,1.92,0.2,3.9-0.7C164.54,108.78,163.66,111.33,160.83,111.68z"/>
	<circle class="st7" cx="160.86" cy="105.1" r="1.72"/>
</g>
<g id="BlanketC" onmouseover="document.getElementById(&quot;BlanketCLink&quot;).style.display=&quot;block&quot;;" onmouseout="document.getElementById(&quot;BlanketCLink&quot;).style.display=&quot;none&quot;;">
	<circle class="st10" cx="115.6" cy="131.37" r="16.02"/>
	<g>
		<g>
			<path class="st2" d="M119.98,121.89c3.92,2.04,6.3,6.23,5.81,10.66c-0.49,4.45-3.86,8.16-8.2,9.15
				c-4.3,0.99-8.92-0.92-11.27-4.65c-2.34-3.71-2.15-8.57,0.5-12.08C109.86,120.93,115.47,119.68,119.98,121.89
				c1.02,0.5,1.92-1.03,0.9-1.53c-4.61-2.25-10.16-1.58-13.98,1.91c-3.86,3.52-5.03,9.25-2.97,14.03c2.04,4.73,7.03,7.8,12.18,7.42
				c5.14-0.38,9.59-3.94,11.04-8.9c1.65-5.65-1.08-11.75-6.27-14.45C119.87,119.83,118.97,121.36,119.98,121.89z"/>
		</g>
	</g>
	<path class="st2" d="M105.1,121.48l0.96,3.04l2.75,0.11c0,0-3.32,2.67-5.02,7.13C103.79,131.75,101.2,126.4,105.1,121.48z"/>
	<path class="st2" d="M112.11,144.73l2.16-2.34l-1.27-2.45c0,0,3.96,1.56,8.68,0.83C121.69,140.77,118.32,145.67,112.11,144.73z"/>
	<path class="st2" d="M128.98,126.87l-3.15-0.49l-1.33,2.41c0,0-0.91-4.16-4.15-7.67C120.37,121.13,126.31,121.19,128.98,126.87z"/>
	<circle class="st11" cx="115.28" cy="131.21" r="3.79"/>
</g>
<g id="InkFountain" onmouseover="document.getElementById(&quot;InkFountainLink&quot;).style.display=&quot;block&quot;;" onmouseout="document.getElementById(&quot;InkFountainLink&quot;).style.display=&quot;none&quot;;">
	<path class="st12" d="M218.53,109.82c0,0,1.53-1.33,3.25-0.8c1.72,0.53,1.92,3.24,1.92,3.24l-0.64,2.54l-1.25,2.37L218.53,109.82z"
		/>
	
		<rect x="222.74" y="109.24" transform="matrix(-0.8397 -0.5431 0.5431 -0.8397 349.5693 334.6297)" class="st13" width="2.88" height="12.96"/>
</g>
<g id="Paper">
	
		<rect x="45.22" y="148.11" transform="matrix(-1 -4.498103e-11 4.498103e-11 -1 137.1125 298.7705)" class="st14" width="46.67" height="2.54"/>
	<g>
		<line class="st15" x1="91.98" y1="147.4" x2="135.03" y2="147.4"/>
		<g>
			<line class="st16" x1="91.98" y1="147.4" x2="130.03" y2="147.4"/>
			<g>
				<polygon class="st13" points="135.03,147.4 127.99,150.27 129.66,147.4 127.99,144.53 				"/>
			</g>
		</g>
	</g>
	<g>
		
			<rect x="104.99" y="177.14" transform="matrix(-1 -4.482338e-11 4.482338e-11 -1 290.4846 359.1515)" class="st17" width="80.51" height="4.87"/>
		
			<rect x="137.57" y="139.94" transform="matrix(-1 -4.486068e-11 4.486068e-11 -1 318.8465 319.5198)" class="st18" width="43.71" height="39.63"/>
		<g>
			<path class="st12" d="M142.81,154.48c2.79-0.57,4.96-0.86,6.5-0.87c0.92-0.01,2.16,0.07,3.69,0.24c1.58,0.18,2.71,0.27,3.39,0.27
				c0.55,0,1.06-0.03,1.54-0.1l1.19,2.04l0.69-0.33l-1.04-1.83c0.4-0.03,0.92-0.05,1.56-0.05c1.54,0,3.65,0.21,6.34,0.63v11.09
				c-0.82-0.02-1.59-0.1-2.33-0.24c-1.18-0.23-1.77-0.56-1.77-0.98c0-0.36,0.4-0.71,1.21-1.05c0.81-0.34,1.21-0.67,1.21-0.99
				c0-0.95-2.23-1.45-6.69-1.52c-0.39-0.01-1.02,0-1.89,0.02c-0.95,0.03-1.62,0.05-2,0.05c-1.5,0-2.25-0.14-2.25-0.42
				c0-0.19,0.29-0.39,0.87-0.61c0.58-0.22,0.87-0.42,0.87-0.62c0-0.71-1.7-1.05-5.09-1.01c-1.06,0.01-2.02,0.12-2.86,0.35
				c-0.99,0.26-1.49,0.6-1.49,1.03c0,0.55,0.5,1.03,1.49,1.43c0.92,0.3,1.84,0.6,2.76,0.9c0.99,0.34,1.48,0.72,1.48,1.13
				c0,1.36-2.47,2.2-7.4,2.53V154.48z M148.7,158.86c2.2-0.04,3.3,0.17,3.3,0.64c0,0.08-0.28,0.22-0.83,0.43
				c-0.56,0.21-0.83,0.46-0.83,0.76c0,0.32,0.93,0.58,2.79,0.79c1.4,0.16,2.77,0.24,4.1,0.27c1.96,0.02,3.3,0.08,4.03,0.16
				c1.07,0.13,1.61,0.37,1.61,0.72c0,0.26-0.58,0.54-1.75,0.85c-1.17,0.31-1.75,0.61-1.75,0.9c0,0.54,1.19,0.94,3.58,1.19h-3.5
				c-1.79-0.06-2.69-0.46-2.69-1.19c0-0.26,0.52-0.53,1.57-0.79c1.05-0.26,1.57-0.53,1.57-0.8c0-0.19-0.39-0.33-1.17-0.44
				c-0.68-0.09-1.41-0.14-2.21-0.13c-1.56,0.02-2.34,0.33-2.34,0.93c0,0.05,0,0.11,0.01,0.18c0.01,0.07,0.01,0.13,0.01,0.16
				c-0.02,0.47-0.63,0.96-1.84,1.46c-0.51,0.21-1.11,0.42-1.82,0.62h-4.2c4.32-0.62,6.46-1.48,6.43-2.56
				c-0.01-0.42-0.59-0.82-1.76-1.2c-1.07-0.32-2.14-0.63-3.22-0.94c-1.16-0.39-1.74-0.8-1.74-1.24
				C146.06,159.14,146.94,158.88,148.7,158.86z M157.92,158.89l-0.03,1.35l1.24-1.35l2.9,0.22l-1.9-0.73l1.82-0.97l-2.62,0.63
				l-2.1-0.66l0.66,0.93l-2.7,0.38L157.92,158.89z M152.36,145.06l0.45-0.2l7.6,0.24l-1.26,2.76l-4.8,2.4l-4.1,0.77l-1.55-0.65
				L152.36,145.06z M156.07,149.5l3.54,6.18l-0.45,0.21l-3.58-6.14L156.07,149.5z"/>
		</g>
		<polygon class="st12" points="172.07,150.67 169.48,149.65 167.19,151.21 167.35,148.44 165.16,146.73 167.85,146.03 
			168.79,143.43 170.29,145.76 173.06,145.86 171.3,148 		"/>
		<text transform="matrix(1 0 0 1 144.3191 174.3934)" class="st12 st19 st20">Text</text>
	</g>
</g>
<g id="InkFountainLink" class="st21">
	<g class="st22">
		<line class="st23" x1="231.5" y1="107.5" x2="244.5" y2="98.5"/>
		<circle class="st23" cx="228.5" cy="109.5" r="4"/>
	</g>
	<text transform="matrix(1 0 0 1 245.8335 99.8335)" class="st24 st19 st20">Ink Fountain</text>
</g>
<g id="InkFountainRLink" class="st21">
	<g class="st22">
		<line class="st23" x1="216.51" y1="119.7" x2="217.08" y2="135"/>
		<circle class="st23" cx="216.54" cy="115.57" r="4"/>
	</g>
	<text transform="matrix(1 0 0 1 218.8343 137.8317)" class="st24 st19 st20">Ink Fountain Roller</text>
</g>
<g id="InkDuctorRLink" class="st21">
	<g class="st22">
		<line class="st23" x1="205.6" y1="103.43" x2="205.31" y2="87.43"/>
		<circle class="st23" cx="205.53" cy="107.56" r="4"/>
	</g>
	<text transform="matrix(1 0 0 1 192.8335 85.8335)" class="st24 st19 st20">Ink Ductor Roller</text>
</g>
<g id="InkOscillatingRLink" class="st21">
	<g class="st22">
		<line class="st23" x1="183.13" y1="92.5" x2="182.85" y2="63.01"/>
		<circle class="st23" cx="183.07" cy="96.63" r="4"/>
	</g>
	<text transform="matrix(1 0 0 1 180.8335 61.8335)" class="st24 st19 st20">Ink Oscillating Roller</text>
</g>
<g id="RollerWaterLink" class="st21">
	<g class="st22">
		<line class="st23" x1="154.13" y1="89.5" x2="153.85" y2="60.01"/>
		<circle class="st23" cx="154.07" cy="93.63" r="4"/>
	</g>
	<text transform="matrix(1 0 0 1 144.4375 51.8335)" class="st22"><tspan x="0" y="0" class="st13 st19 st20">Roller </tspan><tspan x="-9.9" y="7.2" class="st13 st19 st25">(transfers water)</tspan></text>
</g>
<g id="RollersInkLink" class="st21">
	<g class="st22">
		<line class="st23" x1="172.12" y1="120.78" x2="191.15" y2="143.3"/>
		<circle class="st23" cx="169.53" cy="117.56" r="4"/>
	</g>
	<g class="st22">
		<line class="st23" x1="178.11" y1="109.78" x2="191.5" y2="143.5"/>
		<circle class="st23" cx="175.53" cy="106.56" r="4"/>
	</g>
	<g class="st22">
		<line class="st23" x1="189.61" y1="110.54" x2="191.5" y2="143.5"/>
		<circle class="st23" cx="190.5" cy="106.5" r="4"/>
	</g>
	<g class="st22">
		<line class="st23" x1="195.69" y1="119.21" x2="191.5" y2="142.5"/>
		<circle class="st23" cx="197.5" cy="115.5" r="4"/>
	</g>
	<text transform="matrix(1 0 0 1 185.8335 149.8335)" class="st22"><tspan x="0" y="0" class="st13 st19 st20">Rollers </tspan><tspan x="23.96" y="0" class="st13 st19 st25">(transfer ink)</tspan></text>
</g>
<g id="OuterRLink" class="st21">
	<g class="st22">
		<line class="st23" x1="140.76" y1="83.52" x2="120.42" y2="62.17"/>
		<circle class="st23" cx="143.53" cy="86.58" r="4"/>
	</g>
	<text transform="matrix(1 0 0 1 88.8335 60.8335)" class="st24 st19 st20">Outer Roller</text>
</g>
<g id="FountainRLink" class="st21">
	<g class="st22">
		<line class="st23" x1="129.38" y1="91.54" x2="99.9" y2="92.11"/>
		<circle class="st23" cx="133.52" cy="91.56" r="4"/>
	</g>
	<text transform="matrix(1 0 0 1 49.8335 92.8335)" class="st24 st19 st20">Fountain Roller</text>
</g>
<g id="DampeningFountainLink" class="st21">
	<g class="st22">
		<line class="st23" x1="118.39" y1="98.54" x2="88.91" y2="99.11"/>
		<circle class="st23" cx="122.52" cy="98.56" r="4"/>
	</g>
	<text transform="matrix(1 0 0 1 16.8335 101.8335)" class="st24 st19 st20">Dampening Fountain</text>
</g>
<g id="PlateCLink" class="st21">
	<g class="st22">
		<line class="st23" x1="127.39" y1="109.54" x2="97.91" y2="110.11"/>
		<circle class="st23" cx="131.52" cy="109.57" r="4"/>
	</g>
	<text transform="matrix(1 0 0 1 50.8342 111.8354)" class="st24 st19 st20">Plate Cylinder</text>
</g>
<g id="BlanketCLink" class="st21">
	<g class="st22">
		<line class="st23" x1="110.39" y1="131.54" x2="80.91" y2="132.12"/>
		<circle class="st23" cx="114.52" cy="131.57" r="4"/>
	</g>
	<text transform="matrix(1 0 0 1 24.8335 133.8335)" class="st24 st19 st20">Blanket Cylinder</text>
</g>
<g id="ImpressionCLink" class="st21">
	<g class="st22">
		<line class="st23" x1="109.39" y1="161.55" x2="79.91" y2="162.12"/>
		<circle class="st23" cx="113.52" cy="161.58" r="4"/>
	</g>
	<text transform="matrix(1 0 0 1 12.8335 163.8335)" class="st24 st19 st20">Impression Cylinder</text>
</g>
<g id="FormRollerLink" class="st21">
	<g class="st22">
		<line class="st23" x1="163.39" y1="128.88" x2="192.87" y2="128.6"/>
		<circle class="st23" cx="159.26" cy="128.82" r="4"/>
	</g>
	<text transform="matrix(1 0 0 1 168.8335 135.8335)" class="st24 st19 st20">Form Roller</text>
</g>
<g id="FormRoller2Link" class="st21">
	<g class="st22">
		<line class="st23" x1="161.13" y1="100.5" x2="160.85" y2="71.01"/>
		<circle class="st23" cx="161.07" cy="104.63" r="4"/>
	</g>
	<text transform="matrix(1 0 0 1 141.8335 69.8335)" class="st24 st19 st20">Form Roller</text>
</g>
<text transform="matrix(1 0 0 1 108 28)" class="st13 st26 st20">Roller System of an Offset Press</text>
</svg>
