<?xml version="1.0" encoding="utf-8"?>
<!-- Generator: Adobe Illustrator 27.8.1, SVG Export Plug-In . SVG Version: 6.00 Build 0)  -->
<svg version="1.1"
	 id="Target" onclick="alert(&quot;This is a rake!&quot;);" onmouseover="document.getElementById(&quot;Rake2&quot;).style.display=&quot;none&quot;;" onmouseout="document.getElementById(&quot;Rake2&quot;).style.display=&quot;block&quot;;"
	 xmlns="http://www.w3.org/2000/svg" xmlns:xlink="http://www.w3.org/1999/xlink" x="0px" y="0px" viewBox="0 0 270 270"
	 style="enable-background:new 0 0 270 270;" xml:space="preserve">
<style type="text/css">
	.st0{fill:#231F20;}
	.st1{font-family:'MyriadPro-Bold';}
	.st2{font-size:12px;}
	.st3{fill:#1C75BC;stroke:#231F20;stroke-miterlimit:10;}
	.st4{fill:#1C75BC;stroke:#231F20;stroke-linejoin:round;stroke-miterlimit:10;}
	.st5{fill:#27AAE1;stroke:#231F20;stroke-miterlimit:10;}
	.st6{fill:#2B3990;stroke:#231F20;stroke-miterlimit:10;}
	.st7{fill:#D1D3D4;stroke:#231F20;stroke-miterlimit:10;}
	.st8{fill:#D1D3D4;stroke:#231F20;stroke-linejoin:round;stroke-miterlimit:10;}
	.st9{fill:#A7A9AC;stroke:#231F20;stroke-miterlimit:10;}
	.st10{fill:#414042;stroke:#231F20;stroke-miterlimit:10;}
</style>
<text id="Title" transform="matrix(1 0 0 1 17 24.7778)" class="st0 st1 st2">Click on the Tool to discover what it is called.</text>
<g id="Rake1">
	<g>
		<path class="st3" d="M15.5,192.5h3.61c0,0-1,5.61-0.81,7.31s1.19,6.69,1.19,6.69s-2-4.39-3-6.69S15.5,192.5,15.5,192.5z"/>
		<path class="st3" d="M23.5,195.5h3.61c0,0-1,5.61-0.81,7.31s1.19,6.69,1.19,6.69s-2-4.39-3-6.69S23.5,195.5,23.5,195.5z"/>
		<path class="st3" d="M31.5,198.5h3.61c0,0-1,5.61-0.81,7.31c0.19,1.69,1.19,6.69,1.19,6.69s-2-4.39-3-6.69S31.5,198.5,31.5,198.5z
			"/>
		<path class="st3" d="M39.5,200.5h3.61c0,0-1,5.61-0.81,7.31c0.19,1.69,1.19,6.69,1.19,6.69s-2-4.39-3-6.69S39.5,200.5,39.5,200.5z
			"/>
		<path class="st3" d="M47.5,203.5h3.61c0,0-1,5.61-0.81,7.31c0.19,1.69,1.19,6.69,1.19,6.69s-2-4.39-3-6.69S47.5,203.5,47.5,203.5z
			"/>
		<path class="st3" d="M55.5,206.5h3.61c0,0-1,5.61-0.81,7.31c0.19,1.69,1.19,6.69,1.19,6.69s-2-4.39-3-6.69S55.5,206.5,55.5,206.5z
			"/>
		<path class="st3" d="M63.5,208.5h3.61c0,0-1,5.61-0.81,7.31s1.19,6.69,1.19,6.69s-2-4.39-3-6.69S63.5,208.5,63.5,208.5z"/>
		<path class="st3" d="M71.5,211.5h3.61c0,0-1,5.61-0.81,7.31s1.19,6.69,1.19,6.69s-2-4.39-3-6.69S71.5,211.5,71.5,211.5z"/>
		<path class="st3" d="M79.5,214.5h3.61c0,0-1,5.61-0.81,7.31s1.19,6.69,1.19,6.69s-2-4.39-3-6.69S79.5,214.5,79.5,214.5z"/>
		<path class="st3" d="M87.5,217.5h3.61c0,0-1,5.61-0.81,7.31s1.19,6.69,1.19,6.69s-2-4.39-3-6.69S87.5,217.5,87.5,217.5z"/>
		<polygon class="st3" points="92.5,217.5 14.5,191.5 21.5,188.5 96.5,213.5 		"/>
		<polygon class="st3" points="91.5,222.04 14.5,195.47 14.12,191.68 91.5,217.5 		"/>
		<polygon class="st4" points="96.44,217.78 92.44,221.78 92.5,217.5 96.5,213.5 		"/>
	</g>
	<rect x="155.5" y="16.5" transform="matrix(0.6449 0.7643 -0.7643 0.6449 140.3243 -83.017)" class="st5" width="8" height="186"/>
	<path class="st3" d="M54.5,201.5c0,0-3,1-4,0s-1-2-1-2L86,166.47c0,0,3.5,0.03,4.5,1.03s0.65,5.07,0.65,5.07L54.5,201.5z"/>
	<path class="st6" d="M246.57,39.8c-9.86-0.18-12.86,1.67-20.57,7.2c-8.05,5.78-27,23-27,23s3-1,5,1s2,5,2,5s6.28-5.51,12.11-10.21
		c0.27,0.05,0.54,0.08,0.85,0.08c2.71,0,4.14-1.98,4.31-4.08c1.33-0.99,2.7-2.12,4.11-3.28c0.23,0.03,0.45,0.07,0.7,0.07
		c2.72,0,4.14-1.98,4.31-4.08c1.13-0.84,2.29-1.64,3.47-2.36c0.46,0.16,0.97,0.27,1.55,0.27c2.16,0,3.52-1.26,4.07-2.83
		c1.41-0.4,2.86-0.62,4.34-0.59C251.69,49.1,252.48,39.91,246.57,39.8z"/>
</g>
<g id="Rake2">
	<g>
		<path class="st7" d="M15.5,192.5h3.61c0,0-1,5.61-0.81,7.31s1.19,6.69,1.19,6.69s-2-4.39-3-6.69S15.5,192.5,15.5,192.5z"/>
		<path class="st7" d="M23.5,195.5h3.61c0,0-1,5.61-0.81,7.31s1.19,6.69,1.19,6.69s-2-4.39-3-6.69S23.5,195.5,23.5,195.5z"/>
		<path class="st7" d="M31.5,198.5h3.61c0,0-1,5.61-0.81,7.31c0.19,1.69,1.19,6.69,1.19,6.69s-2-4.39-3-6.69S31.5,198.5,31.5,198.5z
			"/>
		<path class="st7" d="M39.5,200.5h3.61c0,0-1,5.61-0.81,7.31c0.19,1.69,1.19,6.69,1.19,6.69s-2-4.39-3-6.69S39.5,200.5,39.5,200.5z
			"/>
		<path class="st7" d="M47.5,203.5h3.61c0,0-1,5.61-0.81,7.31c0.19,1.69,1.19,6.69,1.19,6.69s-2-4.39-3-6.69S47.5,203.5,47.5,203.5z
			"/>
		<path class="st7" d="M55.5,206.5h3.61c0,0-1,5.61-0.81,7.31c0.19,1.69,1.19,6.69,1.19,6.69s-2-4.39-3-6.69S55.5,206.5,55.5,206.5z
			"/>
		<path class="st7" d="M63.5,208.5h3.61c0,0-1,5.61-0.81,7.31s1.19,6.69,1.19,6.69s-2-4.39-3-6.69S63.5,208.5,63.5,208.5z"/>
		<path class="st7" d="M71.5,211.5h3.61c0,0-1,5.61-0.81,7.31s1.19,6.69,1.19,6.69s-2-4.39-3-6.69S71.5,211.5,71.5,211.5z"/>
		<path class="st7" d="M79.5,214.5h3.61c0,0-1,5.61-0.81,7.31s1.19,6.69,1.19,6.69s-2-4.39-3-6.69S79.5,214.5,79.5,214.5z"/>
		<path class="st7" d="M87.5,217.5h3.61c0,0-1,5.61-0.81,7.31s1.19,6.69,1.19,6.69s-2-4.39-3-6.69S87.5,217.5,87.5,217.5z"/>
		<polygon class="st7" points="92.5,217.5 14.5,191.5 21.5,188.5 96.5,213.5 		"/>
		<polygon class="st7" points="91.5,222.04 14.5,195.47 14.12,191.68 91.5,217.5 		"/>
		<polygon class="st8" points="96.44,217.78 92.44,221.78 92.5,217.5 96.5,213.5 		"/>
	</g>
	<rect x="155.5" y="16.5" transform="matrix(0.6449 0.7643 -0.7643 0.6449 140.3243 -83.017)" class="st9" width="8" height="186"/>
	<path class="st7" d="M54.5,201.5c0,0-3,1-4,0s-1-2-1-2L86,166.47c0,0,3.5,0.03,4.5,1.03s0.65,5.07,0.65,5.07L54.5,201.5z"/>
	<path class="st10" d="M246.57,39.8c-9.86-0.18-12.86,1.67-20.57,7.2c-8.05,5.78-27,23-27,23s3-1,5,1s2,5,2,5s6.28-5.51,12.11-10.21
		c0.27,0.05,0.54,0.08,0.85,0.08c2.71,0,4.14-1.98,4.31-4.08c1.33-0.99,2.7-2.12,4.11-3.28c0.23,0.03,0.45,0.07,0.7,0.07
		c2.72,0,4.14-1.98,4.31-4.08c1.13-0.84,2.29-1.64,3.47-2.36c0.46,0.16,0.97,0.27,1.55,0.27c2.16,0,3.52-1.26,4.07-2.83
		c1.41-0.4,2.86-0.62,4.34-0.59C251.69,49.1,252.48,39.91,246.57,39.8z"/>
</g>
</svg>
